M48
;GenerationSoftware,Autodesk,EAGLE,9.6.2*%
;CreationDate,2023-05-14T19:07:32Z*%
FMAT,2
ICI,OFF
METRIC,TZ,000.000
T8C0.350
T7C0.650
T6C0.813
T5C1.000
T4C1.280
T3C1.300
T2C1.700
T1C1.750
%
G90
M71
T1
X91280Y12700
X43020Y12700
X33020Y12700
X67150Y12700
X57150Y12700
X81280Y12700
X33020Y36830
X43020Y36830
X57150Y36830
X67150Y36830
X81280Y36830
X91280Y36830
T2
X14421Y42124
X14421Y37124
T3
X5969Y4451
X5969Y27051
T4
X15494Y15113
X18034Y15113
X20574Y15113
T5
X4421Y45124
X4421Y34124
T6
X15240Y5080
X17780Y5080
T7
X74930Y29210
X73660Y19050
T8
X71120Y16510
X88900Y30480
X83820Y30480
X51689Y18923
X49149Y18923
X36830Y26670
M30