G04 EAGLE Gerber RS-274X export*
G75*
%MOMM*%
%FSLAX34Y34*%
%LPD*%
%INTop Copper*%
%IPPOS*%
%AMOC8*
5,1,8,0,0,1.08239X$1,22.5*%
G01*
%ADD10R,2.625000X2.625000*%
%ADD11C,2.625000*%
%ADD12C,2.550000*%
%ADD13C,1.508000*%
%ADD14P,1.429621X8X22.500000*%
%ADD15R,1.920000X1.920000*%
%ADD16C,1.920000*%
%ADD17R,1.800000X1.400000*%
%ADD18R,1.950000X1.950000*%
%ADD19C,1.950000*%
%ADD20C,1.270000*%
%ADD21C,0.812800*%
%ADD22C,1.016000*%
%ADD23C,0.756400*%
%ADD24C,0.609600*%
%ADD25C,0.304800*%
%ADD26C,2.540000*%

G36*
X72131Y10169D02*
X72131Y10169D01*
X72246Y10167D01*
X72414Y10189D01*
X72584Y10201D01*
X72697Y10225D01*
X72811Y10239D01*
X72975Y10284D01*
X73141Y10320D01*
X73249Y10359D01*
X73360Y10390D01*
X73517Y10457D01*
X73676Y10516D01*
X73778Y10570D01*
X73884Y10616D01*
X74029Y10704D01*
X74179Y10784D01*
X74272Y10852D01*
X74370Y10912D01*
X74501Y11020D01*
X74639Y11121D01*
X74721Y11201D01*
X74810Y11274D01*
X74925Y11399D01*
X75047Y11518D01*
X75117Y11609D01*
X75195Y11694D01*
X75292Y11834D01*
X75396Y11969D01*
X75453Y12069D01*
X75518Y12164D01*
X75593Y12316D01*
X75678Y12464D01*
X75720Y12571D01*
X75772Y12674D01*
X75825Y12835D01*
X75888Y12993D01*
X75915Y13106D01*
X75951Y13215D01*
X75982Y13382D01*
X76022Y13547D01*
X76033Y13662D01*
X76054Y13775D01*
X76061Y13945D01*
X76077Y14114D01*
X76072Y14229D01*
X76077Y14345D01*
X76060Y14514D01*
X76053Y14684D01*
X76032Y14797D01*
X76020Y14911D01*
X75980Y15077D01*
X75949Y15244D01*
X75912Y15353D01*
X75885Y15465D01*
X75821Y15623D01*
X75767Y15784D01*
X75716Y15887D01*
X75673Y15994D01*
X75588Y16141D01*
X75512Y16293D01*
X75447Y16388D01*
X75389Y16488D01*
X75316Y16577D01*
X75188Y16762D01*
X74963Y17006D01*
X74889Y17097D01*
X60703Y31283D01*
X60657Y31323D01*
X60616Y31367D01*
X60442Y31509D01*
X60272Y31657D01*
X60222Y31690D01*
X60175Y31728D01*
X59983Y31845D01*
X59794Y31967D01*
X59740Y31992D01*
X59688Y32023D01*
X59481Y32112D01*
X59277Y32207D01*
X59220Y32224D01*
X59164Y32248D01*
X58947Y32307D01*
X58732Y32372D01*
X58672Y32381D01*
X58614Y32397D01*
X58497Y32408D01*
X58169Y32459D01*
X57944Y32462D01*
X57829Y32473D01*
X57296Y32473D01*
X52872Y34306D01*
X49486Y37692D01*
X47653Y42116D01*
X47653Y46904D01*
X49486Y51328D01*
X52872Y54714D01*
X57296Y56547D01*
X62084Y56547D01*
X66508Y54714D01*
X69894Y51328D01*
X71727Y46904D01*
X71727Y46371D01*
X71731Y46310D01*
X71729Y46250D01*
X71751Y46027D01*
X71767Y45802D01*
X71779Y45743D01*
X71785Y45683D01*
X71839Y45465D01*
X71886Y45245D01*
X71906Y45188D01*
X71921Y45130D01*
X72004Y44921D01*
X72082Y44710D01*
X72110Y44657D01*
X72132Y44601D01*
X72244Y44406D01*
X72350Y44207D01*
X72386Y44159D01*
X72416Y44106D01*
X72491Y44015D01*
X72687Y43748D01*
X72844Y43586D01*
X72917Y43497D01*
X86267Y30147D01*
X86313Y30107D01*
X86354Y30063D01*
X86528Y29921D01*
X86698Y29773D01*
X86748Y29740D01*
X86795Y29702D01*
X86987Y29585D01*
X87176Y29463D01*
X87231Y29438D01*
X87282Y29407D01*
X87488Y29318D01*
X87693Y29223D01*
X87750Y29206D01*
X87806Y29182D01*
X88023Y29124D01*
X88238Y29058D01*
X88298Y29049D01*
X88356Y29033D01*
X88473Y29022D01*
X88801Y28971D01*
X89026Y28968D01*
X89141Y28957D01*
X193040Y28957D01*
X193269Y28973D01*
X193500Y28983D01*
X193554Y28993D01*
X193608Y28997D01*
X193834Y29045D01*
X194060Y29087D01*
X194112Y29104D01*
X194166Y29116D01*
X194382Y29195D01*
X194600Y29268D01*
X194649Y29293D01*
X194701Y29312D01*
X194904Y29420D01*
X195109Y29523D01*
X195155Y29554D01*
X195203Y29580D01*
X195389Y29716D01*
X195578Y29847D01*
X195619Y29884D01*
X195663Y29917D01*
X195828Y30077D01*
X195997Y30233D01*
X196032Y30276D01*
X196071Y30314D01*
X196212Y30496D01*
X196358Y30674D01*
X196386Y30722D01*
X196420Y30765D01*
X196534Y30965D01*
X196653Y31162D01*
X196675Y31212D01*
X196702Y31260D01*
X196787Y31474D01*
X196878Y31685D01*
X196892Y31738D01*
X196912Y31789D01*
X196967Y32014D01*
X197027Y32235D01*
X197031Y32279D01*
X197047Y32343D01*
X197102Y32910D01*
X197099Y32976D01*
X197103Y33020D01*
X197103Y141063D01*
X197097Y141159D01*
X197099Y141255D01*
X197077Y141443D01*
X197063Y141631D01*
X197043Y141725D01*
X197032Y141821D01*
X196984Y142004D01*
X196944Y142189D01*
X196911Y142279D01*
X196887Y142372D01*
X196813Y142546D01*
X196748Y142724D01*
X196703Y142809D01*
X196666Y142897D01*
X196569Y143059D01*
X196480Y143226D01*
X196423Y143304D01*
X196374Y143386D01*
X196255Y143534D01*
X196143Y143686D01*
X196076Y143755D01*
X196016Y143830D01*
X195878Y143959D01*
X195746Y144094D01*
X195670Y144153D01*
X195600Y144219D01*
X195445Y144327D01*
X195295Y144443D01*
X195212Y144491D01*
X195133Y144546D01*
X194965Y144631D01*
X194800Y144725D01*
X194711Y144761D01*
X194625Y144804D01*
X194447Y144866D01*
X194271Y144935D01*
X194177Y144958D01*
X194086Y144989D01*
X193901Y145025D01*
X193717Y145070D01*
X193621Y145079D01*
X193527Y145097D01*
X193338Y145106D01*
X193150Y145125D01*
X193054Y145121D01*
X192958Y145125D01*
X192770Y145108D01*
X192580Y145100D01*
X192486Y145083D01*
X192390Y145074D01*
X192206Y145031D01*
X192020Y144996D01*
X191929Y144966D01*
X191836Y144944D01*
X191659Y144875D01*
X191480Y144815D01*
X191394Y144772D01*
X191305Y144737D01*
X191140Y144645D01*
X190971Y144560D01*
X190892Y144505D01*
X190808Y144458D01*
X190657Y144343D01*
X190502Y144236D01*
X190431Y144171D01*
X190355Y144113D01*
X190273Y144025D01*
X190083Y143850D01*
X189899Y143625D01*
X189816Y143537D01*
X189487Y143108D01*
X188362Y141983D01*
X187099Y141014D01*
X185721Y140218D01*
X184403Y139672D01*
X184403Y151130D01*
X184403Y162588D01*
X185721Y162042D01*
X187099Y161246D01*
X188362Y160277D01*
X189488Y159152D01*
X189908Y158604D01*
X190048Y158447D01*
X190182Y158283D01*
X190236Y158233D01*
X190285Y158178D01*
X190446Y158041D01*
X190602Y157898D01*
X190663Y157856D01*
X190719Y157808D01*
X190898Y157695D01*
X191071Y157576D01*
X191137Y157543D01*
X191200Y157503D01*
X191393Y157416D01*
X191581Y157322D01*
X191652Y157299D01*
X191719Y157268D01*
X191922Y157209D01*
X192122Y157142D01*
X192195Y157129D01*
X192266Y157108D01*
X192475Y157078D01*
X192683Y157040D01*
X192757Y157037D01*
X192830Y157026D01*
X193041Y157025D01*
X193252Y157017D01*
X193326Y157024D01*
X193400Y157024D01*
X193609Y157052D01*
X193819Y157073D01*
X193891Y157091D01*
X193964Y157101D01*
X194168Y157159D01*
X194372Y157209D01*
X194441Y157236D01*
X194512Y157257D01*
X194706Y157342D01*
X194901Y157421D01*
X194966Y157457D01*
X195033Y157487D01*
X195212Y157599D01*
X195396Y157704D01*
X195441Y157742D01*
X195517Y157789D01*
X195954Y158155D01*
X195982Y158186D01*
X196004Y158205D01*
X199007Y161207D01*
X203411Y163032D01*
X203429Y163033D01*
X203660Y163043D01*
X203714Y163053D01*
X203768Y163057D01*
X203994Y163105D01*
X204220Y163147D01*
X204272Y163164D01*
X204326Y163176D01*
X204542Y163255D01*
X204760Y163328D01*
X204809Y163353D01*
X204861Y163372D01*
X205064Y163480D01*
X205269Y163583D01*
X205315Y163614D01*
X205363Y163640D01*
X205549Y163776D01*
X205738Y163907D01*
X205779Y163944D01*
X205823Y163977D01*
X205988Y164137D01*
X206157Y164293D01*
X206192Y164336D01*
X206231Y164374D01*
X206372Y164556D01*
X206518Y164734D01*
X206546Y164782D01*
X206580Y164825D01*
X206694Y165025D01*
X206813Y165222D01*
X206835Y165272D01*
X206862Y165320D01*
X206947Y165534D01*
X207038Y165745D01*
X207052Y165798D01*
X207072Y165849D01*
X207127Y166074D01*
X207187Y166295D01*
X207191Y166339D01*
X207207Y166403D01*
X207262Y166970D01*
X207259Y167036D01*
X207263Y167080D01*
X207263Y212020D01*
X207259Y212080D01*
X207261Y212140D01*
X207239Y212363D01*
X207223Y212588D01*
X207211Y212647D01*
X207205Y212707D01*
X207151Y212925D01*
X207104Y213145D01*
X207083Y213202D01*
X207069Y213261D01*
X206986Y213469D01*
X206908Y213680D01*
X206880Y213734D01*
X206857Y213790D01*
X206746Y213984D01*
X206640Y214183D01*
X206604Y214232D01*
X206574Y214284D01*
X206499Y214375D01*
X206303Y214643D01*
X206146Y214804D01*
X206073Y214893D01*
X204961Y216005D01*
X204613Y216845D01*
X204613Y231755D01*
X204961Y232595D01*
X205605Y233239D01*
X206445Y233587D01*
X225355Y233587D01*
X226195Y233239D01*
X226839Y232595D01*
X227187Y231755D01*
X227187Y216845D01*
X226839Y216005D01*
X225727Y214893D01*
X225687Y214847D01*
X225643Y214806D01*
X225500Y214632D01*
X225353Y214463D01*
X225320Y214412D01*
X225282Y214365D01*
X225165Y214173D01*
X225043Y213985D01*
X225018Y213930D01*
X224987Y213878D01*
X224898Y213672D01*
X224803Y213468D01*
X224786Y213410D01*
X224762Y213354D01*
X224704Y213138D01*
X224638Y212922D01*
X224629Y212863D01*
X224613Y212804D01*
X224602Y212687D01*
X224551Y212359D01*
X224548Y212134D01*
X224537Y212020D01*
X224537Y150682D01*
X223222Y147508D01*
X219522Y143808D01*
X216885Y142716D01*
X216883Y142715D01*
X216880Y142714D01*
X216623Y142585D01*
X216375Y142461D01*
X216373Y142460D01*
X216371Y142459D01*
X216136Y142296D01*
X215906Y142138D01*
X215904Y142136D01*
X215902Y142135D01*
X215688Y141938D01*
X215487Y141752D01*
X215485Y141750D01*
X215483Y141748D01*
X215300Y141525D01*
X215125Y141312D01*
X215124Y141310D01*
X215122Y141307D01*
X214974Y141063D01*
X214829Y140825D01*
X214828Y140822D01*
X214827Y140820D01*
X214716Y140562D01*
X214604Y140302D01*
X214603Y140299D01*
X214602Y140296D01*
X214527Y140018D01*
X214454Y139752D01*
X214454Y139749D01*
X214453Y139747D01*
X214452Y139733D01*
X214383Y139187D01*
X214385Y139047D01*
X214377Y138962D01*
X214377Y19872D01*
X212991Y16526D01*
X212954Y16479D01*
X212870Y16332D01*
X212778Y16189D01*
X212729Y16085D01*
X212672Y15984D01*
X212610Y15826D01*
X212538Y15672D01*
X212505Y15562D01*
X212462Y15455D01*
X212422Y15289D01*
X212373Y15127D01*
X212355Y15013D01*
X212328Y14901D01*
X212311Y14731D01*
X212285Y14564D01*
X212284Y14449D01*
X212273Y14334D01*
X212280Y14164D01*
X212278Y13994D01*
X212292Y13880D01*
X212297Y13764D01*
X212328Y13597D01*
X212350Y13429D01*
X212380Y13318D01*
X212401Y13204D01*
X212455Y13043D01*
X212500Y12879D01*
X212546Y12773D01*
X212583Y12664D01*
X212659Y12512D01*
X212726Y12356D01*
X212786Y12258D01*
X212838Y12155D01*
X212934Y12015D01*
X213023Y11870D01*
X213096Y11781D01*
X213162Y11686D01*
X213277Y11561D01*
X213385Y11430D01*
X213470Y11352D01*
X213548Y11267D01*
X213679Y11159D01*
X213804Y11045D01*
X213899Y10979D01*
X213989Y10906D01*
X214134Y10818D01*
X214274Y10722D01*
X214377Y10671D01*
X214476Y10611D01*
X214632Y10544D01*
X214784Y10468D01*
X214894Y10432D01*
X215000Y10386D01*
X215164Y10342D01*
X215325Y10288D01*
X215438Y10267D01*
X215550Y10237D01*
X215664Y10226D01*
X215885Y10186D01*
X216217Y10172D01*
X216334Y10161D01*
X976176Y10161D01*
X976405Y10177D01*
X976636Y10187D01*
X976690Y10197D01*
X976744Y10201D01*
X976970Y10249D01*
X977196Y10291D01*
X977248Y10308D01*
X977302Y10320D01*
X977518Y10399D01*
X977736Y10472D01*
X977785Y10497D01*
X977837Y10516D01*
X978040Y10624D01*
X978245Y10727D01*
X978291Y10758D01*
X978339Y10784D01*
X978525Y10920D01*
X978714Y11051D01*
X978755Y11088D01*
X978799Y11121D01*
X978964Y11281D01*
X979133Y11437D01*
X979168Y11480D01*
X979207Y11518D01*
X979348Y11700D01*
X979494Y11878D01*
X979522Y11926D01*
X979556Y11969D01*
X979670Y12169D01*
X979789Y12366D01*
X979811Y12416D01*
X979838Y12464D01*
X979923Y12678D01*
X980014Y12889D01*
X980028Y12942D01*
X980048Y12993D01*
X980103Y13218D01*
X980163Y13439D01*
X980167Y13483D01*
X980183Y13547D01*
X980238Y14114D01*
X980235Y14180D01*
X980239Y14224D01*
X980239Y477776D01*
X980223Y478005D01*
X980213Y478236D01*
X980203Y478290D01*
X980199Y478344D01*
X980151Y478570D01*
X980109Y478796D01*
X980092Y478848D01*
X980080Y478902D01*
X980001Y479118D01*
X979928Y479336D01*
X979903Y479385D01*
X979884Y479437D01*
X979776Y479640D01*
X979673Y479845D01*
X979642Y479891D01*
X979616Y479939D01*
X979480Y480125D01*
X979349Y480314D01*
X979312Y480355D01*
X979279Y480399D01*
X979119Y480564D01*
X978963Y480733D01*
X978920Y480768D01*
X978882Y480807D01*
X978700Y480948D01*
X978522Y481094D01*
X978474Y481122D01*
X978431Y481156D01*
X978231Y481270D01*
X978034Y481389D01*
X977984Y481411D01*
X977936Y481438D01*
X977722Y481523D01*
X977511Y481614D01*
X977458Y481628D01*
X977407Y481648D01*
X977182Y481703D01*
X976961Y481763D01*
X976917Y481767D01*
X976853Y481783D01*
X976286Y481838D01*
X976220Y481835D01*
X976176Y481839D01*
X14224Y481839D01*
X13995Y481823D01*
X13764Y481813D01*
X13710Y481803D01*
X13656Y481799D01*
X13430Y481751D01*
X13204Y481709D01*
X13152Y481692D01*
X13098Y481680D01*
X12882Y481601D01*
X12664Y481528D01*
X12615Y481503D01*
X12563Y481484D01*
X12360Y481376D01*
X12155Y481273D01*
X12109Y481242D01*
X12061Y481216D01*
X11875Y481080D01*
X11686Y480949D01*
X11645Y480912D01*
X11601Y480879D01*
X11436Y480719D01*
X11267Y480563D01*
X11232Y480520D01*
X11193Y480482D01*
X11052Y480300D01*
X10906Y480122D01*
X10878Y480074D01*
X10844Y480031D01*
X10730Y479831D01*
X10611Y479634D01*
X10589Y479584D01*
X10562Y479536D01*
X10477Y479322D01*
X10386Y479111D01*
X10372Y479058D01*
X10352Y479007D01*
X10297Y478782D01*
X10237Y478561D01*
X10233Y478517D01*
X10217Y478453D01*
X10162Y477886D01*
X10165Y477820D01*
X10161Y477776D01*
X10161Y14224D01*
X10177Y13995D01*
X10187Y13764D01*
X10197Y13710D01*
X10201Y13656D01*
X10249Y13430D01*
X10291Y13204D01*
X10308Y13152D01*
X10320Y13098D01*
X10399Y12882D01*
X10472Y12664D01*
X10497Y12615D01*
X10516Y12563D01*
X10624Y12360D01*
X10727Y12155D01*
X10758Y12109D01*
X10784Y12061D01*
X10920Y11875D01*
X11051Y11686D01*
X11088Y11645D01*
X11121Y11601D01*
X11281Y11436D01*
X11437Y11267D01*
X11480Y11232D01*
X11518Y11193D01*
X11700Y11052D01*
X11878Y10906D01*
X11926Y10878D01*
X11969Y10844D01*
X12169Y10730D01*
X12366Y10611D01*
X12416Y10589D01*
X12464Y10562D01*
X12678Y10477D01*
X12889Y10386D01*
X12942Y10372D01*
X12993Y10352D01*
X13218Y10297D01*
X13439Y10237D01*
X13483Y10233D01*
X13547Y10217D01*
X14114Y10162D01*
X14180Y10165D01*
X14224Y10161D01*
X72016Y10161D01*
X72131Y10169D01*
G37*
%LPC*%
G36*
X148186Y41909D02*
X148186Y41909D01*
X148170Y41914D01*
X148115Y41938D01*
X147898Y41996D01*
X147683Y42062D01*
X147623Y42071D01*
X147565Y42087D01*
X147448Y42098D01*
X147120Y42149D01*
X146895Y42152D01*
X146780Y42163D01*
X99882Y42163D01*
X96708Y43478D01*
X87928Y52258D01*
X86613Y55432D01*
X86613Y203648D01*
X87928Y206822D01*
X112728Y231622D01*
X115902Y232937D01*
X132948Y232937D01*
X133065Y232945D01*
X133183Y232944D01*
X133349Y232965D01*
X133516Y232977D01*
X133631Y233001D01*
X133748Y233016D01*
X133858Y233050D01*
X134073Y233096D01*
X134391Y233212D01*
X134503Y233246D01*
X135325Y233587D01*
X154235Y233587D01*
X154655Y233413D01*
X154819Y233358D01*
X154979Y233294D01*
X155089Y233268D01*
X155195Y233232D01*
X155365Y233201D01*
X155533Y233160D01*
X155645Y233149D01*
X155756Y233129D01*
X155928Y233122D01*
X156100Y233105D01*
X156213Y233110D01*
X156325Y233105D01*
X156497Y233122D01*
X156670Y233129D01*
X156780Y233150D01*
X156892Y233161D01*
X157060Y233202D01*
X157230Y233233D01*
X157336Y233269D01*
X157446Y233296D01*
X157606Y233360D01*
X157770Y233415D01*
X157871Y233465D01*
X157975Y233507D01*
X158125Y233592D01*
X158279Y233670D01*
X158372Y233734D01*
X158470Y233790D01*
X158606Y233895D01*
X158748Y233994D01*
X158831Y234070D01*
X158920Y234139D01*
X159040Y234263D01*
X159167Y234380D01*
X159238Y234467D01*
X159317Y234548D01*
X159418Y234687D01*
X159528Y234821D01*
X159586Y234917D01*
X159652Y235008D01*
X159734Y235160D01*
X159823Y235308D01*
X159868Y235412D01*
X159921Y235511D01*
X159980Y235673D01*
X160048Y235832D01*
X160077Y235940D01*
X160116Y236046D01*
X160152Y236215D01*
X160197Y236382D01*
X160205Y236467D01*
X160234Y236604D01*
X160272Y237154D01*
X160273Y237167D01*
X160273Y245433D01*
X160261Y245606D01*
X160259Y245778D01*
X160241Y245889D01*
X160233Y246002D01*
X160197Y246171D01*
X160171Y246341D01*
X160138Y246449D01*
X160114Y246559D01*
X160055Y246721D01*
X160005Y246886D01*
X159957Y246988D01*
X159918Y247094D01*
X159837Y247247D01*
X159764Y247403D01*
X159703Y247497D01*
X159650Y247596D01*
X159548Y247736D01*
X159454Y247881D01*
X159380Y247966D01*
X159313Y248056D01*
X159193Y248180D01*
X159079Y248310D01*
X158994Y248384D01*
X158916Y248465D01*
X158779Y248570D01*
X158649Y248684D01*
X158554Y248745D01*
X158465Y248813D01*
X158315Y248899D01*
X158170Y248993D01*
X158068Y249040D01*
X157970Y249096D01*
X157809Y249159D01*
X157653Y249232D01*
X157545Y249264D01*
X157441Y249306D01*
X157272Y249347D01*
X157107Y249396D01*
X156996Y249413D01*
X156887Y249440D01*
X156715Y249457D01*
X156544Y249483D01*
X156432Y249484D01*
X156320Y249495D01*
X156147Y249488D01*
X155974Y249490D01*
X155863Y249475D01*
X155750Y249471D01*
X155580Y249439D01*
X155409Y249417D01*
X155328Y249392D01*
X155190Y249367D01*
X154668Y249191D01*
X154655Y249187D01*
X154235Y249013D01*
X135325Y249013D01*
X134485Y249361D01*
X133841Y250005D01*
X133493Y250845D01*
X133493Y265755D01*
X133841Y266595D01*
X134383Y267137D01*
X134423Y267183D01*
X134467Y267224D01*
X134610Y267398D01*
X134757Y267567D01*
X134790Y267618D01*
X134828Y267665D01*
X134945Y267857D01*
X135067Y268045D01*
X135092Y268100D01*
X135123Y268152D01*
X135212Y268358D01*
X135306Y268562D01*
X135324Y268620D01*
X135348Y268676D01*
X135407Y268892D01*
X135472Y269108D01*
X135481Y269167D01*
X135497Y269226D01*
X135508Y269343D01*
X135559Y269671D01*
X135562Y269896D01*
X135573Y270010D01*
X135573Y305622D01*
X135561Y305794D01*
X135559Y305967D01*
X135541Y306078D01*
X135533Y306190D01*
X135497Y306359D01*
X135471Y306530D01*
X135438Y306637D01*
X135414Y306747D01*
X135355Y306910D01*
X135305Y307075D01*
X135257Y307177D01*
X135218Y307282D01*
X135137Y307435D01*
X135064Y307591D01*
X135003Y307686D01*
X134950Y307785D01*
X134848Y307924D01*
X134754Y308069D01*
X134680Y308154D01*
X134613Y308245D01*
X134493Y308368D01*
X134379Y308499D01*
X134294Y308572D01*
X134216Y308653D01*
X134079Y308759D01*
X133949Y308872D01*
X133854Y308933D01*
X133765Y309002D01*
X133615Y309087D01*
X133470Y309181D01*
X133368Y309228D01*
X133270Y309284D01*
X133109Y309348D01*
X132953Y309420D01*
X132845Y309453D01*
X132741Y309494D01*
X132572Y309535D01*
X132407Y309585D01*
X132296Y309602D01*
X132187Y309628D01*
X132015Y309645D01*
X131844Y309671D01*
X131732Y309673D01*
X131620Y309684D01*
X131447Y309676D01*
X131274Y309678D01*
X131163Y309664D01*
X131050Y309659D01*
X130880Y309627D01*
X130709Y309605D01*
X130628Y309580D01*
X130490Y309555D01*
X129967Y309379D01*
X129955Y309376D01*
X129950Y309374D01*
X128718Y308863D01*
X81461Y308863D01*
X81400Y308859D01*
X81340Y308861D01*
X81117Y308839D01*
X80892Y308823D01*
X80833Y308811D01*
X80773Y308805D01*
X80555Y308751D01*
X80335Y308704D01*
X80278Y308684D01*
X80220Y308669D01*
X80011Y308586D01*
X79800Y308508D01*
X79747Y308480D01*
X79691Y308458D01*
X79496Y308346D01*
X79297Y308240D01*
X79249Y308204D01*
X79196Y308174D01*
X79105Y308099D01*
X78838Y307903D01*
X78676Y307746D01*
X78587Y307673D01*
X69517Y298603D01*
X69477Y298557D01*
X69433Y298516D01*
X69291Y298342D01*
X69143Y298172D01*
X69110Y298122D01*
X69072Y298075D01*
X68955Y297883D01*
X68833Y297694D01*
X68808Y297639D01*
X68777Y297588D01*
X68688Y297382D01*
X68593Y297177D01*
X68576Y297120D01*
X68552Y297064D01*
X68494Y296847D01*
X68428Y296632D01*
X68419Y296572D01*
X68403Y296514D01*
X68392Y296397D01*
X68341Y296069D01*
X68338Y295844D01*
X68327Y295729D01*
X68327Y285911D01*
X68327Y285908D01*
X68327Y285906D01*
X68347Y285627D01*
X68367Y285343D01*
X68367Y285340D01*
X68367Y285337D01*
X68426Y285064D01*
X68486Y284786D01*
X68487Y284783D01*
X68487Y284780D01*
X68583Y284520D01*
X68682Y284251D01*
X68683Y284248D01*
X68684Y284245D01*
X68811Y284009D01*
X68950Y283748D01*
X68952Y283746D01*
X68953Y283743D01*
X69129Y283505D01*
X69287Y283288D01*
X69289Y283286D01*
X69290Y283284D01*
X69485Y283085D01*
X69684Y282880D01*
X69686Y282878D01*
X69688Y282876D01*
X69912Y282703D01*
X70135Y282531D01*
X70137Y282530D01*
X70139Y282528D01*
X70152Y282522D01*
X70630Y282249D01*
X70721Y282213D01*
X71379Y281555D01*
X71727Y280715D01*
X71727Y260305D01*
X71379Y259465D01*
X70735Y258821D01*
X69895Y258473D01*
X49485Y258473D01*
X48645Y258821D01*
X48001Y259465D01*
X47653Y260305D01*
X47653Y280715D01*
X48001Y281555D01*
X48661Y282215D01*
X48808Y282289D01*
X49055Y282412D01*
X49057Y282413D01*
X49059Y282414D01*
X49300Y282581D01*
X49524Y282735D01*
X49526Y282737D01*
X49528Y282738D01*
X49743Y282937D01*
X49943Y283121D01*
X49945Y283123D01*
X49947Y283125D01*
X50130Y283348D01*
X50305Y283561D01*
X50306Y283563D01*
X50308Y283566D01*
X50453Y283805D01*
X50601Y284048D01*
X50602Y284051D01*
X50603Y284053D01*
X50709Y284299D01*
X50826Y284571D01*
X50827Y284574D01*
X50828Y284577D01*
X50898Y284837D01*
X50976Y285121D01*
X50976Y285124D01*
X50977Y285127D01*
X50978Y285139D01*
X51047Y285686D01*
X51045Y285826D01*
X51053Y285911D01*
X51053Y302708D01*
X52368Y305882D01*
X71308Y324822D01*
X74482Y326137D01*
X121739Y326137D01*
X121800Y326141D01*
X121860Y326139D01*
X122083Y326161D01*
X122308Y326177D01*
X122367Y326189D01*
X122427Y326195D01*
X122645Y326249D01*
X122865Y326296D01*
X122922Y326316D01*
X122980Y326331D01*
X123189Y326414D01*
X123400Y326492D01*
X123453Y326520D01*
X123509Y326542D01*
X123704Y326654D01*
X123903Y326760D01*
X123951Y326796D01*
X124004Y326826D01*
X124095Y326901D01*
X124362Y327097D01*
X124524Y327254D01*
X124613Y327327D01*
X134383Y337097D01*
X134423Y337143D01*
X134467Y337184D01*
X134609Y337358D01*
X134757Y337528D01*
X134790Y337578D01*
X134828Y337625D01*
X134945Y337817D01*
X135067Y338006D01*
X135092Y338061D01*
X135123Y338112D01*
X135212Y338318D01*
X135307Y338523D01*
X135324Y338580D01*
X135348Y338636D01*
X135406Y338853D01*
X135472Y339068D01*
X135481Y339128D01*
X135497Y339186D01*
X135508Y339303D01*
X135559Y339631D01*
X135562Y339856D01*
X135573Y339971D01*
X135573Y355600D01*
X135557Y355829D01*
X135547Y356060D01*
X135537Y356114D01*
X135533Y356168D01*
X135485Y356394D01*
X135443Y356620D01*
X135426Y356672D01*
X135414Y356726D01*
X135335Y356942D01*
X135262Y357160D01*
X135237Y357209D01*
X135218Y357261D01*
X135110Y357464D01*
X135007Y357669D01*
X134976Y357715D01*
X134950Y357763D01*
X134814Y357949D01*
X134683Y358138D01*
X134646Y358179D01*
X134613Y358223D01*
X134453Y358388D01*
X134297Y358557D01*
X134254Y358592D01*
X134216Y358631D01*
X134034Y358772D01*
X133856Y358918D01*
X133808Y358946D01*
X133765Y358980D01*
X133565Y359094D01*
X133368Y359213D01*
X133318Y359235D01*
X133270Y359262D01*
X133056Y359347D01*
X132845Y359438D01*
X132792Y359452D01*
X132741Y359472D01*
X132516Y359527D01*
X132295Y359587D01*
X132251Y359591D01*
X132187Y359607D01*
X131620Y359662D01*
X131554Y359659D01*
X131510Y359663D01*
X112582Y359663D01*
X109408Y360978D01*
X106978Y363408D01*
X105663Y366582D01*
X105663Y458918D01*
X106978Y462092D01*
X109408Y464522D01*
X112582Y465837D01*
X331918Y465837D01*
X335092Y464522D01*
X337522Y462092D01*
X338837Y458918D01*
X338837Y387775D01*
X338853Y387546D01*
X338863Y387315D01*
X338873Y387261D01*
X338877Y387207D01*
X338925Y386981D01*
X338967Y386755D01*
X338984Y386703D01*
X338996Y386649D01*
X339075Y386433D01*
X339148Y386215D01*
X339173Y386166D01*
X339192Y386114D01*
X339300Y385911D01*
X339403Y385706D01*
X339434Y385660D01*
X339460Y385612D01*
X339596Y385426D01*
X339727Y385237D01*
X339764Y385196D01*
X339797Y385152D01*
X339957Y384987D01*
X340113Y384818D01*
X340156Y384783D01*
X340194Y384744D01*
X340376Y384603D01*
X340554Y384457D01*
X340602Y384429D01*
X340645Y384395D01*
X340845Y384281D01*
X341042Y384162D01*
X341092Y384140D01*
X341140Y384113D01*
X341354Y384028D01*
X341565Y383937D01*
X341618Y383923D01*
X341669Y383903D01*
X341894Y383848D01*
X342115Y383788D01*
X342159Y383784D01*
X342223Y383768D01*
X342790Y383713D01*
X342856Y383716D01*
X342900Y383712D01*
X343780Y383712D01*
X344620Y383364D01*
X345264Y382720D01*
X345612Y381880D01*
X345612Y354720D01*
X345264Y353880D01*
X344620Y353236D01*
X343780Y352888D01*
X316620Y352888D01*
X315780Y353236D01*
X315136Y353880D01*
X314788Y354720D01*
X314788Y381880D01*
X315136Y382720D01*
X315780Y383364D01*
X316620Y383712D01*
X317500Y383712D01*
X317729Y383728D01*
X317960Y383738D01*
X318014Y383748D01*
X318068Y383752D01*
X318294Y383800D01*
X318520Y383842D01*
X318572Y383859D01*
X318626Y383871D01*
X318842Y383950D01*
X319060Y384023D01*
X319109Y384048D01*
X319161Y384067D01*
X319364Y384175D01*
X319569Y384278D01*
X319615Y384309D01*
X319663Y384335D01*
X319849Y384471D01*
X320038Y384602D01*
X320079Y384639D01*
X320123Y384672D01*
X320288Y384832D01*
X320457Y384988D01*
X320492Y385031D01*
X320531Y385069D01*
X320672Y385251D01*
X320818Y385429D01*
X320846Y385477D01*
X320880Y385520D01*
X320994Y385720D01*
X321113Y385917D01*
X321135Y385967D01*
X321162Y386015D01*
X321247Y386229D01*
X321338Y386440D01*
X321352Y386493D01*
X321372Y386544D01*
X321427Y386769D01*
X321487Y386990D01*
X321491Y387034D01*
X321507Y387098D01*
X321562Y387665D01*
X321559Y387731D01*
X321563Y387775D01*
X321563Y444500D01*
X321547Y444729D01*
X321537Y444960D01*
X321527Y445014D01*
X321523Y445068D01*
X321475Y445294D01*
X321433Y445520D01*
X321416Y445572D01*
X321404Y445626D01*
X321325Y445842D01*
X321252Y446060D01*
X321227Y446109D01*
X321208Y446161D01*
X321100Y446364D01*
X320997Y446569D01*
X320966Y446615D01*
X320940Y446663D01*
X320804Y446849D01*
X320673Y447038D01*
X320636Y447079D01*
X320603Y447123D01*
X320443Y447288D01*
X320287Y447457D01*
X320244Y447492D01*
X320206Y447531D01*
X320024Y447672D01*
X319846Y447818D01*
X319798Y447846D01*
X319755Y447880D01*
X319555Y447994D01*
X319358Y448113D01*
X319308Y448135D01*
X319260Y448162D01*
X319046Y448247D01*
X318835Y448338D01*
X318782Y448352D01*
X318731Y448372D01*
X318506Y448427D01*
X318285Y448487D01*
X318241Y448491D01*
X318177Y448507D01*
X317610Y448562D01*
X317544Y448559D01*
X317500Y448563D01*
X127000Y448563D01*
X126771Y448547D01*
X126540Y448537D01*
X126486Y448527D01*
X126432Y448523D01*
X126206Y448475D01*
X125980Y448433D01*
X125928Y448416D01*
X125874Y448404D01*
X125658Y448325D01*
X125440Y448252D01*
X125391Y448227D01*
X125339Y448208D01*
X125136Y448100D01*
X124931Y447997D01*
X124885Y447966D01*
X124837Y447940D01*
X124651Y447804D01*
X124462Y447673D01*
X124421Y447636D01*
X124377Y447603D01*
X124212Y447443D01*
X124043Y447287D01*
X124008Y447244D01*
X123969Y447206D01*
X123828Y447024D01*
X123682Y446846D01*
X123654Y446798D01*
X123620Y446755D01*
X123506Y446555D01*
X123387Y446358D01*
X123365Y446308D01*
X123338Y446260D01*
X123253Y446046D01*
X123162Y445835D01*
X123148Y445782D01*
X123128Y445731D01*
X123073Y445506D01*
X123013Y445285D01*
X123009Y445241D01*
X122993Y445177D01*
X122938Y444610D01*
X122941Y444544D01*
X122937Y444500D01*
X122937Y430139D01*
X122942Y430063D01*
X122940Y429986D01*
X122962Y429779D01*
X122977Y429571D01*
X122993Y429496D01*
X123001Y429419D01*
X123052Y429218D01*
X123096Y429014D01*
X123122Y428942D01*
X123141Y428867D01*
X123220Y428675D01*
X123292Y428479D01*
X123328Y428411D01*
X123357Y428340D01*
X123462Y428160D01*
X123560Y427976D01*
X123606Y427914D01*
X123645Y427848D01*
X123774Y427684D01*
X123897Y427516D01*
X123950Y427461D01*
X123998Y427401D01*
X124149Y427257D01*
X124294Y427108D01*
X124355Y427061D01*
X124411Y427008D01*
X124580Y426887D01*
X124745Y426759D01*
X124811Y426721D01*
X124874Y426677D01*
X125059Y426580D01*
X125240Y426477D01*
X125311Y426449D01*
X125379Y426413D01*
X125575Y426344D01*
X125769Y426267D01*
X125844Y426249D01*
X125917Y426223D01*
X126120Y426182D01*
X126323Y426133D01*
X126400Y426125D01*
X126475Y426110D01*
X126682Y426098D01*
X126890Y426078D01*
X126967Y426081D01*
X127044Y426076D01*
X127251Y426093D01*
X127460Y426102D01*
X127535Y426116D01*
X127612Y426122D01*
X127815Y426168D01*
X128020Y426206D01*
X128092Y426231D01*
X128168Y426247D01*
X128363Y426321D01*
X128560Y426387D01*
X128629Y426422D01*
X128701Y426449D01*
X128883Y426549D01*
X129069Y426643D01*
X129133Y426686D01*
X129200Y426723D01*
X129367Y426848D01*
X129538Y426966D01*
X129595Y427018D01*
X129656Y427065D01*
X129804Y427212D01*
X129957Y427353D01*
X130006Y427412D01*
X130060Y427466D01*
X130131Y427565D01*
X130318Y427794D01*
X130449Y428010D01*
X130519Y428108D01*
X131469Y429753D01*
X132689Y431344D01*
X134106Y432761D01*
X135697Y433981D01*
X137433Y434983D01*
X139284Y435750D01*
X139961Y435932D01*
X139961Y421426D01*
X139972Y421265D01*
X139962Y421163D01*
X139965Y421098D01*
X139961Y421054D01*
X139961Y406548D01*
X139284Y406730D01*
X137433Y407497D01*
X135697Y408499D01*
X134106Y409719D01*
X132689Y411136D01*
X131469Y412727D01*
X130519Y414372D01*
X130476Y414436D01*
X130440Y414504D01*
X130317Y414672D01*
X130200Y414845D01*
X130149Y414902D01*
X130103Y414964D01*
X129958Y415113D01*
X129818Y415268D01*
X129759Y415317D01*
X129706Y415372D01*
X129541Y415499D01*
X129381Y415633D01*
X129316Y415674D01*
X129255Y415721D01*
X129074Y415824D01*
X128897Y415934D01*
X128827Y415965D01*
X128760Y416003D01*
X128566Y416080D01*
X128376Y416164D01*
X128302Y416185D01*
X128231Y416213D01*
X128028Y416262D01*
X127828Y416319D01*
X127752Y416329D01*
X127677Y416347D01*
X127469Y416367D01*
X127263Y416395D01*
X127186Y416395D01*
X127110Y416402D01*
X126901Y416393D01*
X126693Y416392D01*
X126617Y416381D01*
X126540Y416378D01*
X126335Y416340D01*
X126130Y416310D01*
X126056Y416288D01*
X125980Y416274D01*
X125783Y416208D01*
X125583Y416149D01*
X125513Y416117D01*
X125440Y416093D01*
X125254Y415999D01*
X125064Y415913D01*
X124999Y415872D01*
X124931Y415837D01*
X124759Y415719D01*
X124583Y415607D01*
X124525Y415557D01*
X124462Y415514D01*
X124308Y415372D01*
X124150Y415237D01*
X124099Y415180D01*
X124043Y415127D01*
X123911Y414966D01*
X123773Y414810D01*
X123731Y414746D01*
X123682Y414686D01*
X123574Y414508D01*
X123459Y414334D01*
X123426Y414265D01*
X123387Y414199D01*
X123305Y414008D01*
X123215Y413819D01*
X123192Y413746D01*
X123162Y413675D01*
X123108Y413474D01*
X123046Y413275D01*
X123033Y413200D01*
X123013Y413125D01*
X123001Y413004D01*
X122954Y412713D01*
X122948Y412460D01*
X122937Y412341D01*
X122937Y381000D01*
X122953Y380771D01*
X122963Y380540D01*
X122973Y380486D01*
X122977Y380432D01*
X123025Y380206D01*
X123067Y379980D01*
X123084Y379928D01*
X123096Y379874D01*
X123175Y379658D01*
X123248Y379440D01*
X123273Y379391D01*
X123292Y379339D01*
X123400Y379136D01*
X123503Y378931D01*
X123534Y378885D01*
X123560Y378837D01*
X123696Y378651D01*
X123827Y378462D01*
X123864Y378421D01*
X123897Y378377D01*
X124057Y378212D01*
X124213Y378043D01*
X124256Y378008D01*
X124294Y377969D01*
X124476Y377828D01*
X124654Y377682D01*
X124702Y377654D01*
X124745Y377620D01*
X124945Y377506D01*
X125142Y377387D01*
X125192Y377365D01*
X125240Y377338D01*
X125454Y377253D01*
X125665Y377162D01*
X125718Y377148D01*
X125769Y377128D01*
X125994Y377073D01*
X126215Y377013D01*
X126259Y377009D01*
X126323Y376993D01*
X126890Y376938D01*
X126956Y376941D01*
X127000Y376937D01*
X127579Y376937D01*
X127582Y376937D01*
X127585Y376937D01*
X127864Y376957D01*
X128147Y376977D01*
X128150Y376977D01*
X128153Y376977D01*
X128435Y377038D01*
X128705Y377096D01*
X128707Y377097D01*
X128710Y377097D01*
X128981Y377197D01*
X129240Y377292D01*
X129242Y377293D01*
X129245Y377294D01*
X129490Y377425D01*
X129742Y377560D01*
X129744Y377562D01*
X129747Y377563D01*
X129977Y377732D01*
X130202Y377897D01*
X130204Y377899D01*
X130206Y377900D01*
X130406Y378095D01*
X130610Y378294D01*
X130612Y378296D01*
X130614Y378298D01*
X130787Y378523D01*
X130959Y378745D01*
X130960Y378747D01*
X130962Y378749D01*
X130969Y378762D01*
X131241Y379240D01*
X131293Y379370D01*
X131333Y379445D01*
X131462Y379758D01*
X135692Y383988D01*
X141219Y386277D01*
X147201Y386277D01*
X152728Y383988D01*
X156958Y379758D01*
X159247Y374231D01*
X159247Y370101D01*
X159251Y370040D01*
X159249Y369980D01*
X159271Y369757D01*
X159287Y369532D01*
X159299Y369473D01*
X159305Y369413D01*
X159359Y369195D01*
X159406Y368975D01*
X159426Y368918D01*
X159441Y368860D01*
X159524Y368651D01*
X159602Y368440D01*
X159630Y368387D01*
X159652Y368331D01*
X159764Y368136D01*
X159870Y367937D01*
X159906Y367889D01*
X159936Y367836D01*
X160011Y367745D01*
X160207Y367478D01*
X160364Y367316D01*
X160437Y367227D01*
X176232Y351432D01*
X177547Y348258D01*
X177547Y192592D01*
X176232Y189418D01*
X164767Y177953D01*
X164727Y177907D01*
X164683Y177866D01*
X164541Y177692D01*
X164393Y177522D01*
X164360Y177472D01*
X164322Y177425D01*
X164205Y177233D01*
X164083Y177044D01*
X164058Y176989D01*
X164027Y176938D01*
X163938Y176732D01*
X163843Y176527D01*
X163826Y176470D01*
X163802Y176414D01*
X163744Y176197D01*
X163678Y175982D01*
X163669Y175922D01*
X163653Y175864D01*
X163642Y175747D01*
X163591Y175419D01*
X163588Y175194D01*
X163577Y175079D01*
X163577Y166319D01*
X163577Y166316D01*
X163577Y166314D01*
X163597Y166030D01*
X163617Y165751D01*
X163617Y165748D01*
X163617Y165745D01*
X163682Y165447D01*
X163736Y165194D01*
X163737Y165191D01*
X163737Y165188D01*
X163836Y164919D01*
X163932Y164658D01*
X163933Y164656D01*
X163934Y164653D01*
X164067Y164405D01*
X164200Y164156D01*
X164202Y164154D01*
X164203Y164151D01*
X164372Y163922D01*
X164537Y163696D01*
X164539Y163694D01*
X164540Y163692D01*
X164735Y163493D01*
X164934Y163288D01*
X164936Y163286D01*
X164938Y163284D01*
X165162Y163111D01*
X165385Y162939D01*
X165387Y162938D01*
X165389Y162936D01*
X165402Y162929D01*
X165804Y162700D01*
X166504Y161999D01*
X166573Y161844D01*
X166623Y161765D01*
X166664Y161681D01*
X166773Y161524D01*
X166875Y161361D01*
X166935Y161289D01*
X166988Y161212D01*
X167117Y161071D01*
X167241Y160924D01*
X167310Y160861D01*
X167373Y160793D01*
X167522Y160671D01*
X167664Y160543D01*
X167742Y160491D01*
X167814Y160431D01*
X167978Y160332D01*
X168137Y160225D01*
X168221Y160184D01*
X168301Y160135D01*
X168477Y160060D01*
X168650Y159976D01*
X168738Y159947D01*
X168824Y159910D01*
X169009Y159860D01*
X169192Y159801D01*
X169284Y159785D01*
X169374Y159761D01*
X169564Y159737D01*
X169753Y159704D01*
X169847Y159701D01*
X169939Y159689D01*
X170131Y159692D01*
X170323Y159686D01*
X170415Y159696D01*
X170509Y159698D01*
X170699Y159727D01*
X170889Y159748D01*
X170979Y159771D01*
X171072Y159786D01*
X171256Y159842D01*
X171441Y159889D01*
X171528Y159924D01*
X171617Y159952D01*
X171791Y160033D01*
X171968Y160106D01*
X172030Y160144D01*
X172133Y160192D01*
X172611Y160503D01*
X172626Y160515D01*
X172637Y160523D01*
X173581Y161246D01*
X174959Y162042D01*
X176277Y162588D01*
X176277Y151130D01*
X176277Y139672D01*
X174959Y140218D01*
X173581Y141014D01*
X172637Y141737D01*
X172477Y141843D01*
X172322Y141956D01*
X172240Y142000D01*
X172162Y142052D01*
X171989Y142134D01*
X171820Y142224D01*
X171732Y142256D01*
X171648Y142296D01*
X171465Y142354D01*
X171284Y142420D01*
X171193Y142439D01*
X171104Y142467D01*
X170915Y142498D01*
X170727Y142538D01*
X170634Y142544D01*
X170542Y142559D01*
X170350Y142564D01*
X170158Y142577D01*
X170065Y142570D01*
X169972Y142573D01*
X169781Y142550D01*
X169590Y142536D01*
X169499Y142517D01*
X169406Y142506D01*
X169220Y142457D01*
X169033Y142417D01*
X168946Y142384D01*
X168855Y142361D01*
X168678Y142286D01*
X168498Y142220D01*
X168416Y142176D01*
X168330Y142140D01*
X168165Y142041D01*
X167996Y141951D01*
X167921Y141895D01*
X167841Y141848D01*
X167691Y141727D01*
X167537Y141613D01*
X167470Y141548D01*
X167397Y141490D01*
X167266Y141349D01*
X167129Y141216D01*
X167072Y141142D01*
X167008Y141074D01*
X166898Y140916D01*
X166781Y140764D01*
X166747Y140700D01*
X166681Y140607D01*
X166505Y140261D01*
X165835Y139591D01*
X164995Y139243D01*
X144885Y139243D01*
X144045Y139591D01*
X143401Y140235D01*
X143053Y141075D01*
X143053Y161185D01*
X143401Y162025D01*
X144087Y162711D01*
X144305Y162820D01*
X144307Y162821D01*
X144309Y162822D01*
X144550Y162989D01*
X144774Y163143D01*
X144776Y163145D01*
X144778Y163146D01*
X144993Y163344D01*
X145193Y163528D01*
X145195Y163531D01*
X145197Y163532D01*
X145379Y163755D01*
X145555Y163969D01*
X145556Y163971D01*
X145558Y163974D01*
X145699Y164206D01*
X145851Y164456D01*
X145852Y164458D01*
X145853Y164461D01*
X145959Y164706D01*
X146076Y164979D01*
X146077Y164982D01*
X146078Y164984D01*
X146144Y165230D01*
X146226Y165529D01*
X146226Y165532D01*
X146227Y165534D01*
X146228Y165547D01*
X146297Y166094D01*
X146295Y166234D01*
X146303Y166319D01*
X146303Y182058D01*
X147618Y185232D01*
X159083Y196697D01*
X159123Y196743D01*
X159167Y196784D01*
X159309Y196958D01*
X159457Y197128D01*
X159490Y197178D01*
X159528Y197225D01*
X159645Y197417D01*
X159767Y197606D01*
X159792Y197661D01*
X159823Y197712D01*
X159912Y197918D01*
X160007Y198123D01*
X160024Y198180D01*
X160048Y198236D01*
X160106Y198453D01*
X160172Y198668D01*
X160181Y198728D01*
X160197Y198786D01*
X160208Y198903D01*
X160259Y199231D01*
X160262Y199456D01*
X160273Y199571D01*
X160273Y211433D01*
X160261Y211606D01*
X160259Y211778D01*
X160241Y211889D01*
X160233Y212002D01*
X160197Y212171D01*
X160171Y212341D01*
X160138Y212449D01*
X160114Y212559D01*
X160055Y212721D01*
X160005Y212886D01*
X159957Y212988D01*
X159918Y213094D01*
X159837Y213247D01*
X159764Y213403D01*
X159703Y213497D01*
X159650Y213596D01*
X159548Y213736D01*
X159454Y213881D01*
X159380Y213966D01*
X159313Y214056D01*
X159193Y214180D01*
X159079Y214310D01*
X158994Y214384D01*
X158916Y214465D01*
X158779Y214570D01*
X158649Y214684D01*
X158554Y214745D01*
X158465Y214813D01*
X158315Y214899D01*
X158170Y214993D01*
X158068Y215040D01*
X157970Y215096D01*
X157809Y215159D01*
X157653Y215232D01*
X157545Y215264D01*
X157441Y215306D01*
X157272Y215347D01*
X157107Y215396D01*
X156996Y215413D01*
X156887Y215440D01*
X156715Y215457D01*
X156544Y215483D01*
X156432Y215484D01*
X156320Y215495D01*
X156147Y215488D01*
X155974Y215490D01*
X155863Y215475D01*
X155750Y215471D01*
X155580Y215439D01*
X155409Y215417D01*
X155328Y215392D01*
X155190Y215367D01*
X154668Y215191D01*
X154655Y215187D01*
X154235Y215013D01*
X135325Y215013D01*
X134503Y215354D01*
X134391Y215391D01*
X134282Y215438D01*
X134121Y215481D01*
X133962Y215535D01*
X133846Y215556D01*
X133732Y215587D01*
X133619Y215598D01*
X133402Y215638D01*
X133064Y215652D01*
X132948Y215663D01*
X122881Y215663D01*
X122820Y215659D01*
X122760Y215661D01*
X122537Y215639D01*
X122312Y215623D01*
X122253Y215611D01*
X122193Y215605D01*
X121975Y215551D01*
X121755Y215504D01*
X121698Y215484D01*
X121640Y215469D01*
X121431Y215386D01*
X121220Y215308D01*
X121167Y215280D01*
X121111Y215258D01*
X120916Y215146D01*
X120717Y215040D01*
X120669Y215004D01*
X120616Y214974D01*
X120525Y214899D01*
X120258Y214703D01*
X120096Y214546D01*
X120007Y214473D01*
X105077Y199543D01*
X105037Y199497D01*
X104993Y199456D01*
X104851Y199282D01*
X104703Y199112D01*
X104670Y199062D01*
X104632Y199015D01*
X104515Y198823D01*
X104393Y198634D01*
X104368Y198579D01*
X104337Y198528D01*
X104248Y198322D01*
X104153Y198117D01*
X104136Y198060D01*
X104112Y198004D01*
X104054Y197787D01*
X103988Y197572D01*
X103979Y197512D01*
X103963Y197454D01*
X103952Y197337D01*
X103901Y197009D01*
X103898Y196784D01*
X103887Y196669D01*
X103887Y63500D01*
X103903Y63271D01*
X103913Y63040D01*
X103923Y62986D01*
X103927Y62932D01*
X103975Y62706D01*
X104017Y62480D01*
X104034Y62428D01*
X104046Y62374D01*
X104125Y62158D01*
X104198Y61940D01*
X104223Y61891D01*
X104242Y61839D01*
X104350Y61636D01*
X104453Y61431D01*
X104484Y61385D01*
X104510Y61337D01*
X104646Y61151D01*
X104777Y60962D01*
X104814Y60921D01*
X104847Y60877D01*
X105007Y60712D01*
X105163Y60543D01*
X105206Y60508D01*
X105244Y60469D01*
X105426Y60328D01*
X105604Y60182D01*
X105652Y60154D01*
X105695Y60120D01*
X105895Y60006D01*
X106092Y59887D01*
X106142Y59865D01*
X106190Y59838D01*
X106404Y59753D01*
X106615Y59662D01*
X106668Y59648D01*
X106719Y59628D01*
X106944Y59573D01*
X107165Y59513D01*
X107209Y59509D01*
X107273Y59493D01*
X107840Y59438D01*
X107906Y59441D01*
X107950Y59437D01*
X146780Y59437D01*
X146840Y59441D01*
X146901Y59439D01*
X147124Y59461D01*
X147349Y59477D01*
X147408Y59489D01*
X147468Y59495D01*
X147686Y59549D01*
X147906Y59596D01*
X147962Y59616D01*
X148021Y59631D01*
X148171Y59691D01*
X156083Y59691D01*
X162047Y53726D01*
X162221Y53575D01*
X162391Y53420D01*
X162436Y53388D01*
X162477Y53352D01*
X162671Y53227D01*
X162860Y53097D01*
X162909Y53073D01*
X162956Y53043D01*
X163165Y52946D01*
X163370Y52843D01*
X163423Y52826D01*
X163472Y52803D01*
X163693Y52736D01*
X163911Y52663D01*
X163965Y52653D01*
X164018Y52638D01*
X164245Y52602D01*
X164472Y52561D01*
X164527Y52559D01*
X164581Y52550D01*
X164810Y52547D01*
X165041Y52538D01*
X165096Y52543D01*
X165151Y52543D01*
X165379Y52572D01*
X165608Y52595D01*
X165661Y52608D01*
X165716Y52615D01*
X165938Y52675D01*
X166161Y52730D01*
X166212Y52751D01*
X166265Y52765D01*
X166477Y52856D01*
X166690Y52942D01*
X166738Y52969D01*
X166788Y52991D01*
X166985Y53111D01*
X167185Y53225D01*
X167219Y53254D01*
X167275Y53288D01*
X167715Y53650D01*
X167759Y53698D01*
X167794Y53726D01*
X173737Y59669D01*
X173737Y50800D01*
X173737Y41931D01*
X167794Y47874D01*
X167620Y48025D01*
X167450Y48180D01*
X167405Y48212D01*
X167363Y48248D01*
X167170Y48373D01*
X166980Y48503D01*
X166931Y48527D01*
X166885Y48557D01*
X166676Y48654D01*
X166470Y48757D01*
X166418Y48774D01*
X166368Y48797D01*
X166148Y48864D01*
X165930Y48937D01*
X165876Y48947D01*
X165823Y48962D01*
X165596Y48998D01*
X165369Y49039D01*
X165314Y49041D01*
X165260Y49050D01*
X165030Y49053D01*
X164800Y49062D01*
X164745Y49057D01*
X164690Y49057D01*
X164462Y49028D01*
X164233Y49005D01*
X164180Y48992D01*
X164125Y48985D01*
X163903Y48925D01*
X163679Y48870D01*
X163628Y48849D01*
X163575Y48835D01*
X163364Y48744D01*
X163150Y48658D01*
X163103Y48631D01*
X163052Y48609D01*
X162856Y48489D01*
X162656Y48375D01*
X162622Y48346D01*
X162566Y48312D01*
X162126Y47950D01*
X162082Y47902D01*
X162047Y47874D01*
X156083Y41909D01*
X148186Y41909D01*
G37*
%LPD*%
%LPC*%
G36*
X490283Y183161D02*
X490283Y183161D01*
X489258Y183586D01*
X489146Y183623D01*
X489037Y183670D01*
X488876Y183714D01*
X488717Y183767D01*
X488601Y183788D01*
X488487Y183819D01*
X488374Y183830D01*
X488157Y183870D01*
X487819Y183884D01*
X487703Y183895D01*
X400259Y183895D01*
X398298Y184707D01*
X396797Y186208D01*
X395985Y188169D01*
X395985Y331261D01*
X396269Y331947D01*
X396324Y332111D01*
X396388Y332271D01*
X396414Y332381D01*
X396450Y332487D01*
X396481Y332657D01*
X396522Y332825D01*
X396533Y332937D01*
X396553Y333048D01*
X396560Y333220D01*
X396577Y333392D01*
X396572Y333505D01*
X396577Y333617D01*
X396560Y333789D01*
X396553Y333962D01*
X396532Y334072D01*
X396521Y334184D01*
X396480Y334352D01*
X396449Y334522D01*
X396413Y334628D01*
X396386Y334738D01*
X396322Y334898D01*
X396267Y335062D01*
X396217Y335163D01*
X396175Y335267D01*
X396090Y335417D01*
X396012Y335571D01*
X395948Y335664D01*
X395892Y335762D01*
X395787Y335898D01*
X395688Y336040D01*
X395612Y336123D01*
X395543Y336212D01*
X395419Y336332D01*
X395302Y336459D01*
X395215Y336530D01*
X395134Y336609D01*
X394995Y336710D01*
X394861Y336820D01*
X394765Y336878D01*
X394674Y336944D01*
X394522Y337026D01*
X394374Y337115D01*
X394271Y337160D01*
X394171Y337213D01*
X394009Y337272D01*
X393850Y337340D01*
X393742Y337369D01*
X393636Y337408D01*
X393467Y337444D01*
X393300Y337489D01*
X393215Y337497D01*
X393079Y337526D01*
X392528Y337564D01*
X392515Y337565D01*
X377698Y337565D01*
X377469Y337549D01*
X377238Y337539D01*
X377184Y337529D01*
X377130Y337525D01*
X376904Y337477D01*
X376678Y337435D01*
X376626Y337418D01*
X376572Y337406D01*
X376356Y337327D01*
X376138Y337254D01*
X376089Y337229D01*
X376037Y337210D01*
X375834Y337102D01*
X375629Y336999D01*
X375583Y336968D01*
X375535Y336942D01*
X375349Y336806D01*
X375160Y336675D01*
X375119Y336638D01*
X375075Y336605D01*
X374910Y336445D01*
X374741Y336289D01*
X374706Y336246D01*
X374667Y336208D01*
X374526Y336026D01*
X374380Y335848D01*
X374352Y335800D01*
X374318Y335757D01*
X374204Y335557D01*
X374085Y335360D01*
X374063Y335310D01*
X374036Y335262D01*
X373951Y335048D01*
X373860Y334837D01*
X373846Y334784D01*
X373826Y334733D01*
X373771Y334508D01*
X373711Y334287D01*
X373707Y334243D01*
X373691Y334179D01*
X373636Y333612D01*
X373639Y333546D01*
X373635Y333502D01*
X373635Y270487D01*
X373643Y270370D01*
X373642Y270252D01*
X373663Y270086D01*
X373675Y269919D01*
X373699Y269804D01*
X373714Y269687D01*
X373748Y269577D01*
X373794Y269362D01*
X373910Y269044D01*
X373944Y268932D01*
X374061Y268649D01*
X374062Y268649D01*
X374369Y267907D01*
X374369Y265493D01*
X373445Y263262D01*
X371738Y261555D01*
X369507Y260631D01*
X367093Y260631D01*
X364862Y261555D01*
X363155Y263262D01*
X362231Y265493D01*
X362231Y267907D01*
X362656Y268932D01*
X362693Y269044D01*
X362740Y269153D01*
X362784Y269314D01*
X362837Y269473D01*
X362858Y269589D01*
X362889Y269703D01*
X362900Y269816D01*
X362940Y270033D01*
X362954Y270371D01*
X362965Y270487D01*
X362965Y343961D01*
X363777Y345922D01*
X365278Y347423D01*
X367239Y348235D01*
X418660Y348235D01*
X418775Y348243D01*
X418890Y348241D01*
X419059Y348263D01*
X419229Y348275D01*
X419341Y348299D01*
X419456Y348313D01*
X419620Y348358D01*
X419786Y348394D01*
X419894Y348433D01*
X420005Y348464D01*
X420161Y348531D01*
X420321Y348590D01*
X420423Y348644D01*
X420528Y348690D01*
X420673Y348778D01*
X420823Y348858D01*
X420916Y348926D01*
X421015Y348986D01*
X421146Y349094D01*
X421283Y349195D01*
X421366Y349275D01*
X421455Y349348D01*
X421570Y349474D01*
X421692Y349592D01*
X421762Y349683D01*
X421840Y349768D01*
X421936Y349908D01*
X422040Y350043D01*
X422097Y350143D01*
X422163Y350238D01*
X422238Y350390D01*
X422322Y350538D01*
X422365Y350645D01*
X422416Y350748D01*
X422470Y350909D01*
X422533Y351067D01*
X422560Y351180D01*
X422596Y351289D01*
X422627Y351456D01*
X422667Y351621D01*
X422678Y351736D01*
X422699Y351849D01*
X422706Y352019D01*
X422722Y352188D01*
X422717Y352303D01*
X422722Y352419D01*
X422705Y352588D01*
X422697Y352758D01*
X422676Y352871D01*
X422665Y352985D01*
X422624Y353151D01*
X422593Y353318D01*
X422557Y353427D01*
X422529Y353539D01*
X422466Y353697D01*
X422412Y353858D01*
X422360Y353961D01*
X422318Y354068D01*
X422233Y354215D01*
X422157Y354367D01*
X422091Y354462D01*
X422034Y354562D01*
X421961Y354651D01*
X421833Y354836D01*
X421608Y355080D01*
X421533Y355171D01*
X417135Y359570D01*
X414788Y365234D01*
X414788Y371366D01*
X417135Y377030D01*
X421470Y381365D01*
X427134Y383712D01*
X433266Y383712D01*
X438930Y381365D01*
X442169Y378127D01*
X442214Y378087D01*
X442255Y378043D01*
X442429Y377900D01*
X442599Y377753D01*
X442649Y377720D01*
X442696Y377682D01*
X442888Y377566D01*
X443077Y377443D01*
X443132Y377418D01*
X443183Y377387D01*
X443390Y377298D01*
X443594Y377203D01*
X443652Y377186D01*
X443707Y377162D01*
X443924Y377104D01*
X444139Y377038D01*
X444199Y377029D01*
X444257Y377013D01*
X444374Y377002D01*
X444702Y376951D01*
X444927Y376948D01*
X445042Y376937D01*
X552025Y376937D01*
X552254Y376953D01*
X552485Y376963D01*
X552539Y376973D01*
X552593Y376977D01*
X552819Y377025D01*
X553045Y377067D01*
X553097Y377084D01*
X553151Y377096D01*
X553367Y377175D01*
X553585Y377248D01*
X553634Y377273D01*
X553686Y377292D01*
X553889Y377400D01*
X554094Y377503D01*
X554140Y377534D01*
X554188Y377560D01*
X554374Y377696D01*
X554563Y377827D01*
X554604Y377864D01*
X554648Y377897D01*
X554813Y378057D01*
X554982Y378213D01*
X555017Y378256D01*
X555056Y378294D01*
X555197Y378476D01*
X555343Y378654D01*
X555371Y378701D01*
X555405Y378745D01*
X555519Y378945D01*
X555638Y379142D01*
X555660Y379192D01*
X555687Y379240D01*
X555772Y379454D01*
X555863Y379665D01*
X555877Y379718D01*
X555897Y379769D01*
X555952Y379994D01*
X556012Y380215D01*
X556016Y380259D01*
X556032Y380323D01*
X556087Y380890D01*
X556084Y380956D01*
X556088Y381000D01*
X556088Y381880D01*
X556436Y382720D01*
X557080Y383364D01*
X557920Y383712D01*
X585080Y383712D01*
X585920Y383364D01*
X586564Y382720D01*
X586912Y381880D01*
X586912Y354720D01*
X586564Y353880D01*
X585920Y353236D01*
X585080Y352888D01*
X580898Y352888D01*
X580669Y352872D01*
X580438Y352862D01*
X580384Y352852D01*
X580330Y352848D01*
X580104Y352800D01*
X579878Y352758D01*
X579826Y352741D01*
X579772Y352729D01*
X579556Y352650D01*
X579338Y352577D01*
X579289Y352552D01*
X579237Y352533D01*
X579034Y352425D01*
X578829Y352322D01*
X578783Y352291D01*
X578735Y352265D01*
X578549Y352129D01*
X578360Y351998D01*
X578319Y351961D01*
X578275Y351928D01*
X578110Y351768D01*
X577941Y351612D01*
X577906Y351569D01*
X577867Y351531D01*
X577726Y351349D01*
X577580Y351171D01*
X577552Y351123D01*
X577518Y351080D01*
X577404Y350880D01*
X577285Y350683D01*
X577263Y350633D01*
X577236Y350585D01*
X577151Y350371D01*
X577060Y350160D01*
X577046Y350107D01*
X577026Y350056D01*
X576971Y349831D01*
X576911Y349610D01*
X576907Y349566D01*
X576891Y349502D01*
X576836Y348935D01*
X576839Y348869D01*
X576835Y348825D01*
X576835Y341839D01*
X576551Y341153D01*
X576496Y340989D01*
X576432Y340829D01*
X576406Y340719D01*
X576370Y340613D01*
X576339Y340443D01*
X576298Y340275D01*
X576287Y340163D01*
X576267Y340052D01*
X576260Y339880D01*
X576243Y339708D01*
X576248Y339595D01*
X576243Y339483D01*
X576260Y339311D01*
X576267Y339138D01*
X576288Y339028D01*
X576299Y338916D01*
X576340Y338748D01*
X576371Y338578D01*
X576407Y338472D01*
X576434Y338362D01*
X576498Y338202D01*
X576553Y338038D01*
X576603Y337937D01*
X576645Y337833D01*
X576730Y337683D01*
X576808Y337529D01*
X576872Y337436D01*
X576928Y337338D01*
X577033Y337202D01*
X577132Y337060D01*
X577208Y336977D01*
X577277Y336888D01*
X577401Y336768D01*
X577518Y336641D01*
X577605Y336570D01*
X577686Y336491D01*
X577825Y336390D01*
X577959Y336280D01*
X578055Y336222D01*
X578146Y336156D01*
X578298Y336074D01*
X578446Y335985D01*
X578549Y335940D01*
X578649Y335887D01*
X578811Y335828D01*
X578970Y335760D01*
X579078Y335731D01*
X579184Y335692D01*
X579353Y335656D01*
X579520Y335611D01*
X579605Y335603D01*
X579741Y335574D01*
X580292Y335536D01*
X580305Y335535D01*
X663702Y335535D01*
X663931Y335551D01*
X664162Y335561D01*
X664216Y335571D01*
X664270Y335575D01*
X664496Y335623D01*
X664722Y335665D01*
X664774Y335682D01*
X664828Y335694D01*
X665044Y335773D01*
X665262Y335846D01*
X665311Y335871D01*
X665363Y335890D01*
X665566Y335998D01*
X665771Y336101D01*
X665817Y336132D01*
X665865Y336158D01*
X666051Y336294D01*
X666240Y336425D01*
X666281Y336462D01*
X666325Y336495D01*
X666490Y336655D01*
X666659Y336811D01*
X666694Y336854D01*
X666733Y336892D01*
X666874Y337074D01*
X667020Y337252D01*
X667048Y337300D01*
X667082Y337343D01*
X667196Y337543D01*
X667315Y337740D01*
X667337Y337790D01*
X667364Y337838D01*
X667449Y338052D01*
X667540Y338263D01*
X667554Y338316D01*
X667574Y338367D01*
X667629Y338592D01*
X667689Y338813D01*
X667693Y338857D01*
X667709Y338921D01*
X667764Y339488D01*
X667761Y339554D01*
X667765Y339598D01*
X667765Y350450D01*
X667765Y350453D01*
X667765Y350456D01*
X667746Y350728D01*
X667725Y351019D01*
X667725Y351022D01*
X667725Y351024D01*
X667665Y351299D01*
X667606Y351576D01*
X667605Y351579D01*
X667605Y351581D01*
X667514Y351829D01*
X667410Y352111D01*
X667409Y352114D01*
X667408Y352116D01*
X667286Y352344D01*
X667142Y352614D01*
X667140Y352616D01*
X667139Y352618D01*
X666971Y352846D01*
X666805Y353073D01*
X666803Y353075D01*
X666802Y353078D01*
X666606Y353278D01*
X666408Y353482D01*
X666406Y353483D01*
X666404Y353485D01*
X666182Y353656D01*
X665957Y353830D01*
X665955Y353832D01*
X665953Y353833D01*
X665941Y353840D01*
X665462Y354113D01*
X665332Y354164D01*
X665257Y354204D01*
X662770Y355235D01*
X658435Y359570D01*
X656088Y365234D01*
X656088Y371366D01*
X658435Y377030D01*
X662770Y381365D01*
X668434Y383712D01*
X674566Y383712D01*
X680230Y381365D01*
X683469Y378127D01*
X683514Y378087D01*
X683555Y378043D01*
X683729Y377900D01*
X683899Y377753D01*
X683949Y377720D01*
X683996Y377682D01*
X684188Y377566D01*
X684377Y377443D01*
X684432Y377418D01*
X684483Y377387D01*
X684690Y377298D01*
X684894Y377203D01*
X684952Y377186D01*
X685007Y377162D01*
X685224Y377104D01*
X685439Y377038D01*
X685499Y377029D01*
X685557Y377013D01*
X685674Y377002D01*
X686002Y376951D01*
X686227Y376948D01*
X686342Y376937D01*
X793325Y376937D01*
X793554Y376953D01*
X793785Y376963D01*
X793839Y376973D01*
X793893Y376977D01*
X794119Y377025D01*
X794345Y377067D01*
X794397Y377084D01*
X794451Y377096D01*
X794667Y377175D01*
X794885Y377248D01*
X794934Y377273D01*
X794986Y377292D01*
X795189Y377400D01*
X795394Y377503D01*
X795440Y377534D01*
X795488Y377560D01*
X795674Y377696D01*
X795863Y377827D01*
X795904Y377864D01*
X795948Y377897D01*
X796113Y378057D01*
X796282Y378213D01*
X796317Y378256D01*
X796356Y378294D01*
X796497Y378476D01*
X796643Y378654D01*
X796671Y378701D01*
X796705Y378745D01*
X796819Y378945D01*
X796938Y379142D01*
X796960Y379192D01*
X796987Y379240D01*
X797072Y379454D01*
X797163Y379665D01*
X797177Y379718D01*
X797197Y379769D01*
X797252Y379994D01*
X797312Y380215D01*
X797316Y380259D01*
X797332Y380323D01*
X797387Y380890D01*
X797384Y380956D01*
X797388Y381000D01*
X797388Y381880D01*
X797736Y382720D01*
X798380Y383364D01*
X799220Y383712D01*
X826380Y383712D01*
X827220Y383364D01*
X827864Y382720D01*
X828212Y381880D01*
X828212Y354720D01*
X827864Y353880D01*
X827220Y353236D01*
X826380Y352888D01*
X799220Y352888D01*
X798380Y353236D01*
X797736Y353880D01*
X797388Y354720D01*
X797388Y355600D01*
X797372Y355829D01*
X797362Y356060D01*
X797352Y356114D01*
X797348Y356168D01*
X797300Y356394D01*
X797258Y356620D01*
X797241Y356672D01*
X797229Y356726D01*
X797150Y356942D01*
X797077Y357160D01*
X797052Y357209D01*
X797033Y357261D01*
X796925Y357464D01*
X796822Y357669D01*
X796791Y357715D01*
X796765Y357763D01*
X796629Y357949D01*
X796498Y358138D01*
X796461Y358179D01*
X796428Y358223D01*
X796268Y358388D01*
X796112Y358557D01*
X796069Y358592D01*
X796031Y358631D01*
X795849Y358772D01*
X795671Y358918D01*
X795623Y358946D01*
X795580Y358980D01*
X795380Y359094D01*
X795183Y359213D01*
X795133Y359235D01*
X795085Y359262D01*
X794871Y359347D01*
X794660Y359438D01*
X794607Y359452D01*
X794556Y359472D01*
X794331Y359527D01*
X794110Y359587D01*
X794066Y359591D01*
X794002Y359607D01*
X793435Y359662D01*
X793369Y359659D01*
X793325Y359663D01*
X686342Y359663D01*
X686282Y359659D01*
X686221Y359661D01*
X685998Y359639D01*
X685773Y359623D01*
X685714Y359611D01*
X685654Y359605D01*
X685436Y359551D01*
X685216Y359504D01*
X685160Y359484D01*
X685101Y359469D01*
X684892Y359386D01*
X684681Y359308D01*
X684628Y359280D01*
X684572Y359257D01*
X684377Y359146D01*
X684179Y359040D01*
X684130Y359004D01*
X684078Y358974D01*
X683987Y358899D01*
X683719Y358703D01*
X683558Y358546D01*
X683469Y358473D01*
X679763Y354767D01*
X679752Y354757D01*
X679547Y354569D01*
X679544Y354565D01*
X679541Y354563D01*
X679359Y354340D01*
X679185Y354128D01*
X679183Y354125D01*
X679180Y354122D01*
X679033Y353880D01*
X678888Y353642D01*
X678887Y353638D01*
X678885Y353634D01*
X678776Y353381D01*
X678663Y353119D01*
X678662Y353115D01*
X678660Y353111D01*
X678588Y352843D01*
X678513Y352569D01*
X678512Y352565D01*
X678511Y352561D01*
X678509Y352541D01*
X678441Y352004D01*
X678443Y351862D01*
X678435Y351776D01*
X678435Y329139D01*
X677623Y327178D01*
X676122Y325677D01*
X674161Y324865D01*
X410718Y324865D01*
X410489Y324849D01*
X410258Y324839D01*
X410204Y324829D01*
X410150Y324825D01*
X409924Y324777D01*
X409698Y324735D01*
X409646Y324718D01*
X409592Y324706D01*
X409376Y324627D01*
X409158Y324554D01*
X409109Y324529D01*
X409057Y324510D01*
X408854Y324402D01*
X408649Y324299D01*
X408603Y324268D01*
X408555Y324242D01*
X408369Y324106D01*
X408180Y323975D01*
X408139Y323938D01*
X408095Y323905D01*
X407930Y323745D01*
X407761Y323589D01*
X407726Y323546D01*
X407687Y323508D01*
X407546Y323326D01*
X407400Y323148D01*
X407372Y323100D01*
X407338Y323057D01*
X407224Y322857D01*
X407105Y322660D01*
X407083Y322610D01*
X407056Y322562D01*
X406971Y322348D01*
X406880Y322137D01*
X406866Y322084D01*
X406846Y322033D01*
X406791Y321808D01*
X406731Y321587D01*
X406727Y321543D01*
X406711Y321479D01*
X406656Y320912D01*
X406659Y320846D01*
X406655Y320802D01*
X406655Y198628D01*
X406671Y198399D01*
X406681Y198168D01*
X406691Y198114D01*
X406695Y198060D01*
X406743Y197834D01*
X406785Y197608D01*
X406802Y197556D01*
X406814Y197502D01*
X406893Y197286D01*
X406966Y197068D01*
X406991Y197019D01*
X407010Y196967D01*
X407118Y196764D01*
X407221Y196559D01*
X407252Y196513D01*
X407278Y196465D01*
X407414Y196279D01*
X407545Y196090D01*
X407582Y196049D01*
X407615Y196005D01*
X407775Y195840D01*
X407931Y195671D01*
X407974Y195636D01*
X408012Y195597D01*
X408194Y195456D01*
X408372Y195310D01*
X408420Y195282D01*
X408463Y195248D01*
X408663Y195134D01*
X408860Y195015D01*
X408910Y194993D01*
X408958Y194966D01*
X409172Y194881D01*
X409383Y194790D01*
X409436Y194776D01*
X409487Y194756D01*
X409712Y194701D01*
X409933Y194641D01*
X409977Y194637D01*
X410041Y194621D01*
X410608Y194566D01*
X410674Y194569D01*
X410718Y194565D01*
X487703Y194565D01*
X487820Y194573D01*
X487938Y194572D01*
X488104Y194593D01*
X488271Y194605D01*
X488386Y194629D01*
X488503Y194644D01*
X488613Y194678D01*
X488828Y194724D01*
X489146Y194840D01*
X489258Y194874D01*
X490283Y195299D01*
X492697Y195299D01*
X493722Y194874D01*
X493834Y194837D01*
X493943Y194790D01*
X494104Y194746D01*
X494263Y194693D01*
X494379Y194672D01*
X494493Y194641D01*
X494606Y194630D01*
X494823Y194590D01*
X495161Y194576D01*
X495277Y194565D01*
X513103Y194565D01*
X513220Y194573D01*
X513338Y194572D01*
X513504Y194593D01*
X513671Y194605D01*
X513786Y194629D01*
X513903Y194644D01*
X514013Y194678D01*
X514228Y194724D01*
X514546Y194840D01*
X514658Y194874D01*
X515683Y195299D01*
X518097Y195299D01*
X520328Y194375D01*
X522035Y192668D01*
X522959Y190437D01*
X522959Y188023D01*
X522035Y185792D01*
X520328Y184085D01*
X518097Y183161D01*
X515683Y183161D01*
X514658Y183586D01*
X514546Y183623D01*
X514437Y183670D01*
X514276Y183714D01*
X514117Y183767D01*
X514001Y183788D01*
X513887Y183819D01*
X513774Y183830D01*
X513557Y183870D01*
X513219Y183884D01*
X513103Y183895D01*
X495277Y183895D01*
X495160Y183887D01*
X495042Y183888D01*
X494876Y183867D01*
X494709Y183855D01*
X494594Y183831D01*
X494477Y183816D01*
X494367Y183782D01*
X494152Y183736D01*
X493834Y183620D01*
X493722Y183586D01*
X492697Y183161D01*
X490283Y183161D01*
G37*
%LPD*%
%LPC*%
G36*
X316620Y111588D02*
X316620Y111588D01*
X315780Y111936D01*
X315136Y112580D01*
X314788Y113420D01*
X314788Y140580D01*
X315136Y141420D01*
X315780Y142064D01*
X316620Y142412D01*
X331714Y142412D01*
X331775Y142416D01*
X331835Y142414D01*
X332058Y142436D01*
X332283Y142452D01*
X332342Y142464D01*
X332402Y142470D01*
X332620Y142524D01*
X332840Y142571D01*
X332897Y142591D01*
X332955Y142606D01*
X333164Y142689D01*
X333375Y142767D01*
X333428Y142795D01*
X333484Y142817D01*
X333679Y142929D01*
X333878Y143035D01*
X333926Y143071D01*
X333979Y143101D01*
X334070Y143176D01*
X334337Y143372D01*
X334499Y143529D01*
X334588Y143602D01*
X363408Y172422D01*
X366582Y173737D01*
X635118Y173737D01*
X638292Y172422D01*
X667112Y143602D01*
X667158Y143562D01*
X667199Y143518D01*
X667373Y143376D01*
X667543Y143228D01*
X667593Y143195D01*
X667640Y143157D01*
X667832Y143040D01*
X668021Y142918D01*
X668076Y142893D01*
X668127Y142862D01*
X668333Y142773D01*
X668538Y142678D01*
X668595Y142661D01*
X668651Y142637D01*
X668868Y142579D01*
X669083Y142513D01*
X669143Y142504D01*
X669201Y142488D01*
X669318Y142477D01*
X669646Y142426D01*
X669871Y142423D01*
X669986Y142412D01*
X674566Y142412D01*
X676584Y141576D01*
X676587Y141575D01*
X676589Y141574D01*
X676853Y141486D01*
X677124Y141395D01*
X677127Y141395D01*
X677130Y141394D01*
X677410Y141342D01*
X677685Y141292D01*
X677687Y141292D01*
X677690Y141291D01*
X677980Y141280D01*
X678254Y141268D01*
X678257Y141268D01*
X678259Y141268D01*
X678535Y141296D01*
X678821Y141324D01*
X678824Y141325D01*
X678826Y141325D01*
X679095Y141391D01*
X679375Y141459D01*
X679377Y141460D01*
X679380Y141461D01*
X679641Y141565D01*
X679904Y141670D01*
X679906Y141671D01*
X679909Y141672D01*
X680152Y141811D01*
X680399Y141953D01*
X680401Y141954D01*
X680403Y141956D01*
X680413Y141964D01*
X680849Y142302D01*
X680946Y142402D01*
X681012Y142456D01*
X704750Y166194D01*
X704827Y166283D01*
X704911Y166366D01*
X705014Y166498D01*
X705123Y166624D01*
X705187Y166723D01*
X705260Y166817D01*
X705313Y166918D01*
X705433Y167103D01*
X705576Y167410D01*
X705630Y167512D01*
X706055Y168538D01*
X707762Y170245D01*
X709993Y171169D01*
X712407Y171169D01*
X714638Y170245D01*
X716345Y168538D01*
X717269Y166307D01*
X717269Y163893D01*
X716345Y161662D01*
X714638Y159955D01*
X713612Y159530D01*
X713507Y159478D01*
X713397Y159434D01*
X713252Y159351D01*
X713103Y159276D01*
X713005Y159209D01*
X712903Y159150D01*
X712815Y159078D01*
X712633Y158953D01*
X712384Y158724D01*
X712294Y158650D01*
X687894Y134249D01*
X687892Y134247D01*
X687890Y134245D01*
X687710Y134038D01*
X687520Y133819D01*
X687519Y133817D01*
X687517Y133815D01*
X687362Y133575D01*
X687210Y133341D01*
X687209Y133338D01*
X687208Y133336D01*
X687088Y133078D01*
X686970Y132824D01*
X686970Y132821D01*
X686968Y132819D01*
X686884Y132538D01*
X686805Y132279D01*
X686805Y132276D01*
X686804Y132273D01*
X686759Y131982D01*
X686718Y131716D01*
X686718Y131713D01*
X686717Y131710D01*
X686714Y131424D01*
X686710Y131146D01*
X686711Y131143D01*
X686710Y131140D01*
X686746Y130863D01*
X686782Y130581D01*
X686783Y130578D01*
X686783Y130575D01*
X686787Y130563D01*
X686912Y130108D01*
X686912Y123934D01*
X684565Y118270D01*
X680230Y113935D01*
X674566Y111588D01*
X668434Y111588D01*
X662770Y113935D01*
X658435Y118270D01*
X656088Y123934D01*
X656088Y128514D01*
X656084Y128575D01*
X656086Y128635D01*
X656064Y128858D01*
X656048Y129083D01*
X656036Y129142D01*
X656030Y129202D01*
X655976Y129420D01*
X655929Y129640D01*
X655909Y129697D01*
X655894Y129755D01*
X655811Y129964D01*
X655733Y130175D01*
X655705Y130228D01*
X655683Y130284D01*
X655571Y130479D01*
X655465Y130678D01*
X655429Y130726D01*
X655399Y130779D01*
X655324Y130870D01*
X655128Y131137D01*
X654971Y131299D01*
X654898Y131388D01*
X631013Y155273D01*
X630977Y155304D01*
X630952Y155332D01*
X630944Y155338D01*
X630926Y155357D01*
X630752Y155499D01*
X630582Y155647D01*
X630532Y155680D01*
X630485Y155718D01*
X630293Y155835D01*
X630104Y155957D01*
X630049Y155982D01*
X629998Y156013D01*
X629792Y156102D01*
X629587Y156197D01*
X629530Y156214D01*
X629474Y156238D01*
X629257Y156296D01*
X629042Y156362D01*
X628982Y156371D01*
X628924Y156387D01*
X628807Y156398D01*
X628479Y156449D01*
X628254Y156452D01*
X628139Y156463D01*
X373561Y156463D01*
X373500Y156459D01*
X373440Y156461D01*
X373217Y156439D01*
X372992Y156423D01*
X372933Y156411D01*
X372873Y156405D01*
X372655Y156351D01*
X372435Y156304D01*
X372378Y156284D01*
X372320Y156269D01*
X372111Y156186D01*
X371900Y156108D01*
X371847Y156080D01*
X371791Y156058D01*
X371596Y155946D01*
X371397Y155840D01*
X371349Y155804D01*
X371296Y155774D01*
X371205Y155699D01*
X370938Y155503D01*
X370776Y155346D01*
X370687Y155273D01*
X346802Y131388D01*
X346762Y131342D01*
X346718Y131301D01*
X346576Y131127D01*
X346428Y130957D01*
X346395Y130907D01*
X346357Y130860D01*
X346240Y130668D01*
X346118Y130479D01*
X346093Y130424D01*
X346062Y130373D01*
X345973Y130167D01*
X345878Y129962D01*
X345861Y129905D01*
X345837Y129849D01*
X345779Y129632D01*
X345713Y129417D01*
X345704Y129357D01*
X345688Y129299D01*
X345677Y129182D01*
X345626Y128854D01*
X345623Y128629D01*
X345612Y128514D01*
X345612Y113420D01*
X345264Y112580D01*
X344620Y111936D01*
X343780Y111588D01*
X316620Y111588D01*
G37*
%LPD*%
%LPC*%
G36*
X607882Y80263D02*
X607882Y80263D01*
X604708Y81578D01*
X575888Y110398D01*
X575842Y110438D01*
X575801Y110482D01*
X575627Y110624D01*
X575457Y110772D01*
X575407Y110805D01*
X575360Y110843D01*
X575168Y110960D01*
X574979Y111082D01*
X574924Y111107D01*
X574873Y111138D01*
X574667Y111227D01*
X574462Y111322D01*
X574405Y111339D01*
X574349Y111363D01*
X574132Y111421D01*
X573917Y111487D01*
X573857Y111496D01*
X573799Y111512D01*
X573682Y111523D01*
X573354Y111574D01*
X573129Y111577D01*
X573014Y111588D01*
X557920Y111588D01*
X557080Y111936D01*
X556436Y112580D01*
X556088Y113420D01*
X556088Y140580D01*
X556436Y141420D01*
X557080Y142064D01*
X557920Y142412D01*
X585080Y142412D01*
X585920Y142064D01*
X586564Y141420D01*
X586912Y140580D01*
X586912Y125486D01*
X586916Y125425D01*
X586914Y125365D01*
X586936Y125142D01*
X586952Y124917D01*
X586964Y124858D01*
X586970Y124798D01*
X587024Y124580D01*
X587071Y124360D01*
X587091Y124303D01*
X587106Y124245D01*
X587189Y124036D01*
X587267Y123825D01*
X587295Y123772D01*
X587317Y123716D01*
X587429Y123521D01*
X587535Y123322D01*
X587571Y123274D01*
X587601Y123221D01*
X587676Y123130D01*
X587872Y122863D01*
X588029Y122701D01*
X588102Y122612D01*
X611987Y98727D01*
X612033Y98687D01*
X612074Y98643D01*
X612248Y98501D01*
X612418Y98353D01*
X612468Y98320D01*
X612515Y98282D01*
X612707Y98165D01*
X612896Y98043D01*
X612951Y98018D01*
X613002Y97987D01*
X613208Y97898D01*
X613413Y97803D01*
X613470Y97786D01*
X613526Y97762D01*
X613743Y97704D01*
X613958Y97638D01*
X614018Y97629D01*
X614076Y97613D01*
X614193Y97602D01*
X614521Y97551D01*
X614746Y97548D01*
X614861Y97537D01*
X869439Y97537D01*
X869500Y97541D01*
X869560Y97539D01*
X869783Y97561D01*
X870008Y97577D01*
X870067Y97589D01*
X870127Y97595D01*
X870345Y97649D01*
X870565Y97696D01*
X870622Y97716D01*
X870680Y97731D01*
X870889Y97814D01*
X871100Y97892D01*
X871153Y97920D01*
X871209Y97942D01*
X871404Y98054D01*
X871603Y98160D01*
X871651Y98196D01*
X871704Y98226D01*
X871795Y98301D01*
X872062Y98497D01*
X872224Y98654D01*
X872313Y98727D01*
X896198Y122612D01*
X896238Y122658D01*
X896282Y122699D01*
X896424Y122873D01*
X896572Y123043D01*
X896605Y123093D01*
X896643Y123140D01*
X896760Y123332D01*
X896882Y123521D01*
X896907Y123576D01*
X896938Y123627D01*
X897027Y123833D01*
X897122Y124038D01*
X897139Y124095D01*
X897163Y124151D01*
X897221Y124368D01*
X897287Y124583D01*
X897296Y124643D01*
X897312Y124701D01*
X897323Y124818D01*
X897374Y125146D01*
X897377Y125371D01*
X897388Y125486D01*
X897388Y130066D01*
X899735Y135730D01*
X904070Y140065D01*
X909734Y142412D01*
X915866Y142412D01*
X921530Y140065D01*
X925865Y135730D01*
X928212Y130066D01*
X928212Y123934D01*
X925865Y118270D01*
X921530Y113935D01*
X915866Y111588D01*
X911286Y111588D01*
X911225Y111584D01*
X911165Y111586D01*
X910942Y111564D01*
X910717Y111548D01*
X910658Y111536D01*
X910598Y111530D01*
X910380Y111476D01*
X910160Y111429D01*
X910103Y111409D01*
X910045Y111394D01*
X909836Y111311D01*
X909625Y111233D01*
X909572Y111205D01*
X909516Y111183D01*
X909321Y111071D01*
X909122Y110965D01*
X909074Y110929D01*
X909021Y110899D01*
X908930Y110824D01*
X908663Y110628D01*
X908501Y110471D01*
X908412Y110398D01*
X879592Y81578D01*
X876418Y80263D01*
X607882Y80263D01*
G37*
%LPD*%
%LPC*%
G36*
X799220Y111588D02*
X799220Y111588D01*
X798380Y111936D01*
X797736Y112580D01*
X797388Y113420D01*
X797388Y140580D01*
X797736Y141420D01*
X798380Y142064D01*
X799220Y142412D01*
X814314Y142412D01*
X814375Y142416D01*
X814435Y142414D01*
X814658Y142436D01*
X814883Y142452D01*
X814942Y142464D01*
X815002Y142470D01*
X815220Y142524D01*
X815440Y142571D01*
X815497Y142591D01*
X815555Y142606D01*
X815764Y142689D01*
X815975Y142767D01*
X816028Y142795D01*
X816084Y142817D01*
X816279Y142929D01*
X816478Y143035D01*
X816526Y143071D01*
X816579Y143101D01*
X816670Y143176D01*
X816937Y143372D01*
X817099Y143529D01*
X817188Y143602D01*
X902973Y229387D01*
X903013Y229433D01*
X903057Y229474D01*
X903199Y229648D01*
X903347Y229818D01*
X903380Y229868D01*
X903418Y229915D01*
X903535Y230107D01*
X903657Y230296D01*
X903682Y230351D01*
X903713Y230402D01*
X903802Y230608D01*
X903897Y230813D01*
X903914Y230870D01*
X903938Y230926D01*
X903996Y231143D01*
X904062Y231358D01*
X904071Y231418D01*
X904087Y231476D01*
X904098Y231593D01*
X904149Y231921D01*
X904152Y232146D01*
X904163Y232261D01*
X904163Y353458D01*
X904159Y353518D01*
X904161Y353579D01*
X904139Y353802D01*
X904123Y354027D01*
X904111Y354086D01*
X904105Y354146D01*
X904051Y354364D01*
X904004Y354584D01*
X903984Y354640D01*
X903969Y354699D01*
X903886Y354908D01*
X903808Y355119D01*
X903780Y355172D01*
X903757Y355228D01*
X903646Y355423D01*
X903540Y355621D01*
X903504Y355670D01*
X903474Y355722D01*
X903399Y355813D01*
X903203Y356081D01*
X903046Y356242D01*
X902973Y356331D01*
X899735Y359570D01*
X897388Y365234D01*
X897388Y371366D01*
X899735Y377030D01*
X904070Y381365D01*
X909734Y383712D01*
X915866Y383712D01*
X921530Y381365D01*
X925865Y377030D01*
X928212Y371366D01*
X928212Y365234D01*
X925865Y359570D01*
X922627Y356331D01*
X922587Y356286D01*
X922543Y356245D01*
X922400Y356071D01*
X922253Y355901D01*
X922220Y355851D01*
X922182Y355804D01*
X922066Y355612D01*
X921943Y355423D01*
X921918Y355368D01*
X921887Y355317D01*
X921798Y355110D01*
X921703Y354906D01*
X921686Y354848D01*
X921662Y354793D01*
X921604Y354576D01*
X921538Y354361D01*
X921529Y354301D01*
X921513Y354243D01*
X921502Y354126D01*
X921451Y353798D01*
X921448Y353573D01*
X921437Y353458D01*
X921437Y225282D01*
X920122Y222108D01*
X829402Y131388D01*
X829362Y131342D01*
X829318Y131301D01*
X829176Y131127D01*
X829028Y130957D01*
X828995Y130907D01*
X828957Y130860D01*
X828840Y130668D01*
X828718Y130479D01*
X828693Y130424D01*
X828662Y130373D01*
X828573Y130167D01*
X828478Y129962D01*
X828461Y129905D01*
X828437Y129849D01*
X828379Y129632D01*
X828313Y129417D01*
X828304Y129357D01*
X828288Y129299D01*
X828277Y129182D01*
X828226Y128854D01*
X828223Y128629D01*
X828212Y128514D01*
X828212Y113420D01*
X827864Y112580D01*
X827220Y111936D01*
X826380Y111588D01*
X799220Y111588D01*
G37*
%LPD*%
%LPC*%
G36*
X836993Y298731D02*
X836993Y298731D01*
X834762Y299655D01*
X833055Y301362D01*
X832131Y303593D01*
X832131Y306007D01*
X833055Y308238D01*
X834762Y309945D01*
X836993Y310869D01*
X839407Y310869D01*
X840432Y310444D01*
X840544Y310407D01*
X840653Y310360D01*
X840814Y310316D01*
X840973Y310263D01*
X841089Y310242D01*
X841203Y310211D01*
X841316Y310200D01*
X841533Y310160D01*
X841871Y310146D01*
X841987Y310135D01*
X885213Y310135D01*
X885330Y310143D01*
X885448Y310142D01*
X885614Y310163D01*
X885781Y310175D01*
X885896Y310199D01*
X886013Y310214D01*
X886123Y310248D01*
X886338Y310294D01*
X886656Y310410D01*
X886768Y310444D01*
X887793Y310869D01*
X890207Y310869D01*
X892438Y309945D01*
X894145Y308238D01*
X895069Y306007D01*
X895069Y303593D01*
X894145Y301362D01*
X892438Y299655D01*
X890207Y298731D01*
X887793Y298731D01*
X886768Y299156D01*
X886656Y299193D01*
X886547Y299240D01*
X886386Y299284D01*
X886227Y299337D01*
X886111Y299358D01*
X885997Y299389D01*
X885884Y299400D01*
X885667Y299440D01*
X885329Y299454D01*
X885213Y299465D01*
X841987Y299465D01*
X841870Y299457D01*
X841752Y299458D01*
X841586Y299437D01*
X841419Y299425D01*
X841304Y299401D01*
X841187Y299386D01*
X841077Y299352D01*
X840862Y299306D01*
X840544Y299190D01*
X840432Y299156D01*
X839407Y298731D01*
X836993Y298731D01*
G37*
%LPD*%
%LPC*%
G36*
X42255Y331413D02*
X42255Y331413D01*
X38644Y332909D01*
X35879Y335674D01*
X34383Y339285D01*
X34383Y343195D01*
X35879Y346806D01*
X38644Y349571D01*
X42255Y351067D01*
X46165Y351067D01*
X49776Y349571D01*
X52541Y346806D01*
X54037Y343195D01*
X54037Y339285D01*
X52541Y335674D01*
X49776Y332909D01*
X46165Y331413D01*
X42255Y331413D01*
G37*
%LPD*%
%LPC*%
G36*
X42255Y441413D02*
X42255Y441413D01*
X38644Y442909D01*
X35879Y445674D01*
X34383Y449285D01*
X34383Y453195D01*
X35879Y456806D01*
X38644Y459571D01*
X42255Y461067D01*
X46165Y461067D01*
X49776Y459571D01*
X52541Y456806D01*
X54037Y453195D01*
X54037Y449285D01*
X52541Y445674D01*
X49776Y442909D01*
X46165Y441413D01*
X42255Y441413D01*
G37*
%LPD*%
%LPC*%
G36*
X434574Y131374D02*
X434574Y131374D01*
X434574Y142046D01*
X435246Y141866D01*
X437144Y141080D01*
X438922Y140054D01*
X440551Y138803D01*
X442003Y137351D01*
X443254Y135722D01*
X444280Y133944D01*
X445066Y132046D01*
X445246Y131374D01*
X434574Y131374D01*
G37*
%LPD*%
%LPC*%
G36*
X434574Y122626D02*
X434574Y122626D01*
X445246Y122626D01*
X445066Y121954D01*
X444280Y120056D01*
X443254Y118278D01*
X442003Y116649D01*
X440551Y115197D01*
X438922Y113946D01*
X437144Y112920D01*
X435246Y112134D01*
X434574Y111954D01*
X434574Y122626D01*
G37*
%LPD*%
%LPC*%
G36*
X415154Y131374D02*
X415154Y131374D01*
X415334Y132046D01*
X416120Y133944D01*
X417146Y135722D01*
X418397Y137351D01*
X419849Y138803D01*
X421478Y140054D01*
X423256Y141080D01*
X425154Y141866D01*
X425826Y142046D01*
X425826Y131374D01*
X415154Y131374D01*
G37*
%LPD*%
%LPC*%
G36*
X425154Y112134D02*
X425154Y112134D01*
X423256Y112920D01*
X421478Y113946D01*
X419849Y115197D01*
X418397Y116649D01*
X417146Y118278D01*
X416120Y120056D01*
X415334Y121954D01*
X415154Y122626D01*
X425826Y122626D01*
X425826Y111954D01*
X425154Y112134D01*
G37*
%LPD*%
%LPC*%
G36*
X148459Y425489D02*
X148459Y425489D01*
X148459Y435932D01*
X149136Y435750D01*
X150987Y434983D01*
X152723Y433981D01*
X154314Y432761D01*
X155731Y431344D01*
X156951Y429753D01*
X157953Y428017D01*
X158720Y426166D01*
X158902Y425489D01*
X148459Y425489D01*
G37*
%LPD*%
%LPC*%
G36*
X148459Y416991D02*
X148459Y416991D01*
X158902Y416991D01*
X158720Y416314D01*
X157953Y414463D01*
X156951Y412727D01*
X155731Y411136D01*
X154314Y409719D01*
X152723Y408499D01*
X150987Y407497D01*
X149136Y406730D01*
X148459Y406548D01*
X148459Y416991D01*
G37*
%LPD*%
%LPC*%
G36*
X219963Y262363D02*
X219963Y262363D01*
X219963Y267841D01*
X225150Y267841D01*
X225641Y267743D01*
X226103Y267552D01*
X226520Y267273D01*
X226873Y266920D01*
X227152Y266503D01*
X227343Y266041D01*
X227441Y265550D01*
X227441Y262363D01*
X219963Y262363D01*
G37*
%LPD*%
%LPC*%
G36*
X204359Y262363D02*
X204359Y262363D01*
X204359Y265550D01*
X204457Y266041D01*
X204648Y266503D01*
X204927Y266920D01*
X205280Y267273D01*
X205697Y267552D01*
X206159Y267743D01*
X206650Y267841D01*
X211837Y267841D01*
X211837Y262363D01*
X204359Y262363D01*
G37*
%LPD*%
%LPC*%
G36*
X219963Y248759D02*
X219963Y248759D01*
X219963Y254237D01*
X227441Y254237D01*
X227441Y251050D01*
X227343Y250559D01*
X227152Y250097D01*
X226873Y249680D01*
X226520Y249327D01*
X226103Y249048D01*
X225641Y248857D01*
X225150Y248759D01*
X219963Y248759D01*
G37*
%LPD*%
%LPC*%
G36*
X206650Y248759D02*
X206650Y248759D01*
X206159Y248857D01*
X205697Y249048D01*
X205280Y249327D01*
X204927Y249680D01*
X204648Y250097D01*
X204457Y250559D01*
X204359Y251050D01*
X204359Y254237D01*
X211837Y254237D01*
X211837Y248759D01*
X206650Y248759D01*
G37*
%LPD*%
%LPC*%
G36*
X181863Y54863D02*
X181863Y54863D01*
X181863Y59669D01*
X186669Y54863D01*
X181863Y54863D01*
G37*
%LPD*%
%LPC*%
G36*
X181863Y46737D02*
X181863Y46737D01*
X186669Y46737D01*
X181863Y41931D01*
X181863Y46737D01*
G37*
%LPD*%
D10*
X330200Y368300D03*
D11*
X430200Y368300D03*
D10*
X571500Y368300D03*
D11*
X671500Y368300D03*
D10*
X812800Y368300D03*
D11*
X912800Y368300D03*
D10*
X812800Y127000D03*
D11*
X912800Y127000D03*
D10*
X571500Y127000D03*
D11*
X671500Y127000D03*
D10*
X330200Y127000D03*
D11*
X430200Y127000D03*
D12*
X144210Y371240D03*
X144210Y421240D03*
D13*
X44210Y451240D03*
X44210Y341240D03*
D14*
X152400Y50800D03*
X177800Y50800D03*
D15*
X154940Y151130D03*
D16*
X180340Y151130D03*
X205740Y151130D03*
D17*
X215900Y258300D03*
X215900Y224300D03*
X144780Y224300D03*
X144780Y258300D03*
D18*
X59690Y270510D03*
D19*
X59690Y44510D03*
D20*
X215900Y152400D02*
X215900Y224300D01*
D21*
X215900Y152400D02*
X214630Y151130D01*
D20*
X205740Y151130D01*
X83880Y20320D02*
X59690Y44510D01*
X83880Y20320D02*
X204470Y20320D01*
D21*
X205740Y21590D01*
D20*
X205740Y151130D01*
D21*
X330200Y368300D02*
X327260Y371240D01*
D20*
X144210Y371240D02*
X144210Y334710D01*
X127000Y317500D01*
X76200Y317500D01*
X59690Y300990D01*
X59690Y270510D01*
X144210Y258870D02*
X144210Y334710D01*
D21*
X144210Y258870D02*
X144780Y258300D01*
D20*
X168910Y346540D02*
X144210Y371240D01*
X168910Y346540D02*
X168910Y194310D01*
X154940Y180340D01*
X154940Y151130D01*
D22*
X144210Y368300D02*
X144210Y371240D01*
D20*
X144210Y368300D02*
X114300Y368300D01*
X114300Y457200D01*
X330200Y457200D01*
X330200Y368300D01*
X144780Y224300D02*
X117620Y224300D01*
X95250Y201930D01*
X95250Y57150D01*
X101600Y50800D01*
X152400Y50800D01*
X430200Y368300D02*
X571500Y368300D01*
D23*
X368300Y266700D03*
D24*
X368300Y342900D02*
X571500Y342900D01*
X571500Y368300D01*
X368300Y342900D02*
X368300Y266700D01*
D20*
X671500Y368300D02*
X812800Y368300D01*
D23*
X491490Y189230D03*
D24*
X401320Y189230D01*
X401320Y330200D02*
X673100Y330200D01*
X673100Y368300D01*
D25*
X671500Y368300D01*
D24*
X401320Y330200D02*
X401320Y189230D01*
D23*
X516890Y189230D03*
D24*
X491490Y189230D01*
D20*
X912800Y227000D02*
X912800Y368300D01*
X912800Y227000D02*
X812800Y127000D01*
X874700Y88900D02*
X912800Y127000D01*
X609600Y88900D02*
X571500Y127000D01*
X609600Y88900D02*
X874700Y88900D01*
D23*
X838200Y304800D03*
D24*
X889000Y304800D01*
D23*
X889000Y304800D03*
D20*
X671500Y127000D02*
X633400Y165100D01*
X368300Y165100D01*
X330200Y127000D01*
D23*
X711200Y165100D03*
D24*
X673100Y127000D01*
D25*
X671500Y127000D01*
D20*
X430200Y127000D02*
X354000Y50800D01*
D21*
X342900Y50800D01*
D20*
X304800Y50800D01*
D23*
X749300Y292100D03*
D24*
X571500Y292100D01*
X571500Y177800D01*
D23*
X571500Y177800D03*
X533400Y50800D03*
D20*
X342900Y50800D01*
D23*
X736600Y177800D03*
D24*
X800100Y177800D01*
X838200Y215900D01*
X838200Y292100D01*
X749300Y292100D01*
D20*
X215900Y317500D02*
X215900Y258300D01*
X215900Y317500D02*
X190500Y342900D01*
X190500Y187960D01*
X180340Y177800D01*
X180340Y152400D01*
X180340Y151130D01*
X177800Y149860D02*
X177800Y50800D01*
D21*
X177800Y149860D02*
X180340Y152400D01*
D26*
X190500Y421240D02*
X144210Y421240D01*
D20*
X190500Y421240D02*
X190500Y342900D01*
D26*
X190500Y421240D02*
X253600Y421240D01*
X254000Y421640D01*
D20*
X253600Y421240D02*
X253600Y102000D01*
X304800Y50800D01*
M02*
