G04 EAGLE Gerber RS-274X export*
G75*
%MOMM*%
%FSLAX34Y34*%
%LPD*%
%INSilkscreen Top*%
%IPPOS*%
%AMOC8*
5,1,8,0,0,1.08239X$1,22.5*%
G01*
%ADD10C,0.050000*%
%ADD11C,0.200000*%
%ADD12C,0.101600*%
%ADD13C,0.100000*%
%ADD14C,0.203200*%
%ADD15C,0.254000*%
%ADD16C,0.152400*%
%ADD17C,0.127000*%


D10*
X262700Y368300D02*
X262735Y371184D01*
X262842Y374065D01*
X263018Y376944D01*
X263266Y379817D01*
X263584Y382683D01*
X263972Y385541D01*
X264430Y388388D01*
X264958Y391223D01*
X265555Y394044D01*
X266221Y396850D01*
X266956Y399639D01*
X267760Y402408D01*
X268630Y405158D01*
X269569Y407885D01*
X270573Y410588D01*
X271644Y413265D01*
X272780Y415916D01*
X273981Y418538D01*
X275246Y421129D01*
X276574Y423689D01*
X277965Y426216D01*
X279417Y428707D01*
X280930Y431162D01*
X282502Y433580D01*
X284134Y435957D01*
X285823Y438295D01*
X287569Y440590D01*
X289371Y442841D01*
X291228Y445048D01*
X293138Y447208D01*
X295101Y449321D01*
X297115Y451385D01*
X299179Y453399D01*
X301292Y455362D01*
X303452Y457272D01*
X305659Y459129D01*
X307910Y460931D01*
X310205Y462677D01*
X312543Y464366D01*
X314920Y465998D01*
X317338Y467570D01*
X319793Y469083D01*
X322284Y470535D01*
X324811Y471926D01*
X327371Y473254D01*
X329962Y474519D01*
X332584Y475720D01*
X335235Y476856D01*
X337912Y477927D01*
X340615Y478931D01*
X343342Y479870D01*
X346092Y480740D01*
X348861Y481544D01*
X351650Y482279D01*
X354456Y482945D01*
X357277Y483542D01*
X360112Y484070D01*
X362959Y484528D01*
X365817Y484916D01*
X368683Y485234D01*
X371556Y485482D01*
X374435Y485658D01*
X377316Y485765D01*
X380200Y485800D01*
X383084Y485765D01*
X385965Y485658D01*
X388844Y485482D01*
X391717Y485234D01*
X394583Y484916D01*
X397441Y484528D01*
X400288Y484070D01*
X403123Y483542D01*
X405944Y482945D01*
X408750Y482279D01*
X411539Y481544D01*
X414308Y480740D01*
X417058Y479870D01*
X419785Y478931D01*
X422488Y477927D01*
X425165Y476856D01*
X427816Y475720D01*
X430438Y474519D01*
X433029Y473254D01*
X435589Y471926D01*
X438116Y470535D01*
X440607Y469083D01*
X443062Y467570D01*
X445480Y465998D01*
X447857Y464366D01*
X450195Y462677D01*
X452490Y460931D01*
X454741Y459129D01*
X456948Y457272D01*
X459108Y455362D01*
X461221Y453399D01*
X463285Y451385D01*
X465299Y449321D01*
X467262Y447208D01*
X469172Y445048D01*
X471029Y442841D01*
X472831Y440590D01*
X474577Y438295D01*
X476266Y435957D01*
X477898Y433580D01*
X479470Y431162D01*
X480983Y428707D01*
X482435Y426216D01*
X483826Y423689D01*
X485154Y421129D01*
X486419Y418538D01*
X487620Y415916D01*
X488756Y413265D01*
X489827Y410588D01*
X490831Y407885D01*
X491770Y405158D01*
X492640Y402408D01*
X493444Y399639D01*
X494179Y396850D01*
X494845Y394044D01*
X495442Y391223D01*
X495970Y388388D01*
X496428Y385541D01*
X496816Y382683D01*
X497134Y379817D01*
X497382Y376944D01*
X497558Y374065D01*
X497665Y371184D01*
X497700Y368300D01*
X497665Y365416D01*
X497558Y362535D01*
X497382Y359656D01*
X497134Y356783D01*
X496816Y353917D01*
X496428Y351059D01*
X495970Y348212D01*
X495442Y345377D01*
X494845Y342556D01*
X494179Y339750D01*
X493444Y336961D01*
X492640Y334192D01*
X491770Y331442D01*
X490831Y328715D01*
X489827Y326012D01*
X488756Y323335D01*
X487620Y320684D01*
X486419Y318062D01*
X485154Y315471D01*
X483826Y312911D01*
X482435Y310384D01*
X480983Y307893D01*
X479470Y305438D01*
X477898Y303020D01*
X476266Y300643D01*
X474577Y298305D01*
X472831Y296010D01*
X471029Y293759D01*
X469172Y291552D01*
X467262Y289392D01*
X465299Y287279D01*
X463285Y285215D01*
X461221Y283201D01*
X459108Y281238D01*
X456948Y279328D01*
X454741Y277471D01*
X452490Y275669D01*
X450195Y273923D01*
X447857Y272234D01*
X445480Y270602D01*
X443062Y269030D01*
X440607Y267517D01*
X438116Y266065D01*
X435589Y264674D01*
X433029Y263346D01*
X430438Y262081D01*
X427816Y260880D01*
X425165Y259744D01*
X422488Y258673D01*
X419785Y257669D01*
X417058Y256730D01*
X414308Y255860D01*
X411539Y255056D01*
X408750Y254321D01*
X405944Y253655D01*
X403123Y253058D01*
X400288Y252530D01*
X397441Y252072D01*
X394583Y251684D01*
X391717Y251366D01*
X388844Y251118D01*
X385965Y250942D01*
X383084Y250835D01*
X380200Y250800D01*
X377316Y250835D01*
X374435Y250942D01*
X371556Y251118D01*
X368683Y251366D01*
X365817Y251684D01*
X362959Y252072D01*
X360112Y252530D01*
X357277Y253058D01*
X354456Y253655D01*
X351650Y254321D01*
X348861Y255056D01*
X346092Y255860D01*
X343342Y256730D01*
X340615Y257669D01*
X337912Y258673D01*
X335235Y259744D01*
X332584Y260880D01*
X329962Y262081D01*
X327371Y263346D01*
X324811Y264674D01*
X322284Y266065D01*
X319793Y267517D01*
X317338Y269030D01*
X314920Y270602D01*
X312543Y272234D01*
X310205Y273923D01*
X307910Y275669D01*
X305659Y277471D01*
X303452Y279328D01*
X301292Y281238D01*
X299179Y283201D01*
X297115Y285215D01*
X295101Y287279D01*
X293138Y289392D01*
X291228Y291552D01*
X289371Y293759D01*
X287569Y296010D01*
X285823Y298305D01*
X284134Y300643D01*
X282502Y303020D01*
X280930Y305438D01*
X279417Y307893D01*
X277965Y310384D01*
X276574Y312911D01*
X275246Y315471D01*
X273981Y318062D01*
X272780Y320684D01*
X271644Y323335D01*
X270573Y326012D01*
X269569Y328715D01*
X268630Y331442D01*
X267760Y334192D01*
X266956Y336961D01*
X266221Y339750D01*
X265555Y342556D01*
X264958Y345377D01*
X264430Y348212D01*
X263972Y351059D01*
X263584Y353917D01*
X263266Y356783D01*
X263018Y359656D01*
X262842Y362535D01*
X262735Y365416D01*
X262700Y368300D01*
D11*
X267700Y368300D02*
X267734Y371061D01*
X267836Y373820D01*
X268005Y376576D01*
X268242Y379327D01*
X268546Y382071D01*
X268918Y384807D01*
X269356Y387533D01*
X269862Y390248D01*
X270434Y392949D01*
X271071Y395635D01*
X271775Y398305D01*
X272544Y400957D01*
X273378Y403589D01*
X274276Y406200D01*
X275238Y408788D01*
X276264Y411352D01*
X277351Y413890D01*
X278501Y416400D01*
X279712Y418881D01*
X280984Y421332D01*
X282315Y423751D01*
X283706Y426137D01*
X285154Y428487D01*
X286660Y430802D01*
X288222Y433078D01*
X289839Y435316D01*
X291511Y437514D01*
X293236Y439669D01*
X295014Y441782D01*
X296843Y443850D01*
X298722Y445873D01*
X300650Y447850D01*
X302627Y449778D01*
X304650Y451657D01*
X306718Y453486D01*
X308831Y455264D01*
X310986Y456989D01*
X313184Y458661D01*
X315422Y460278D01*
X317698Y461840D01*
X320013Y463346D01*
X322363Y464794D01*
X324749Y466185D01*
X327168Y467516D01*
X329619Y468788D01*
X332100Y469999D01*
X334610Y471149D01*
X337148Y472236D01*
X339712Y473262D01*
X342300Y474224D01*
X344911Y475122D01*
X347543Y475956D01*
X350195Y476725D01*
X352865Y477429D01*
X355551Y478066D01*
X358252Y478638D01*
X360967Y479144D01*
X363693Y479582D01*
X366429Y479954D01*
X369173Y480258D01*
X371924Y480495D01*
X374680Y480664D01*
X377439Y480766D01*
X380200Y480800D01*
X382961Y480766D01*
X385720Y480664D01*
X388476Y480495D01*
X391227Y480258D01*
X393971Y479954D01*
X396707Y479582D01*
X399433Y479144D01*
X402148Y478638D01*
X404849Y478066D01*
X407535Y477429D01*
X410205Y476725D01*
X412857Y475956D01*
X415489Y475122D01*
X418100Y474224D01*
X420688Y473262D01*
X423252Y472236D01*
X425790Y471149D01*
X428300Y469999D01*
X430781Y468788D01*
X433232Y467516D01*
X435651Y466185D01*
X438037Y464794D01*
X440387Y463346D01*
X442702Y461840D01*
X444978Y460278D01*
X447216Y458661D01*
X449414Y456989D01*
X451569Y455264D01*
X453682Y453486D01*
X455750Y451657D01*
X457773Y449778D01*
X459750Y447850D01*
X461678Y445873D01*
X463557Y443850D01*
X465386Y441782D01*
X467164Y439669D01*
X468889Y437514D01*
X470561Y435316D01*
X472178Y433078D01*
X473740Y430802D01*
X475246Y428487D01*
X476694Y426137D01*
X478085Y423751D01*
X479416Y421332D01*
X480688Y418881D01*
X481899Y416400D01*
X483049Y413890D01*
X484136Y411352D01*
X485162Y408788D01*
X486124Y406200D01*
X487022Y403589D01*
X487856Y400957D01*
X488625Y398305D01*
X489329Y395635D01*
X489966Y392949D01*
X490538Y390248D01*
X491044Y387533D01*
X491482Y384807D01*
X491854Y382071D01*
X492158Y379327D01*
X492395Y376576D01*
X492564Y373820D01*
X492666Y371061D01*
X492700Y368300D01*
X492666Y365539D01*
X492564Y362780D01*
X492395Y360024D01*
X492158Y357273D01*
X491854Y354529D01*
X491482Y351793D01*
X491044Y349067D01*
X490538Y346352D01*
X489966Y343651D01*
X489329Y340965D01*
X488625Y338295D01*
X487856Y335643D01*
X487022Y333011D01*
X486124Y330400D01*
X485162Y327812D01*
X484136Y325248D01*
X483049Y322710D01*
X481899Y320200D01*
X480688Y317719D01*
X479416Y315268D01*
X478085Y312849D01*
X476694Y310463D01*
X475246Y308113D01*
X473740Y305798D01*
X472178Y303522D01*
X470561Y301284D01*
X468889Y299086D01*
X467164Y296931D01*
X465386Y294818D01*
X463557Y292750D01*
X461678Y290727D01*
X459750Y288750D01*
X457773Y286822D01*
X455750Y284943D01*
X453682Y283114D01*
X451569Y281336D01*
X449414Y279611D01*
X447216Y277939D01*
X444978Y276322D01*
X442702Y274760D01*
X440387Y273254D01*
X438037Y271806D01*
X435651Y270415D01*
X433232Y269084D01*
X430781Y267812D01*
X428300Y266601D01*
X425790Y265451D01*
X423252Y264364D01*
X420688Y263338D01*
X418100Y262376D01*
X415489Y261478D01*
X412857Y260644D01*
X410205Y259875D01*
X407535Y259171D01*
X404849Y258534D01*
X402148Y257962D01*
X399433Y257456D01*
X396707Y257018D01*
X393971Y256646D01*
X391227Y256342D01*
X388476Y256105D01*
X385720Y255936D01*
X382961Y255834D01*
X380200Y255800D01*
X377439Y255834D01*
X374680Y255936D01*
X371924Y256105D01*
X369173Y256342D01*
X366429Y256646D01*
X363693Y257018D01*
X360967Y257456D01*
X358252Y257962D01*
X355551Y258534D01*
X352865Y259171D01*
X350195Y259875D01*
X347543Y260644D01*
X344911Y261478D01*
X342300Y262376D01*
X339712Y263338D01*
X337148Y264364D01*
X334610Y265451D01*
X332100Y266601D01*
X329619Y267812D01*
X327168Y269084D01*
X324749Y270415D01*
X322363Y271806D01*
X320013Y273254D01*
X317698Y274760D01*
X315422Y276322D01*
X313184Y277939D01*
X310986Y279611D01*
X308831Y281336D01*
X306718Y283114D01*
X304650Y284943D01*
X302627Y286822D01*
X300650Y288750D01*
X298722Y290727D01*
X296843Y292750D01*
X295014Y294818D01*
X293236Y296931D01*
X291511Y299086D01*
X289839Y301284D01*
X288222Y303522D01*
X286660Y305798D01*
X285154Y308113D01*
X283706Y310463D01*
X282315Y312849D01*
X280984Y315268D01*
X279712Y317719D01*
X278501Y320200D01*
X277351Y322710D01*
X276264Y325248D01*
X275238Y327812D01*
X274276Y330400D01*
X273378Y333011D01*
X272544Y335643D01*
X271775Y338295D01*
X271071Y340965D01*
X270434Y343651D01*
X269862Y346352D01*
X269356Y349067D01*
X268918Y351793D01*
X268546Y354529D01*
X268242Y357273D01*
X268005Y360024D01*
X267836Y362780D01*
X267734Y365539D01*
X267700Y368300D01*
D12*
X301912Y410718D02*
X304508Y410718D01*
X301912Y410718D02*
X301813Y410720D01*
X301713Y410726D01*
X301614Y410735D01*
X301516Y410748D01*
X301418Y410765D01*
X301320Y410786D01*
X301224Y410811D01*
X301129Y410839D01*
X301035Y410871D01*
X300942Y410906D01*
X300850Y410945D01*
X300760Y410988D01*
X300672Y411033D01*
X300585Y411083D01*
X300501Y411135D01*
X300418Y411191D01*
X300338Y411249D01*
X300260Y411311D01*
X300185Y411376D01*
X300112Y411444D01*
X300042Y411514D01*
X299974Y411587D01*
X299909Y411662D01*
X299847Y411740D01*
X299789Y411820D01*
X299733Y411903D01*
X299681Y411987D01*
X299631Y412074D01*
X299586Y412162D01*
X299543Y412252D01*
X299504Y412344D01*
X299469Y412437D01*
X299437Y412531D01*
X299409Y412626D01*
X299384Y412722D01*
X299363Y412820D01*
X299346Y412918D01*
X299333Y413016D01*
X299324Y413115D01*
X299318Y413215D01*
X299316Y413314D01*
X299315Y413314D02*
X299315Y419806D01*
X299316Y419806D02*
X299318Y419905D01*
X299324Y420005D01*
X299333Y420104D01*
X299346Y420202D01*
X299363Y420300D01*
X299384Y420398D01*
X299409Y420494D01*
X299437Y420589D01*
X299469Y420683D01*
X299504Y420776D01*
X299543Y420868D01*
X299586Y420958D01*
X299631Y421046D01*
X299681Y421133D01*
X299733Y421217D01*
X299789Y421300D01*
X299847Y421380D01*
X299909Y421458D01*
X299974Y421533D01*
X300042Y421606D01*
X300112Y421676D01*
X300185Y421744D01*
X300260Y421809D01*
X300338Y421871D01*
X300418Y421929D01*
X300501Y421985D01*
X300585Y422037D01*
X300672Y422087D01*
X300760Y422132D01*
X300850Y422175D01*
X300942Y422214D01*
X301034Y422249D01*
X301129Y422281D01*
X301224Y422309D01*
X301320Y422334D01*
X301418Y422355D01*
X301516Y422372D01*
X301614Y422385D01*
X301713Y422394D01*
X301813Y422400D01*
X301912Y422402D01*
X304508Y422402D01*
X308874Y419806D02*
X312119Y422402D01*
X312119Y410718D01*
X308874Y410718D02*
X315365Y410718D01*
D10*
X504000Y368300D02*
X504035Y371184D01*
X504142Y374065D01*
X504318Y376944D01*
X504566Y379817D01*
X504884Y382683D01*
X505272Y385541D01*
X505730Y388388D01*
X506258Y391223D01*
X506855Y394044D01*
X507521Y396850D01*
X508256Y399639D01*
X509060Y402408D01*
X509930Y405158D01*
X510869Y407885D01*
X511873Y410588D01*
X512944Y413265D01*
X514080Y415916D01*
X515281Y418538D01*
X516546Y421129D01*
X517874Y423689D01*
X519265Y426216D01*
X520717Y428707D01*
X522230Y431162D01*
X523802Y433580D01*
X525434Y435957D01*
X527123Y438295D01*
X528869Y440590D01*
X530671Y442841D01*
X532528Y445048D01*
X534438Y447208D01*
X536401Y449321D01*
X538415Y451385D01*
X540479Y453399D01*
X542592Y455362D01*
X544752Y457272D01*
X546959Y459129D01*
X549210Y460931D01*
X551505Y462677D01*
X553843Y464366D01*
X556220Y465998D01*
X558638Y467570D01*
X561093Y469083D01*
X563584Y470535D01*
X566111Y471926D01*
X568671Y473254D01*
X571262Y474519D01*
X573884Y475720D01*
X576535Y476856D01*
X579212Y477927D01*
X581915Y478931D01*
X584642Y479870D01*
X587392Y480740D01*
X590161Y481544D01*
X592950Y482279D01*
X595756Y482945D01*
X598577Y483542D01*
X601412Y484070D01*
X604259Y484528D01*
X607117Y484916D01*
X609983Y485234D01*
X612856Y485482D01*
X615735Y485658D01*
X618616Y485765D01*
X621500Y485800D01*
X624384Y485765D01*
X627265Y485658D01*
X630144Y485482D01*
X633017Y485234D01*
X635883Y484916D01*
X638741Y484528D01*
X641588Y484070D01*
X644423Y483542D01*
X647244Y482945D01*
X650050Y482279D01*
X652839Y481544D01*
X655608Y480740D01*
X658358Y479870D01*
X661085Y478931D01*
X663788Y477927D01*
X666465Y476856D01*
X669116Y475720D01*
X671738Y474519D01*
X674329Y473254D01*
X676889Y471926D01*
X679416Y470535D01*
X681907Y469083D01*
X684362Y467570D01*
X686780Y465998D01*
X689157Y464366D01*
X691495Y462677D01*
X693790Y460931D01*
X696041Y459129D01*
X698248Y457272D01*
X700408Y455362D01*
X702521Y453399D01*
X704585Y451385D01*
X706599Y449321D01*
X708562Y447208D01*
X710472Y445048D01*
X712329Y442841D01*
X714131Y440590D01*
X715877Y438295D01*
X717566Y435957D01*
X719198Y433580D01*
X720770Y431162D01*
X722283Y428707D01*
X723735Y426216D01*
X725126Y423689D01*
X726454Y421129D01*
X727719Y418538D01*
X728920Y415916D01*
X730056Y413265D01*
X731127Y410588D01*
X732131Y407885D01*
X733070Y405158D01*
X733940Y402408D01*
X734744Y399639D01*
X735479Y396850D01*
X736145Y394044D01*
X736742Y391223D01*
X737270Y388388D01*
X737728Y385541D01*
X738116Y382683D01*
X738434Y379817D01*
X738682Y376944D01*
X738858Y374065D01*
X738965Y371184D01*
X739000Y368300D01*
X738965Y365416D01*
X738858Y362535D01*
X738682Y359656D01*
X738434Y356783D01*
X738116Y353917D01*
X737728Y351059D01*
X737270Y348212D01*
X736742Y345377D01*
X736145Y342556D01*
X735479Y339750D01*
X734744Y336961D01*
X733940Y334192D01*
X733070Y331442D01*
X732131Y328715D01*
X731127Y326012D01*
X730056Y323335D01*
X728920Y320684D01*
X727719Y318062D01*
X726454Y315471D01*
X725126Y312911D01*
X723735Y310384D01*
X722283Y307893D01*
X720770Y305438D01*
X719198Y303020D01*
X717566Y300643D01*
X715877Y298305D01*
X714131Y296010D01*
X712329Y293759D01*
X710472Y291552D01*
X708562Y289392D01*
X706599Y287279D01*
X704585Y285215D01*
X702521Y283201D01*
X700408Y281238D01*
X698248Y279328D01*
X696041Y277471D01*
X693790Y275669D01*
X691495Y273923D01*
X689157Y272234D01*
X686780Y270602D01*
X684362Y269030D01*
X681907Y267517D01*
X679416Y266065D01*
X676889Y264674D01*
X674329Y263346D01*
X671738Y262081D01*
X669116Y260880D01*
X666465Y259744D01*
X663788Y258673D01*
X661085Y257669D01*
X658358Y256730D01*
X655608Y255860D01*
X652839Y255056D01*
X650050Y254321D01*
X647244Y253655D01*
X644423Y253058D01*
X641588Y252530D01*
X638741Y252072D01*
X635883Y251684D01*
X633017Y251366D01*
X630144Y251118D01*
X627265Y250942D01*
X624384Y250835D01*
X621500Y250800D01*
X618616Y250835D01*
X615735Y250942D01*
X612856Y251118D01*
X609983Y251366D01*
X607117Y251684D01*
X604259Y252072D01*
X601412Y252530D01*
X598577Y253058D01*
X595756Y253655D01*
X592950Y254321D01*
X590161Y255056D01*
X587392Y255860D01*
X584642Y256730D01*
X581915Y257669D01*
X579212Y258673D01*
X576535Y259744D01*
X573884Y260880D01*
X571262Y262081D01*
X568671Y263346D01*
X566111Y264674D01*
X563584Y266065D01*
X561093Y267517D01*
X558638Y269030D01*
X556220Y270602D01*
X553843Y272234D01*
X551505Y273923D01*
X549210Y275669D01*
X546959Y277471D01*
X544752Y279328D01*
X542592Y281238D01*
X540479Y283201D01*
X538415Y285215D01*
X536401Y287279D01*
X534438Y289392D01*
X532528Y291552D01*
X530671Y293759D01*
X528869Y296010D01*
X527123Y298305D01*
X525434Y300643D01*
X523802Y303020D01*
X522230Y305438D01*
X520717Y307893D01*
X519265Y310384D01*
X517874Y312911D01*
X516546Y315471D01*
X515281Y318062D01*
X514080Y320684D01*
X512944Y323335D01*
X511873Y326012D01*
X510869Y328715D01*
X509930Y331442D01*
X509060Y334192D01*
X508256Y336961D01*
X507521Y339750D01*
X506855Y342556D01*
X506258Y345377D01*
X505730Y348212D01*
X505272Y351059D01*
X504884Y353917D01*
X504566Y356783D01*
X504318Y359656D01*
X504142Y362535D01*
X504035Y365416D01*
X504000Y368300D01*
D11*
X509000Y368300D02*
X509034Y371061D01*
X509136Y373820D01*
X509305Y376576D01*
X509542Y379327D01*
X509846Y382071D01*
X510218Y384807D01*
X510656Y387533D01*
X511162Y390248D01*
X511734Y392949D01*
X512371Y395635D01*
X513075Y398305D01*
X513844Y400957D01*
X514678Y403589D01*
X515576Y406200D01*
X516538Y408788D01*
X517564Y411352D01*
X518651Y413890D01*
X519801Y416400D01*
X521012Y418881D01*
X522284Y421332D01*
X523615Y423751D01*
X525006Y426137D01*
X526454Y428487D01*
X527960Y430802D01*
X529522Y433078D01*
X531139Y435316D01*
X532811Y437514D01*
X534536Y439669D01*
X536314Y441782D01*
X538143Y443850D01*
X540022Y445873D01*
X541950Y447850D01*
X543927Y449778D01*
X545950Y451657D01*
X548018Y453486D01*
X550131Y455264D01*
X552286Y456989D01*
X554484Y458661D01*
X556722Y460278D01*
X558998Y461840D01*
X561313Y463346D01*
X563663Y464794D01*
X566049Y466185D01*
X568468Y467516D01*
X570919Y468788D01*
X573400Y469999D01*
X575910Y471149D01*
X578448Y472236D01*
X581012Y473262D01*
X583600Y474224D01*
X586211Y475122D01*
X588843Y475956D01*
X591495Y476725D01*
X594165Y477429D01*
X596851Y478066D01*
X599552Y478638D01*
X602267Y479144D01*
X604993Y479582D01*
X607729Y479954D01*
X610473Y480258D01*
X613224Y480495D01*
X615980Y480664D01*
X618739Y480766D01*
X621500Y480800D01*
X624261Y480766D01*
X627020Y480664D01*
X629776Y480495D01*
X632527Y480258D01*
X635271Y479954D01*
X638007Y479582D01*
X640733Y479144D01*
X643448Y478638D01*
X646149Y478066D01*
X648835Y477429D01*
X651505Y476725D01*
X654157Y475956D01*
X656789Y475122D01*
X659400Y474224D01*
X661988Y473262D01*
X664552Y472236D01*
X667090Y471149D01*
X669600Y469999D01*
X672081Y468788D01*
X674532Y467516D01*
X676951Y466185D01*
X679337Y464794D01*
X681687Y463346D01*
X684002Y461840D01*
X686278Y460278D01*
X688516Y458661D01*
X690714Y456989D01*
X692869Y455264D01*
X694982Y453486D01*
X697050Y451657D01*
X699073Y449778D01*
X701050Y447850D01*
X702978Y445873D01*
X704857Y443850D01*
X706686Y441782D01*
X708464Y439669D01*
X710189Y437514D01*
X711861Y435316D01*
X713478Y433078D01*
X715040Y430802D01*
X716546Y428487D01*
X717994Y426137D01*
X719385Y423751D01*
X720716Y421332D01*
X721988Y418881D01*
X723199Y416400D01*
X724349Y413890D01*
X725436Y411352D01*
X726462Y408788D01*
X727424Y406200D01*
X728322Y403589D01*
X729156Y400957D01*
X729925Y398305D01*
X730629Y395635D01*
X731266Y392949D01*
X731838Y390248D01*
X732344Y387533D01*
X732782Y384807D01*
X733154Y382071D01*
X733458Y379327D01*
X733695Y376576D01*
X733864Y373820D01*
X733966Y371061D01*
X734000Y368300D01*
X733966Y365539D01*
X733864Y362780D01*
X733695Y360024D01*
X733458Y357273D01*
X733154Y354529D01*
X732782Y351793D01*
X732344Y349067D01*
X731838Y346352D01*
X731266Y343651D01*
X730629Y340965D01*
X729925Y338295D01*
X729156Y335643D01*
X728322Y333011D01*
X727424Y330400D01*
X726462Y327812D01*
X725436Y325248D01*
X724349Y322710D01*
X723199Y320200D01*
X721988Y317719D01*
X720716Y315268D01*
X719385Y312849D01*
X717994Y310463D01*
X716546Y308113D01*
X715040Y305798D01*
X713478Y303522D01*
X711861Y301284D01*
X710189Y299086D01*
X708464Y296931D01*
X706686Y294818D01*
X704857Y292750D01*
X702978Y290727D01*
X701050Y288750D01*
X699073Y286822D01*
X697050Y284943D01*
X694982Y283114D01*
X692869Y281336D01*
X690714Y279611D01*
X688516Y277939D01*
X686278Y276322D01*
X684002Y274760D01*
X681687Y273254D01*
X679337Y271806D01*
X676951Y270415D01*
X674532Y269084D01*
X672081Y267812D01*
X669600Y266601D01*
X667090Y265451D01*
X664552Y264364D01*
X661988Y263338D01*
X659400Y262376D01*
X656789Y261478D01*
X654157Y260644D01*
X651505Y259875D01*
X648835Y259171D01*
X646149Y258534D01*
X643448Y257962D01*
X640733Y257456D01*
X638007Y257018D01*
X635271Y256646D01*
X632527Y256342D01*
X629776Y256105D01*
X627020Y255936D01*
X624261Y255834D01*
X621500Y255800D01*
X618739Y255834D01*
X615980Y255936D01*
X613224Y256105D01*
X610473Y256342D01*
X607729Y256646D01*
X604993Y257018D01*
X602267Y257456D01*
X599552Y257962D01*
X596851Y258534D01*
X594165Y259171D01*
X591495Y259875D01*
X588843Y260644D01*
X586211Y261478D01*
X583600Y262376D01*
X581012Y263338D01*
X578448Y264364D01*
X575910Y265451D01*
X573400Y266601D01*
X570919Y267812D01*
X568468Y269084D01*
X566049Y270415D01*
X563663Y271806D01*
X561313Y273254D01*
X558998Y274760D01*
X556722Y276322D01*
X554484Y277939D01*
X552286Y279611D01*
X550131Y281336D01*
X548018Y283114D01*
X545950Y284943D01*
X543927Y286822D01*
X541950Y288750D01*
X540022Y290727D01*
X538143Y292750D01*
X536314Y294818D01*
X534536Y296931D01*
X532811Y299086D01*
X531139Y301284D01*
X529522Y303522D01*
X527960Y305798D01*
X526454Y308113D01*
X525006Y310463D01*
X523615Y312849D01*
X522284Y315268D01*
X521012Y317719D01*
X519801Y320200D01*
X518651Y322710D01*
X517564Y325248D01*
X516538Y327812D01*
X515576Y330400D01*
X514678Y333011D01*
X513844Y335643D01*
X513075Y338295D01*
X512371Y340965D01*
X511734Y343651D01*
X511162Y346352D01*
X510656Y349067D01*
X510218Y351793D01*
X509846Y354529D01*
X509542Y357273D01*
X509305Y360024D01*
X509136Y362780D01*
X509034Y365539D01*
X509000Y368300D01*
D12*
X541942Y410718D02*
X544538Y410718D01*
X541942Y410718D02*
X541843Y410720D01*
X541743Y410726D01*
X541644Y410735D01*
X541546Y410748D01*
X541448Y410765D01*
X541350Y410786D01*
X541254Y410811D01*
X541159Y410839D01*
X541065Y410871D01*
X540972Y410906D01*
X540880Y410945D01*
X540790Y410988D01*
X540702Y411033D01*
X540615Y411083D01*
X540531Y411135D01*
X540448Y411191D01*
X540368Y411249D01*
X540290Y411311D01*
X540215Y411376D01*
X540142Y411444D01*
X540072Y411514D01*
X540004Y411587D01*
X539939Y411662D01*
X539877Y411740D01*
X539819Y411820D01*
X539763Y411903D01*
X539711Y411987D01*
X539661Y412074D01*
X539616Y412162D01*
X539573Y412252D01*
X539534Y412344D01*
X539499Y412437D01*
X539467Y412531D01*
X539439Y412626D01*
X539414Y412722D01*
X539393Y412820D01*
X539376Y412918D01*
X539363Y413016D01*
X539354Y413115D01*
X539348Y413215D01*
X539346Y413314D01*
X539345Y413314D02*
X539345Y419806D01*
X539346Y419806D02*
X539348Y419905D01*
X539354Y420005D01*
X539363Y420104D01*
X539376Y420202D01*
X539393Y420300D01*
X539414Y420398D01*
X539439Y420494D01*
X539467Y420589D01*
X539499Y420683D01*
X539534Y420776D01*
X539573Y420868D01*
X539616Y420958D01*
X539661Y421046D01*
X539711Y421133D01*
X539763Y421217D01*
X539819Y421300D01*
X539877Y421380D01*
X539939Y421458D01*
X540004Y421533D01*
X540072Y421606D01*
X540142Y421676D01*
X540215Y421744D01*
X540290Y421809D01*
X540368Y421871D01*
X540448Y421929D01*
X540531Y421985D01*
X540615Y422037D01*
X540702Y422087D01*
X540790Y422132D01*
X540880Y422175D01*
X540972Y422214D01*
X541064Y422249D01*
X541159Y422281D01*
X541254Y422309D01*
X541350Y422334D01*
X541448Y422355D01*
X541546Y422372D01*
X541644Y422385D01*
X541743Y422394D01*
X541843Y422400D01*
X541942Y422402D01*
X544538Y422402D01*
X552474Y422402D02*
X552581Y422400D01*
X552687Y422394D01*
X552793Y422384D01*
X552899Y422371D01*
X553005Y422353D01*
X553109Y422332D01*
X553213Y422307D01*
X553316Y422278D01*
X553417Y422246D01*
X553517Y422209D01*
X553616Y422169D01*
X553714Y422126D01*
X553810Y422079D01*
X553904Y422028D01*
X553996Y421974D01*
X554086Y421917D01*
X554174Y421857D01*
X554259Y421793D01*
X554342Y421726D01*
X554423Y421656D01*
X554501Y421584D01*
X554577Y421508D01*
X554649Y421430D01*
X554719Y421349D01*
X554786Y421266D01*
X554850Y421181D01*
X554910Y421093D01*
X554967Y421003D01*
X555021Y420911D01*
X555072Y420817D01*
X555119Y420721D01*
X555162Y420623D01*
X555202Y420524D01*
X555239Y420424D01*
X555271Y420323D01*
X555300Y420220D01*
X555325Y420116D01*
X555346Y420012D01*
X555364Y419906D01*
X555377Y419800D01*
X555387Y419694D01*
X555393Y419588D01*
X555395Y419481D01*
X552474Y422402D02*
X552353Y422400D01*
X552232Y422394D01*
X552112Y422384D01*
X551991Y422371D01*
X551872Y422353D01*
X551752Y422332D01*
X551634Y422307D01*
X551517Y422278D01*
X551400Y422245D01*
X551285Y422209D01*
X551171Y422168D01*
X551058Y422125D01*
X550946Y422077D01*
X550837Y422026D01*
X550729Y421971D01*
X550622Y421913D01*
X550518Y421852D01*
X550416Y421787D01*
X550316Y421719D01*
X550218Y421648D01*
X550122Y421574D01*
X550029Y421497D01*
X549939Y421416D01*
X549851Y421333D01*
X549766Y421247D01*
X549683Y421158D01*
X549604Y421067D01*
X549527Y420973D01*
X549454Y420877D01*
X549384Y420779D01*
X549317Y420678D01*
X549253Y420575D01*
X549193Y420470D01*
X549136Y420363D01*
X549082Y420255D01*
X549032Y420145D01*
X548986Y420033D01*
X548943Y419920D01*
X548904Y419805D01*
X554421Y417209D02*
X554500Y417286D01*
X554576Y417367D01*
X554649Y417450D01*
X554719Y417535D01*
X554786Y417623D01*
X554850Y417713D01*
X554910Y417805D01*
X554967Y417900D01*
X555021Y417996D01*
X555072Y418094D01*
X555119Y418194D01*
X555163Y418296D01*
X555203Y418399D01*
X555239Y418503D01*
X555271Y418609D01*
X555300Y418715D01*
X555325Y418823D01*
X555347Y418931D01*
X555364Y419041D01*
X555378Y419150D01*
X555387Y419260D01*
X555393Y419371D01*
X555395Y419481D01*
X554421Y417209D02*
X548904Y410718D01*
X555395Y410718D01*
D10*
X745300Y368300D02*
X745335Y371184D01*
X745442Y374065D01*
X745618Y376944D01*
X745866Y379817D01*
X746184Y382683D01*
X746572Y385541D01*
X747030Y388388D01*
X747558Y391223D01*
X748155Y394044D01*
X748821Y396850D01*
X749556Y399639D01*
X750360Y402408D01*
X751230Y405158D01*
X752169Y407885D01*
X753173Y410588D01*
X754244Y413265D01*
X755380Y415916D01*
X756581Y418538D01*
X757846Y421129D01*
X759174Y423689D01*
X760565Y426216D01*
X762017Y428707D01*
X763530Y431162D01*
X765102Y433580D01*
X766734Y435957D01*
X768423Y438295D01*
X770169Y440590D01*
X771971Y442841D01*
X773828Y445048D01*
X775738Y447208D01*
X777701Y449321D01*
X779715Y451385D01*
X781779Y453399D01*
X783892Y455362D01*
X786052Y457272D01*
X788259Y459129D01*
X790510Y460931D01*
X792805Y462677D01*
X795143Y464366D01*
X797520Y465998D01*
X799938Y467570D01*
X802393Y469083D01*
X804884Y470535D01*
X807411Y471926D01*
X809971Y473254D01*
X812562Y474519D01*
X815184Y475720D01*
X817835Y476856D01*
X820512Y477927D01*
X823215Y478931D01*
X825942Y479870D01*
X828692Y480740D01*
X831461Y481544D01*
X834250Y482279D01*
X837056Y482945D01*
X839877Y483542D01*
X842712Y484070D01*
X845559Y484528D01*
X848417Y484916D01*
X851283Y485234D01*
X854156Y485482D01*
X857035Y485658D01*
X859916Y485765D01*
X862800Y485800D01*
X865684Y485765D01*
X868565Y485658D01*
X871444Y485482D01*
X874317Y485234D01*
X877183Y484916D01*
X880041Y484528D01*
X882888Y484070D01*
X885723Y483542D01*
X888544Y482945D01*
X891350Y482279D01*
X894139Y481544D01*
X896908Y480740D01*
X899658Y479870D01*
X902385Y478931D01*
X905088Y477927D01*
X907765Y476856D01*
X910416Y475720D01*
X913038Y474519D01*
X915629Y473254D01*
X918189Y471926D01*
X920716Y470535D01*
X923207Y469083D01*
X925662Y467570D01*
X928080Y465998D01*
X930457Y464366D01*
X932795Y462677D01*
X935090Y460931D01*
X937341Y459129D01*
X939548Y457272D01*
X941708Y455362D01*
X943821Y453399D01*
X945885Y451385D01*
X947899Y449321D01*
X949862Y447208D01*
X951772Y445048D01*
X953629Y442841D01*
X955431Y440590D01*
X957177Y438295D01*
X958866Y435957D01*
X960498Y433580D01*
X962070Y431162D01*
X963583Y428707D01*
X965035Y426216D01*
X966426Y423689D01*
X967754Y421129D01*
X969019Y418538D01*
X970220Y415916D01*
X971356Y413265D01*
X972427Y410588D01*
X973431Y407885D01*
X974370Y405158D01*
X975240Y402408D01*
X976044Y399639D01*
X976779Y396850D01*
X977445Y394044D01*
X978042Y391223D01*
X978570Y388388D01*
X979028Y385541D01*
X979416Y382683D01*
X979734Y379817D01*
X979982Y376944D01*
X980158Y374065D01*
X980265Y371184D01*
X980300Y368300D01*
X980265Y365416D01*
X980158Y362535D01*
X979982Y359656D01*
X979734Y356783D01*
X979416Y353917D01*
X979028Y351059D01*
X978570Y348212D01*
X978042Y345377D01*
X977445Y342556D01*
X976779Y339750D01*
X976044Y336961D01*
X975240Y334192D01*
X974370Y331442D01*
X973431Y328715D01*
X972427Y326012D01*
X971356Y323335D01*
X970220Y320684D01*
X969019Y318062D01*
X967754Y315471D01*
X966426Y312911D01*
X965035Y310384D01*
X963583Y307893D01*
X962070Y305438D01*
X960498Y303020D01*
X958866Y300643D01*
X957177Y298305D01*
X955431Y296010D01*
X953629Y293759D01*
X951772Y291552D01*
X949862Y289392D01*
X947899Y287279D01*
X945885Y285215D01*
X943821Y283201D01*
X941708Y281238D01*
X939548Y279328D01*
X937341Y277471D01*
X935090Y275669D01*
X932795Y273923D01*
X930457Y272234D01*
X928080Y270602D01*
X925662Y269030D01*
X923207Y267517D01*
X920716Y266065D01*
X918189Y264674D01*
X915629Y263346D01*
X913038Y262081D01*
X910416Y260880D01*
X907765Y259744D01*
X905088Y258673D01*
X902385Y257669D01*
X899658Y256730D01*
X896908Y255860D01*
X894139Y255056D01*
X891350Y254321D01*
X888544Y253655D01*
X885723Y253058D01*
X882888Y252530D01*
X880041Y252072D01*
X877183Y251684D01*
X874317Y251366D01*
X871444Y251118D01*
X868565Y250942D01*
X865684Y250835D01*
X862800Y250800D01*
X859916Y250835D01*
X857035Y250942D01*
X854156Y251118D01*
X851283Y251366D01*
X848417Y251684D01*
X845559Y252072D01*
X842712Y252530D01*
X839877Y253058D01*
X837056Y253655D01*
X834250Y254321D01*
X831461Y255056D01*
X828692Y255860D01*
X825942Y256730D01*
X823215Y257669D01*
X820512Y258673D01*
X817835Y259744D01*
X815184Y260880D01*
X812562Y262081D01*
X809971Y263346D01*
X807411Y264674D01*
X804884Y266065D01*
X802393Y267517D01*
X799938Y269030D01*
X797520Y270602D01*
X795143Y272234D01*
X792805Y273923D01*
X790510Y275669D01*
X788259Y277471D01*
X786052Y279328D01*
X783892Y281238D01*
X781779Y283201D01*
X779715Y285215D01*
X777701Y287279D01*
X775738Y289392D01*
X773828Y291552D01*
X771971Y293759D01*
X770169Y296010D01*
X768423Y298305D01*
X766734Y300643D01*
X765102Y303020D01*
X763530Y305438D01*
X762017Y307893D01*
X760565Y310384D01*
X759174Y312911D01*
X757846Y315471D01*
X756581Y318062D01*
X755380Y320684D01*
X754244Y323335D01*
X753173Y326012D01*
X752169Y328715D01*
X751230Y331442D01*
X750360Y334192D01*
X749556Y336961D01*
X748821Y339750D01*
X748155Y342556D01*
X747558Y345377D01*
X747030Y348212D01*
X746572Y351059D01*
X746184Y353917D01*
X745866Y356783D01*
X745618Y359656D01*
X745442Y362535D01*
X745335Y365416D01*
X745300Y368300D01*
D11*
X750300Y368300D02*
X750334Y371061D01*
X750436Y373820D01*
X750605Y376576D01*
X750842Y379327D01*
X751146Y382071D01*
X751518Y384807D01*
X751956Y387533D01*
X752462Y390248D01*
X753034Y392949D01*
X753671Y395635D01*
X754375Y398305D01*
X755144Y400957D01*
X755978Y403589D01*
X756876Y406200D01*
X757838Y408788D01*
X758864Y411352D01*
X759951Y413890D01*
X761101Y416400D01*
X762312Y418881D01*
X763584Y421332D01*
X764915Y423751D01*
X766306Y426137D01*
X767754Y428487D01*
X769260Y430802D01*
X770822Y433078D01*
X772439Y435316D01*
X774111Y437514D01*
X775836Y439669D01*
X777614Y441782D01*
X779443Y443850D01*
X781322Y445873D01*
X783250Y447850D01*
X785227Y449778D01*
X787250Y451657D01*
X789318Y453486D01*
X791431Y455264D01*
X793586Y456989D01*
X795784Y458661D01*
X798022Y460278D01*
X800298Y461840D01*
X802613Y463346D01*
X804963Y464794D01*
X807349Y466185D01*
X809768Y467516D01*
X812219Y468788D01*
X814700Y469999D01*
X817210Y471149D01*
X819748Y472236D01*
X822312Y473262D01*
X824900Y474224D01*
X827511Y475122D01*
X830143Y475956D01*
X832795Y476725D01*
X835465Y477429D01*
X838151Y478066D01*
X840852Y478638D01*
X843567Y479144D01*
X846293Y479582D01*
X849029Y479954D01*
X851773Y480258D01*
X854524Y480495D01*
X857280Y480664D01*
X860039Y480766D01*
X862800Y480800D01*
X865561Y480766D01*
X868320Y480664D01*
X871076Y480495D01*
X873827Y480258D01*
X876571Y479954D01*
X879307Y479582D01*
X882033Y479144D01*
X884748Y478638D01*
X887449Y478066D01*
X890135Y477429D01*
X892805Y476725D01*
X895457Y475956D01*
X898089Y475122D01*
X900700Y474224D01*
X903288Y473262D01*
X905852Y472236D01*
X908390Y471149D01*
X910900Y469999D01*
X913381Y468788D01*
X915832Y467516D01*
X918251Y466185D01*
X920637Y464794D01*
X922987Y463346D01*
X925302Y461840D01*
X927578Y460278D01*
X929816Y458661D01*
X932014Y456989D01*
X934169Y455264D01*
X936282Y453486D01*
X938350Y451657D01*
X940373Y449778D01*
X942350Y447850D01*
X944278Y445873D01*
X946157Y443850D01*
X947986Y441782D01*
X949764Y439669D01*
X951489Y437514D01*
X953161Y435316D01*
X954778Y433078D01*
X956340Y430802D01*
X957846Y428487D01*
X959294Y426137D01*
X960685Y423751D01*
X962016Y421332D01*
X963288Y418881D01*
X964499Y416400D01*
X965649Y413890D01*
X966736Y411352D01*
X967762Y408788D01*
X968724Y406200D01*
X969622Y403589D01*
X970456Y400957D01*
X971225Y398305D01*
X971929Y395635D01*
X972566Y392949D01*
X973138Y390248D01*
X973644Y387533D01*
X974082Y384807D01*
X974454Y382071D01*
X974758Y379327D01*
X974995Y376576D01*
X975164Y373820D01*
X975266Y371061D01*
X975300Y368300D01*
X975266Y365539D01*
X975164Y362780D01*
X974995Y360024D01*
X974758Y357273D01*
X974454Y354529D01*
X974082Y351793D01*
X973644Y349067D01*
X973138Y346352D01*
X972566Y343651D01*
X971929Y340965D01*
X971225Y338295D01*
X970456Y335643D01*
X969622Y333011D01*
X968724Y330400D01*
X967762Y327812D01*
X966736Y325248D01*
X965649Y322710D01*
X964499Y320200D01*
X963288Y317719D01*
X962016Y315268D01*
X960685Y312849D01*
X959294Y310463D01*
X957846Y308113D01*
X956340Y305798D01*
X954778Y303522D01*
X953161Y301284D01*
X951489Y299086D01*
X949764Y296931D01*
X947986Y294818D01*
X946157Y292750D01*
X944278Y290727D01*
X942350Y288750D01*
X940373Y286822D01*
X938350Y284943D01*
X936282Y283114D01*
X934169Y281336D01*
X932014Y279611D01*
X929816Y277939D01*
X927578Y276322D01*
X925302Y274760D01*
X922987Y273254D01*
X920637Y271806D01*
X918251Y270415D01*
X915832Y269084D01*
X913381Y267812D01*
X910900Y266601D01*
X908390Y265451D01*
X905852Y264364D01*
X903288Y263338D01*
X900700Y262376D01*
X898089Y261478D01*
X895457Y260644D01*
X892805Y259875D01*
X890135Y259171D01*
X887449Y258534D01*
X884748Y257962D01*
X882033Y257456D01*
X879307Y257018D01*
X876571Y256646D01*
X873827Y256342D01*
X871076Y256105D01*
X868320Y255936D01*
X865561Y255834D01*
X862800Y255800D01*
X860039Y255834D01*
X857280Y255936D01*
X854524Y256105D01*
X851773Y256342D01*
X849029Y256646D01*
X846293Y257018D01*
X843567Y257456D01*
X840852Y257962D01*
X838151Y258534D01*
X835465Y259171D01*
X832795Y259875D01*
X830143Y260644D01*
X827511Y261478D01*
X824900Y262376D01*
X822312Y263338D01*
X819748Y264364D01*
X817210Y265451D01*
X814700Y266601D01*
X812219Y267812D01*
X809768Y269084D01*
X807349Y270415D01*
X804963Y271806D01*
X802613Y273254D01*
X800298Y274760D01*
X798022Y276322D01*
X795784Y277939D01*
X793586Y279611D01*
X791431Y281336D01*
X789318Y283114D01*
X787250Y284943D01*
X785227Y286822D01*
X783250Y288750D01*
X781322Y290727D01*
X779443Y292750D01*
X777614Y294818D01*
X775836Y296931D01*
X774111Y299086D01*
X772439Y301284D01*
X770822Y303522D01*
X769260Y305798D01*
X767754Y308113D01*
X766306Y310463D01*
X764915Y312849D01*
X763584Y315268D01*
X762312Y317719D01*
X761101Y320200D01*
X759951Y322710D01*
X758864Y325248D01*
X757838Y327812D01*
X756876Y330400D01*
X755978Y333011D01*
X755144Y335643D01*
X754375Y338295D01*
X753671Y340965D01*
X753034Y343651D01*
X752462Y346352D01*
X751956Y349067D01*
X751518Y351793D01*
X751146Y354529D01*
X750842Y357273D01*
X750605Y360024D01*
X750436Y362780D01*
X750334Y365539D01*
X750300Y368300D01*
D12*
X781972Y409448D02*
X784568Y409448D01*
X781972Y409448D02*
X781873Y409450D01*
X781773Y409456D01*
X781674Y409465D01*
X781576Y409478D01*
X781478Y409495D01*
X781380Y409516D01*
X781284Y409541D01*
X781189Y409569D01*
X781095Y409601D01*
X781002Y409636D01*
X780910Y409675D01*
X780820Y409718D01*
X780732Y409763D01*
X780645Y409813D01*
X780561Y409865D01*
X780478Y409921D01*
X780398Y409979D01*
X780320Y410041D01*
X780245Y410106D01*
X780172Y410174D01*
X780102Y410244D01*
X780034Y410317D01*
X779969Y410392D01*
X779907Y410470D01*
X779849Y410550D01*
X779793Y410633D01*
X779741Y410717D01*
X779691Y410804D01*
X779646Y410892D01*
X779603Y410982D01*
X779564Y411074D01*
X779529Y411167D01*
X779497Y411261D01*
X779469Y411356D01*
X779444Y411452D01*
X779423Y411550D01*
X779406Y411648D01*
X779393Y411746D01*
X779384Y411845D01*
X779378Y411945D01*
X779376Y412044D01*
X779375Y412044D02*
X779375Y418536D01*
X779376Y418536D02*
X779378Y418635D01*
X779384Y418735D01*
X779393Y418834D01*
X779406Y418932D01*
X779423Y419030D01*
X779444Y419128D01*
X779469Y419224D01*
X779497Y419319D01*
X779529Y419413D01*
X779564Y419506D01*
X779603Y419598D01*
X779646Y419688D01*
X779691Y419776D01*
X779741Y419863D01*
X779793Y419947D01*
X779849Y420030D01*
X779907Y420110D01*
X779969Y420188D01*
X780034Y420263D01*
X780102Y420336D01*
X780172Y420406D01*
X780245Y420474D01*
X780320Y420539D01*
X780398Y420601D01*
X780478Y420659D01*
X780561Y420715D01*
X780645Y420767D01*
X780732Y420817D01*
X780820Y420862D01*
X780910Y420905D01*
X781002Y420944D01*
X781094Y420979D01*
X781189Y421011D01*
X781284Y421039D01*
X781380Y421064D01*
X781478Y421085D01*
X781576Y421102D01*
X781674Y421115D01*
X781773Y421124D01*
X781873Y421130D01*
X781972Y421132D01*
X784568Y421132D01*
X788934Y409448D02*
X792179Y409448D01*
X792292Y409450D01*
X792405Y409456D01*
X792518Y409466D01*
X792631Y409480D01*
X792743Y409497D01*
X792854Y409519D01*
X792964Y409544D01*
X793074Y409574D01*
X793182Y409607D01*
X793289Y409644D01*
X793395Y409684D01*
X793499Y409729D01*
X793602Y409777D01*
X793703Y409828D01*
X793802Y409883D01*
X793899Y409941D01*
X793994Y410003D01*
X794087Y410068D01*
X794177Y410136D01*
X794265Y410207D01*
X794351Y410282D01*
X794434Y410359D01*
X794514Y410439D01*
X794591Y410522D01*
X794666Y410608D01*
X794737Y410696D01*
X794805Y410786D01*
X794870Y410879D01*
X794932Y410974D01*
X794990Y411071D01*
X795045Y411170D01*
X795096Y411271D01*
X795144Y411374D01*
X795189Y411478D01*
X795229Y411584D01*
X795266Y411691D01*
X795299Y411799D01*
X795329Y411909D01*
X795354Y412019D01*
X795376Y412130D01*
X795393Y412242D01*
X795407Y412355D01*
X795417Y412468D01*
X795423Y412581D01*
X795425Y412694D01*
X795423Y412807D01*
X795417Y412920D01*
X795407Y413033D01*
X795393Y413146D01*
X795376Y413258D01*
X795354Y413369D01*
X795329Y413479D01*
X795299Y413589D01*
X795266Y413697D01*
X795229Y413804D01*
X795189Y413910D01*
X795144Y414014D01*
X795096Y414117D01*
X795045Y414218D01*
X794990Y414317D01*
X794932Y414414D01*
X794870Y414509D01*
X794805Y414602D01*
X794737Y414692D01*
X794666Y414780D01*
X794591Y414866D01*
X794514Y414949D01*
X794434Y415029D01*
X794351Y415106D01*
X794265Y415181D01*
X794177Y415252D01*
X794087Y415320D01*
X793994Y415385D01*
X793899Y415447D01*
X793802Y415505D01*
X793703Y415560D01*
X793602Y415611D01*
X793499Y415659D01*
X793395Y415704D01*
X793289Y415744D01*
X793182Y415781D01*
X793074Y415814D01*
X792964Y415844D01*
X792854Y415869D01*
X792743Y415891D01*
X792631Y415908D01*
X792518Y415922D01*
X792405Y415932D01*
X792292Y415938D01*
X792179Y415940D01*
X792828Y421132D02*
X788934Y421132D01*
X792828Y421132D02*
X792929Y421130D01*
X793029Y421124D01*
X793129Y421114D01*
X793229Y421101D01*
X793328Y421083D01*
X793427Y421062D01*
X793524Y421037D01*
X793621Y421008D01*
X793716Y420975D01*
X793810Y420939D01*
X793902Y420899D01*
X793993Y420856D01*
X794082Y420809D01*
X794169Y420759D01*
X794255Y420705D01*
X794338Y420648D01*
X794418Y420588D01*
X794497Y420525D01*
X794573Y420458D01*
X794646Y420389D01*
X794716Y420317D01*
X794784Y420243D01*
X794849Y420166D01*
X794910Y420086D01*
X794969Y420004D01*
X795024Y419920D01*
X795076Y419834D01*
X795125Y419746D01*
X795170Y419656D01*
X795212Y419564D01*
X795250Y419471D01*
X795284Y419376D01*
X795315Y419281D01*
X795342Y419184D01*
X795365Y419086D01*
X795385Y418987D01*
X795400Y418887D01*
X795412Y418787D01*
X795420Y418687D01*
X795424Y418586D01*
X795424Y418486D01*
X795420Y418385D01*
X795412Y418285D01*
X795400Y418185D01*
X795385Y418085D01*
X795365Y417986D01*
X795342Y417888D01*
X795315Y417791D01*
X795284Y417696D01*
X795250Y417601D01*
X795212Y417508D01*
X795170Y417416D01*
X795125Y417326D01*
X795076Y417238D01*
X795024Y417152D01*
X794969Y417068D01*
X794910Y416986D01*
X794849Y416906D01*
X794784Y416829D01*
X794716Y416755D01*
X794646Y416683D01*
X794573Y416614D01*
X794497Y416547D01*
X794418Y416484D01*
X794338Y416424D01*
X794255Y416367D01*
X794169Y416313D01*
X794082Y416263D01*
X793993Y416216D01*
X793902Y416173D01*
X793810Y416133D01*
X793716Y416097D01*
X793621Y416064D01*
X793524Y416035D01*
X793427Y416010D01*
X793328Y415989D01*
X793229Y415971D01*
X793129Y415958D01*
X793029Y415948D01*
X792929Y415942D01*
X792828Y415940D01*
X792828Y415939D02*
X790232Y415939D01*
D10*
X745300Y127000D02*
X745335Y129884D01*
X745442Y132765D01*
X745618Y135644D01*
X745866Y138517D01*
X746184Y141383D01*
X746572Y144241D01*
X747030Y147088D01*
X747558Y149923D01*
X748155Y152744D01*
X748821Y155550D01*
X749556Y158339D01*
X750360Y161108D01*
X751230Y163858D01*
X752169Y166585D01*
X753173Y169288D01*
X754244Y171965D01*
X755380Y174616D01*
X756581Y177238D01*
X757846Y179829D01*
X759174Y182389D01*
X760565Y184916D01*
X762017Y187407D01*
X763530Y189862D01*
X765102Y192280D01*
X766734Y194657D01*
X768423Y196995D01*
X770169Y199290D01*
X771971Y201541D01*
X773828Y203748D01*
X775738Y205908D01*
X777701Y208021D01*
X779715Y210085D01*
X781779Y212099D01*
X783892Y214062D01*
X786052Y215972D01*
X788259Y217829D01*
X790510Y219631D01*
X792805Y221377D01*
X795143Y223066D01*
X797520Y224698D01*
X799938Y226270D01*
X802393Y227783D01*
X804884Y229235D01*
X807411Y230626D01*
X809971Y231954D01*
X812562Y233219D01*
X815184Y234420D01*
X817835Y235556D01*
X820512Y236627D01*
X823215Y237631D01*
X825942Y238570D01*
X828692Y239440D01*
X831461Y240244D01*
X834250Y240979D01*
X837056Y241645D01*
X839877Y242242D01*
X842712Y242770D01*
X845559Y243228D01*
X848417Y243616D01*
X851283Y243934D01*
X854156Y244182D01*
X857035Y244358D01*
X859916Y244465D01*
X862800Y244500D01*
X865684Y244465D01*
X868565Y244358D01*
X871444Y244182D01*
X874317Y243934D01*
X877183Y243616D01*
X880041Y243228D01*
X882888Y242770D01*
X885723Y242242D01*
X888544Y241645D01*
X891350Y240979D01*
X894139Y240244D01*
X896908Y239440D01*
X899658Y238570D01*
X902385Y237631D01*
X905088Y236627D01*
X907765Y235556D01*
X910416Y234420D01*
X913038Y233219D01*
X915629Y231954D01*
X918189Y230626D01*
X920716Y229235D01*
X923207Y227783D01*
X925662Y226270D01*
X928080Y224698D01*
X930457Y223066D01*
X932795Y221377D01*
X935090Y219631D01*
X937341Y217829D01*
X939548Y215972D01*
X941708Y214062D01*
X943821Y212099D01*
X945885Y210085D01*
X947899Y208021D01*
X949862Y205908D01*
X951772Y203748D01*
X953629Y201541D01*
X955431Y199290D01*
X957177Y196995D01*
X958866Y194657D01*
X960498Y192280D01*
X962070Y189862D01*
X963583Y187407D01*
X965035Y184916D01*
X966426Y182389D01*
X967754Y179829D01*
X969019Y177238D01*
X970220Y174616D01*
X971356Y171965D01*
X972427Y169288D01*
X973431Y166585D01*
X974370Y163858D01*
X975240Y161108D01*
X976044Y158339D01*
X976779Y155550D01*
X977445Y152744D01*
X978042Y149923D01*
X978570Y147088D01*
X979028Y144241D01*
X979416Y141383D01*
X979734Y138517D01*
X979982Y135644D01*
X980158Y132765D01*
X980265Y129884D01*
X980300Y127000D01*
X980265Y124116D01*
X980158Y121235D01*
X979982Y118356D01*
X979734Y115483D01*
X979416Y112617D01*
X979028Y109759D01*
X978570Y106912D01*
X978042Y104077D01*
X977445Y101256D01*
X976779Y98450D01*
X976044Y95661D01*
X975240Y92892D01*
X974370Y90142D01*
X973431Y87415D01*
X972427Y84712D01*
X971356Y82035D01*
X970220Y79384D01*
X969019Y76762D01*
X967754Y74171D01*
X966426Y71611D01*
X965035Y69084D01*
X963583Y66593D01*
X962070Y64138D01*
X960498Y61720D01*
X958866Y59343D01*
X957177Y57005D01*
X955431Y54710D01*
X953629Y52459D01*
X951772Y50252D01*
X949862Y48092D01*
X947899Y45979D01*
X945885Y43915D01*
X943821Y41901D01*
X941708Y39938D01*
X939548Y38028D01*
X937341Y36171D01*
X935090Y34369D01*
X932795Y32623D01*
X930457Y30934D01*
X928080Y29302D01*
X925662Y27730D01*
X923207Y26217D01*
X920716Y24765D01*
X918189Y23374D01*
X915629Y22046D01*
X913038Y20781D01*
X910416Y19580D01*
X907765Y18444D01*
X905088Y17373D01*
X902385Y16369D01*
X899658Y15430D01*
X896908Y14560D01*
X894139Y13756D01*
X891350Y13021D01*
X888544Y12355D01*
X885723Y11758D01*
X882888Y11230D01*
X880041Y10772D01*
X877183Y10384D01*
X874317Y10066D01*
X871444Y9818D01*
X868565Y9642D01*
X865684Y9535D01*
X862800Y9500D01*
X859916Y9535D01*
X857035Y9642D01*
X854156Y9818D01*
X851283Y10066D01*
X848417Y10384D01*
X845559Y10772D01*
X842712Y11230D01*
X839877Y11758D01*
X837056Y12355D01*
X834250Y13021D01*
X831461Y13756D01*
X828692Y14560D01*
X825942Y15430D01*
X823215Y16369D01*
X820512Y17373D01*
X817835Y18444D01*
X815184Y19580D01*
X812562Y20781D01*
X809971Y22046D01*
X807411Y23374D01*
X804884Y24765D01*
X802393Y26217D01*
X799938Y27730D01*
X797520Y29302D01*
X795143Y30934D01*
X792805Y32623D01*
X790510Y34369D01*
X788259Y36171D01*
X786052Y38028D01*
X783892Y39938D01*
X781779Y41901D01*
X779715Y43915D01*
X777701Y45979D01*
X775738Y48092D01*
X773828Y50252D01*
X771971Y52459D01*
X770169Y54710D01*
X768423Y57005D01*
X766734Y59343D01*
X765102Y61720D01*
X763530Y64138D01*
X762017Y66593D01*
X760565Y69084D01*
X759174Y71611D01*
X757846Y74171D01*
X756581Y76762D01*
X755380Y79384D01*
X754244Y82035D01*
X753173Y84712D01*
X752169Y87415D01*
X751230Y90142D01*
X750360Y92892D01*
X749556Y95661D01*
X748821Y98450D01*
X748155Y101256D01*
X747558Y104077D01*
X747030Y106912D01*
X746572Y109759D01*
X746184Y112617D01*
X745866Y115483D01*
X745618Y118356D01*
X745442Y121235D01*
X745335Y124116D01*
X745300Y127000D01*
D11*
X750300Y127000D02*
X750334Y129761D01*
X750436Y132520D01*
X750605Y135276D01*
X750842Y138027D01*
X751146Y140771D01*
X751518Y143507D01*
X751956Y146233D01*
X752462Y148948D01*
X753034Y151649D01*
X753671Y154335D01*
X754375Y157005D01*
X755144Y159657D01*
X755978Y162289D01*
X756876Y164900D01*
X757838Y167488D01*
X758864Y170052D01*
X759951Y172590D01*
X761101Y175100D01*
X762312Y177581D01*
X763584Y180032D01*
X764915Y182451D01*
X766306Y184837D01*
X767754Y187187D01*
X769260Y189502D01*
X770822Y191778D01*
X772439Y194016D01*
X774111Y196214D01*
X775836Y198369D01*
X777614Y200482D01*
X779443Y202550D01*
X781322Y204573D01*
X783250Y206550D01*
X785227Y208478D01*
X787250Y210357D01*
X789318Y212186D01*
X791431Y213964D01*
X793586Y215689D01*
X795784Y217361D01*
X798022Y218978D01*
X800298Y220540D01*
X802613Y222046D01*
X804963Y223494D01*
X807349Y224885D01*
X809768Y226216D01*
X812219Y227488D01*
X814700Y228699D01*
X817210Y229849D01*
X819748Y230936D01*
X822312Y231962D01*
X824900Y232924D01*
X827511Y233822D01*
X830143Y234656D01*
X832795Y235425D01*
X835465Y236129D01*
X838151Y236766D01*
X840852Y237338D01*
X843567Y237844D01*
X846293Y238282D01*
X849029Y238654D01*
X851773Y238958D01*
X854524Y239195D01*
X857280Y239364D01*
X860039Y239466D01*
X862800Y239500D01*
X865561Y239466D01*
X868320Y239364D01*
X871076Y239195D01*
X873827Y238958D01*
X876571Y238654D01*
X879307Y238282D01*
X882033Y237844D01*
X884748Y237338D01*
X887449Y236766D01*
X890135Y236129D01*
X892805Y235425D01*
X895457Y234656D01*
X898089Y233822D01*
X900700Y232924D01*
X903288Y231962D01*
X905852Y230936D01*
X908390Y229849D01*
X910900Y228699D01*
X913381Y227488D01*
X915832Y226216D01*
X918251Y224885D01*
X920637Y223494D01*
X922987Y222046D01*
X925302Y220540D01*
X927578Y218978D01*
X929816Y217361D01*
X932014Y215689D01*
X934169Y213964D01*
X936282Y212186D01*
X938350Y210357D01*
X940373Y208478D01*
X942350Y206550D01*
X944278Y204573D01*
X946157Y202550D01*
X947986Y200482D01*
X949764Y198369D01*
X951489Y196214D01*
X953161Y194016D01*
X954778Y191778D01*
X956340Y189502D01*
X957846Y187187D01*
X959294Y184837D01*
X960685Y182451D01*
X962016Y180032D01*
X963288Y177581D01*
X964499Y175100D01*
X965649Y172590D01*
X966736Y170052D01*
X967762Y167488D01*
X968724Y164900D01*
X969622Y162289D01*
X970456Y159657D01*
X971225Y157005D01*
X971929Y154335D01*
X972566Y151649D01*
X973138Y148948D01*
X973644Y146233D01*
X974082Y143507D01*
X974454Y140771D01*
X974758Y138027D01*
X974995Y135276D01*
X975164Y132520D01*
X975266Y129761D01*
X975300Y127000D01*
X975266Y124239D01*
X975164Y121480D01*
X974995Y118724D01*
X974758Y115973D01*
X974454Y113229D01*
X974082Y110493D01*
X973644Y107767D01*
X973138Y105052D01*
X972566Y102351D01*
X971929Y99665D01*
X971225Y96995D01*
X970456Y94343D01*
X969622Y91711D01*
X968724Y89100D01*
X967762Y86512D01*
X966736Y83948D01*
X965649Y81410D01*
X964499Y78900D01*
X963288Y76419D01*
X962016Y73968D01*
X960685Y71549D01*
X959294Y69163D01*
X957846Y66813D01*
X956340Y64498D01*
X954778Y62222D01*
X953161Y59984D01*
X951489Y57786D01*
X949764Y55631D01*
X947986Y53518D01*
X946157Y51450D01*
X944278Y49427D01*
X942350Y47450D01*
X940373Y45522D01*
X938350Y43643D01*
X936282Y41814D01*
X934169Y40036D01*
X932014Y38311D01*
X929816Y36639D01*
X927578Y35022D01*
X925302Y33460D01*
X922987Y31954D01*
X920637Y30506D01*
X918251Y29115D01*
X915832Y27784D01*
X913381Y26512D01*
X910900Y25301D01*
X908390Y24151D01*
X905852Y23064D01*
X903288Y22038D01*
X900700Y21076D01*
X898089Y20178D01*
X895457Y19344D01*
X892805Y18575D01*
X890135Y17871D01*
X887449Y17234D01*
X884748Y16662D01*
X882033Y16156D01*
X879307Y15718D01*
X876571Y15346D01*
X873827Y15042D01*
X871076Y14805D01*
X868320Y14636D01*
X865561Y14534D01*
X862800Y14500D01*
X860039Y14534D01*
X857280Y14636D01*
X854524Y14805D01*
X851773Y15042D01*
X849029Y15346D01*
X846293Y15718D01*
X843567Y16156D01*
X840852Y16662D01*
X838151Y17234D01*
X835465Y17871D01*
X832795Y18575D01*
X830143Y19344D01*
X827511Y20178D01*
X824900Y21076D01*
X822312Y22038D01*
X819748Y23064D01*
X817210Y24151D01*
X814700Y25301D01*
X812219Y26512D01*
X809768Y27784D01*
X807349Y29115D01*
X804963Y30506D01*
X802613Y31954D01*
X800298Y33460D01*
X798022Y35022D01*
X795784Y36639D01*
X793586Y38311D01*
X791431Y40036D01*
X789318Y41814D01*
X787250Y43643D01*
X785227Y45522D01*
X783250Y47450D01*
X781322Y49427D01*
X779443Y51450D01*
X777614Y53518D01*
X775836Y55631D01*
X774111Y57786D01*
X772439Y59984D01*
X770822Y62222D01*
X769260Y64498D01*
X767754Y66813D01*
X766306Y69163D01*
X764915Y71549D01*
X763584Y73968D01*
X762312Y76419D01*
X761101Y78900D01*
X759951Y81410D01*
X758864Y83948D01*
X757838Y86512D01*
X756876Y89100D01*
X755978Y91711D01*
X755144Y94343D01*
X754375Y96995D01*
X753671Y99665D01*
X753034Y102351D01*
X752462Y105052D01*
X751956Y107767D01*
X751518Y110493D01*
X751146Y113229D01*
X750842Y115973D01*
X750605Y118724D01*
X750436Y121480D01*
X750334Y124239D01*
X750300Y127000D01*
D12*
X780702Y75438D02*
X783298Y75438D01*
X780702Y75438D02*
X780603Y75440D01*
X780503Y75446D01*
X780404Y75455D01*
X780306Y75468D01*
X780208Y75485D01*
X780110Y75506D01*
X780014Y75531D01*
X779919Y75559D01*
X779825Y75591D01*
X779732Y75626D01*
X779640Y75665D01*
X779550Y75708D01*
X779462Y75753D01*
X779375Y75803D01*
X779291Y75855D01*
X779208Y75911D01*
X779128Y75969D01*
X779050Y76031D01*
X778975Y76096D01*
X778902Y76164D01*
X778832Y76234D01*
X778764Y76307D01*
X778699Y76382D01*
X778637Y76460D01*
X778579Y76540D01*
X778523Y76623D01*
X778471Y76707D01*
X778421Y76794D01*
X778376Y76882D01*
X778333Y76972D01*
X778294Y77064D01*
X778259Y77157D01*
X778227Y77251D01*
X778199Y77346D01*
X778174Y77442D01*
X778153Y77540D01*
X778136Y77638D01*
X778123Y77736D01*
X778114Y77835D01*
X778108Y77935D01*
X778106Y78034D01*
X778105Y78034D02*
X778105Y84526D01*
X778106Y84526D02*
X778108Y84625D01*
X778114Y84725D01*
X778123Y84824D01*
X778136Y84922D01*
X778153Y85020D01*
X778174Y85118D01*
X778199Y85214D01*
X778227Y85309D01*
X778259Y85403D01*
X778294Y85496D01*
X778333Y85588D01*
X778376Y85678D01*
X778421Y85766D01*
X778471Y85853D01*
X778523Y85937D01*
X778579Y86020D01*
X778637Y86100D01*
X778699Y86178D01*
X778764Y86253D01*
X778832Y86326D01*
X778902Y86396D01*
X778975Y86464D01*
X779050Y86529D01*
X779128Y86591D01*
X779208Y86649D01*
X779291Y86705D01*
X779375Y86757D01*
X779462Y86807D01*
X779550Y86852D01*
X779640Y86895D01*
X779732Y86934D01*
X779824Y86969D01*
X779919Y87001D01*
X780014Y87029D01*
X780110Y87054D01*
X780208Y87075D01*
X780306Y87092D01*
X780404Y87105D01*
X780503Y87114D01*
X780603Y87120D01*
X780702Y87122D01*
X783298Y87122D01*
X790260Y87122D02*
X787664Y78034D01*
X794155Y78034D01*
X792207Y75438D02*
X792207Y80631D01*
D10*
X504000Y127000D02*
X504035Y129884D01*
X504142Y132765D01*
X504318Y135644D01*
X504566Y138517D01*
X504884Y141383D01*
X505272Y144241D01*
X505730Y147088D01*
X506258Y149923D01*
X506855Y152744D01*
X507521Y155550D01*
X508256Y158339D01*
X509060Y161108D01*
X509930Y163858D01*
X510869Y166585D01*
X511873Y169288D01*
X512944Y171965D01*
X514080Y174616D01*
X515281Y177238D01*
X516546Y179829D01*
X517874Y182389D01*
X519265Y184916D01*
X520717Y187407D01*
X522230Y189862D01*
X523802Y192280D01*
X525434Y194657D01*
X527123Y196995D01*
X528869Y199290D01*
X530671Y201541D01*
X532528Y203748D01*
X534438Y205908D01*
X536401Y208021D01*
X538415Y210085D01*
X540479Y212099D01*
X542592Y214062D01*
X544752Y215972D01*
X546959Y217829D01*
X549210Y219631D01*
X551505Y221377D01*
X553843Y223066D01*
X556220Y224698D01*
X558638Y226270D01*
X561093Y227783D01*
X563584Y229235D01*
X566111Y230626D01*
X568671Y231954D01*
X571262Y233219D01*
X573884Y234420D01*
X576535Y235556D01*
X579212Y236627D01*
X581915Y237631D01*
X584642Y238570D01*
X587392Y239440D01*
X590161Y240244D01*
X592950Y240979D01*
X595756Y241645D01*
X598577Y242242D01*
X601412Y242770D01*
X604259Y243228D01*
X607117Y243616D01*
X609983Y243934D01*
X612856Y244182D01*
X615735Y244358D01*
X618616Y244465D01*
X621500Y244500D01*
X624384Y244465D01*
X627265Y244358D01*
X630144Y244182D01*
X633017Y243934D01*
X635883Y243616D01*
X638741Y243228D01*
X641588Y242770D01*
X644423Y242242D01*
X647244Y241645D01*
X650050Y240979D01*
X652839Y240244D01*
X655608Y239440D01*
X658358Y238570D01*
X661085Y237631D01*
X663788Y236627D01*
X666465Y235556D01*
X669116Y234420D01*
X671738Y233219D01*
X674329Y231954D01*
X676889Y230626D01*
X679416Y229235D01*
X681907Y227783D01*
X684362Y226270D01*
X686780Y224698D01*
X689157Y223066D01*
X691495Y221377D01*
X693790Y219631D01*
X696041Y217829D01*
X698248Y215972D01*
X700408Y214062D01*
X702521Y212099D01*
X704585Y210085D01*
X706599Y208021D01*
X708562Y205908D01*
X710472Y203748D01*
X712329Y201541D01*
X714131Y199290D01*
X715877Y196995D01*
X717566Y194657D01*
X719198Y192280D01*
X720770Y189862D01*
X722283Y187407D01*
X723735Y184916D01*
X725126Y182389D01*
X726454Y179829D01*
X727719Y177238D01*
X728920Y174616D01*
X730056Y171965D01*
X731127Y169288D01*
X732131Y166585D01*
X733070Y163858D01*
X733940Y161108D01*
X734744Y158339D01*
X735479Y155550D01*
X736145Y152744D01*
X736742Y149923D01*
X737270Y147088D01*
X737728Y144241D01*
X738116Y141383D01*
X738434Y138517D01*
X738682Y135644D01*
X738858Y132765D01*
X738965Y129884D01*
X739000Y127000D01*
X738965Y124116D01*
X738858Y121235D01*
X738682Y118356D01*
X738434Y115483D01*
X738116Y112617D01*
X737728Y109759D01*
X737270Y106912D01*
X736742Y104077D01*
X736145Y101256D01*
X735479Y98450D01*
X734744Y95661D01*
X733940Y92892D01*
X733070Y90142D01*
X732131Y87415D01*
X731127Y84712D01*
X730056Y82035D01*
X728920Y79384D01*
X727719Y76762D01*
X726454Y74171D01*
X725126Y71611D01*
X723735Y69084D01*
X722283Y66593D01*
X720770Y64138D01*
X719198Y61720D01*
X717566Y59343D01*
X715877Y57005D01*
X714131Y54710D01*
X712329Y52459D01*
X710472Y50252D01*
X708562Y48092D01*
X706599Y45979D01*
X704585Y43915D01*
X702521Y41901D01*
X700408Y39938D01*
X698248Y38028D01*
X696041Y36171D01*
X693790Y34369D01*
X691495Y32623D01*
X689157Y30934D01*
X686780Y29302D01*
X684362Y27730D01*
X681907Y26217D01*
X679416Y24765D01*
X676889Y23374D01*
X674329Y22046D01*
X671738Y20781D01*
X669116Y19580D01*
X666465Y18444D01*
X663788Y17373D01*
X661085Y16369D01*
X658358Y15430D01*
X655608Y14560D01*
X652839Y13756D01*
X650050Y13021D01*
X647244Y12355D01*
X644423Y11758D01*
X641588Y11230D01*
X638741Y10772D01*
X635883Y10384D01*
X633017Y10066D01*
X630144Y9818D01*
X627265Y9642D01*
X624384Y9535D01*
X621500Y9500D01*
X618616Y9535D01*
X615735Y9642D01*
X612856Y9818D01*
X609983Y10066D01*
X607117Y10384D01*
X604259Y10772D01*
X601412Y11230D01*
X598577Y11758D01*
X595756Y12355D01*
X592950Y13021D01*
X590161Y13756D01*
X587392Y14560D01*
X584642Y15430D01*
X581915Y16369D01*
X579212Y17373D01*
X576535Y18444D01*
X573884Y19580D01*
X571262Y20781D01*
X568671Y22046D01*
X566111Y23374D01*
X563584Y24765D01*
X561093Y26217D01*
X558638Y27730D01*
X556220Y29302D01*
X553843Y30934D01*
X551505Y32623D01*
X549210Y34369D01*
X546959Y36171D01*
X544752Y38028D01*
X542592Y39938D01*
X540479Y41901D01*
X538415Y43915D01*
X536401Y45979D01*
X534438Y48092D01*
X532528Y50252D01*
X530671Y52459D01*
X528869Y54710D01*
X527123Y57005D01*
X525434Y59343D01*
X523802Y61720D01*
X522230Y64138D01*
X520717Y66593D01*
X519265Y69084D01*
X517874Y71611D01*
X516546Y74171D01*
X515281Y76762D01*
X514080Y79384D01*
X512944Y82035D01*
X511873Y84712D01*
X510869Y87415D01*
X509930Y90142D01*
X509060Y92892D01*
X508256Y95661D01*
X507521Y98450D01*
X506855Y101256D01*
X506258Y104077D01*
X505730Y106912D01*
X505272Y109759D01*
X504884Y112617D01*
X504566Y115483D01*
X504318Y118356D01*
X504142Y121235D01*
X504035Y124116D01*
X504000Y127000D01*
D11*
X509000Y127000D02*
X509034Y129761D01*
X509136Y132520D01*
X509305Y135276D01*
X509542Y138027D01*
X509846Y140771D01*
X510218Y143507D01*
X510656Y146233D01*
X511162Y148948D01*
X511734Y151649D01*
X512371Y154335D01*
X513075Y157005D01*
X513844Y159657D01*
X514678Y162289D01*
X515576Y164900D01*
X516538Y167488D01*
X517564Y170052D01*
X518651Y172590D01*
X519801Y175100D01*
X521012Y177581D01*
X522284Y180032D01*
X523615Y182451D01*
X525006Y184837D01*
X526454Y187187D01*
X527960Y189502D01*
X529522Y191778D01*
X531139Y194016D01*
X532811Y196214D01*
X534536Y198369D01*
X536314Y200482D01*
X538143Y202550D01*
X540022Y204573D01*
X541950Y206550D01*
X543927Y208478D01*
X545950Y210357D01*
X548018Y212186D01*
X550131Y213964D01*
X552286Y215689D01*
X554484Y217361D01*
X556722Y218978D01*
X558998Y220540D01*
X561313Y222046D01*
X563663Y223494D01*
X566049Y224885D01*
X568468Y226216D01*
X570919Y227488D01*
X573400Y228699D01*
X575910Y229849D01*
X578448Y230936D01*
X581012Y231962D01*
X583600Y232924D01*
X586211Y233822D01*
X588843Y234656D01*
X591495Y235425D01*
X594165Y236129D01*
X596851Y236766D01*
X599552Y237338D01*
X602267Y237844D01*
X604993Y238282D01*
X607729Y238654D01*
X610473Y238958D01*
X613224Y239195D01*
X615980Y239364D01*
X618739Y239466D01*
X621500Y239500D01*
X624261Y239466D01*
X627020Y239364D01*
X629776Y239195D01*
X632527Y238958D01*
X635271Y238654D01*
X638007Y238282D01*
X640733Y237844D01*
X643448Y237338D01*
X646149Y236766D01*
X648835Y236129D01*
X651505Y235425D01*
X654157Y234656D01*
X656789Y233822D01*
X659400Y232924D01*
X661988Y231962D01*
X664552Y230936D01*
X667090Y229849D01*
X669600Y228699D01*
X672081Y227488D01*
X674532Y226216D01*
X676951Y224885D01*
X679337Y223494D01*
X681687Y222046D01*
X684002Y220540D01*
X686278Y218978D01*
X688516Y217361D01*
X690714Y215689D01*
X692869Y213964D01*
X694982Y212186D01*
X697050Y210357D01*
X699073Y208478D01*
X701050Y206550D01*
X702978Y204573D01*
X704857Y202550D01*
X706686Y200482D01*
X708464Y198369D01*
X710189Y196214D01*
X711861Y194016D01*
X713478Y191778D01*
X715040Y189502D01*
X716546Y187187D01*
X717994Y184837D01*
X719385Y182451D01*
X720716Y180032D01*
X721988Y177581D01*
X723199Y175100D01*
X724349Y172590D01*
X725436Y170052D01*
X726462Y167488D01*
X727424Y164900D01*
X728322Y162289D01*
X729156Y159657D01*
X729925Y157005D01*
X730629Y154335D01*
X731266Y151649D01*
X731838Y148948D01*
X732344Y146233D01*
X732782Y143507D01*
X733154Y140771D01*
X733458Y138027D01*
X733695Y135276D01*
X733864Y132520D01*
X733966Y129761D01*
X734000Y127000D01*
X733966Y124239D01*
X733864Y121480D01*
X733695Y118724D01*
X733458Y115973D01*
X733154Y113229D01*
X732782Y110493D01*
X732344Y107767D01*
X731838Y105052D01*
X731266Y102351D01*
X730629Y99665D01*
X729925Y96995D01*
X729156Y94343D01*
X728322Y91711D01*
X727424Y89100D01*
X726462Y86512D01*
X725436Y83948D01*
X724349Y81410D01*
X723199Y78900D01*
X721988Y76419D01*
X720716Y73968D01*
X719385Y71549D01*
X717994Y69163D01*
X716546Y66813D01*
X715040Y64498D01*
X713478Y62222D01*
X711861Y59984D01*
X710189Y57786D01*
X708464Y55631D01*
X706686Y53518D01*
X704857Y51450D01*
X702978Y49427D01*
X701050Y47450D01*
X699073Y45522D01*
X697050Y43643D01*
X694982Y41814D01*
X692869Y40036D01*
X690714Y38311D01*
X688516Y36639D01*
X686278Y35022D01*
X684002Y33460D01*
X681687Y31954D01*
X679337Y30506D01*
X676951Y29115D01*
X674532Y27784D01*
X672081Y26512D01*
X669600Y25301D01*
X667090Y24151D01*
X664552Y23064D01*
X661988Y22038D01*
X659400Y21076D01*
X656789Y20178D01*
X654157Y19344D01*
X651505Y18575D01*
X648835Y17871D01*
X646149Y17234D01*
X643448Y16662D01*
X640733Y16156D01*
X638007Y15718D01*
X635271Y15346D01*
X632527Y15042D01*
X629776Y14805D01*
X627020Y14636D01*
X624261Y14534D01*
X621500Y14500D01*
X618739Y14534D01*
X615980Y14636D01*
X613224Y14805D01*
X610473Y15042D01*
X607729Y15346D01*
X604993Y15718D01*
X602267Y16156D01*
X599552Y16662D01*
X596851Y17234D01*
X594165Y17871D01*
X591495Y18575D01*
X588843Y19344D01*
X586211Y20178D01*
X583600Y21076D01*
X581012Y22038D01*
X578448Y23064D01*
X575910Y24151D01*
X573400Y25301D01*
X570919Y26512D01*
X568468Y27784D01*
X566049Y29115D01*
X563663Y30506D01*
X561313Y31954D01*
X558998Y33460D01*
X556722Y35022D01*
X554484Y36639D01*
X552286Y38311D01*
X550131Y40036D01*
X548018Y41814D01*
X545950Y43643D01*
X543927Y45522D01*
X541950Y47450D01*
X540022Y49427D01*
X538143Y51450D01*
X536314Y53518D01*
X534536Y55631D01*
X532811Y57786D01*
X531139Y59984D01*
X529522Y62222D01*
X527960Y64498D01*
X526454Y66813D01*
X525006Y69163D01*
X523615Y71549D01*
X522284Y73968D01*
X521012Y76419D01*
X519801Y78900D01*
X518651Y81410D01*
X517564Y83948D01*
X516538Y86512D01*
X515576Y89100D01*
X514678Y91711D01*
X513844Y94343D01*
X513075Y96995D01*
X512371Y99665D01*
X511734Y102351D01*
X511162Y105052D01*
X510656Y107767D01*
X510218Y110493D01*
X509846Y113229D01*
X509542Y115973D01*
X509305Y118724D01*
X509136Y121480D01*
X509034Y124239D01*
X509000Y127000D01*
D12*
X539402Y76708D02*
X541998Y76708D01*
X539402Y76708D02*
X539303Y76710D01*
X539203Y76716D01*
X539104Y76725D01*
X539006Y76738D01*
X538908Y76755D01*
X538810Y76776D01*
X538714Y76801D01*
X538619Y76829D01*
X538525Y76861D01*
X538432Y76896D01*
X538340Y76935D01*
X538250Y76978D01*
X538162Y77023D01*
X538075Y77073D01*
X537991Y77125D01*
X537908Y77181D01*
X537828Y77239D01*
X537750Y77301D01*
X537675Y77366D01*
X537602Y77434D01*
X537532Y77504D01*
X537464Y77577D01*
X537399Y77652D01*
X537337Y77730D01*
X537279Y77810D01*
X537223Y77893D01*
X537171Y77977D01*
X537121Y78064D01*
X537076Y78152D01*
X537033Y78242D01*
X536994Y78334D01*
X536959Y78427D01*
X536927Y78521D01*
X536899Y78616D01*
X536874Y78712D01*
X536853Y78810D01*
X536836Y78908D01*
X536823Y79006D01*
X536814Y79105D01*
X536808Y79205D01*
X536806Y79304D01*
X536805Y79304D02*
X536805Y85796D01*
X536806Y85796D02*
X536808Y85895D01*
X536814Y85995D01*
X536823Y86094D01*
X536836Y86192D01*
X536853Y86290D01*
X536874Y86388D01*
X536899Y86484D01*
X536927Y86579D01*
X536959Y86673D01*
X536994Y86766D01*
X537033Y86858D01*
X537076Y86948D01*
X537121Y87036D01*
X537171Y87123D01*
X537223Y87207D01*
X537279Y87290D01*
X537337Y87370D01*
X537399Y87448D01*
X537464Y87523D01*
X537532Y87596D01*
X537602Y87666D01*
X537675Y87734D01*
X537750Y87799D01*
X537828Y87861D01*
X537908Y87919D01*
X537991Y87975D01*
X538075Y88027D01*
X538162Y88077D01*
X538250Y88122D01*
X538340Y88165D01*
X538432Y88204D01*
X538524Y88239D01*
X538619Y88271D01*
X538714Y88299D01*
X538810Y88324D01*
X538908Y88345D01*
X539006Y88362D01*
X539104Y88375D01*
X539203Y88384D01*
X539303Y88390D01*
X539402Y88392D01*
X541998Y88392D01*
X546364Y76708D02*
X550258Y76708D01*
X550357Y76710D01*
X550457Y76716D01*
X550556Y76725D01*
X550654Y76738D01*
X550752Y76755D01*
X550850Y76776D01*
X550946Y76801D01*
X551041Y76829D01*
X551135Y76861D01*
X551228Y76896D01*
X551320Y76935D01*
X551410Y76978D01*
X551498Y77023D01*
X551585Y77073D01*
X551669Y77125D01*
X551752Y77181D01*
X551832Y77239D01*
X551910Y77301D01*
X551985Y77366D01*
X552058Y77434D01*
X552128Y77504D01*
X552196Y77577D01*
X552261Y77652D01*
X552323Y77730D01*
X552381Y77810D01*
X552437Y77893D01*
X552489Y77977D01*
X552539Y78064D01*
X552584Y78152D01*
X552627Y78242D01*
X552666Y78334D01*
X552701Y78427D01*
X552733Y78521D01*
X552761Y78616D01*
X552786Y78712D01*
X552807Y78810D01*
X552824Y78908D01*
X552837Y79006D01*
X552846Y79105D01*
X552852Y79205D01*
X552854Y79304D01*
X552855Y79304D02*
X552855Y80603D01*
X552854Y80603D02*
X552852Y80702D01*
X552846Y80802D01*
X552837Y80901D01*
X552824Y80999D01*
X552807Y81097D01*
X552786Y81195D01*
X552761Y81291D01*
X552733Y81386D01*
X552701Y81480D01*
X552666Y81573D01*
X552627Y81665D01*
X552584Y81755D01*
X552539Y81843D01*
X552489Y81930D01*
X552437Y82014D01*
X552381Y82097D01*
X552323Y82177D01*
X552261Y82255D01*
X552196Y82330D01*
X552128Y82403D01*
X552058Y82473D01*
X551985Y82541D01*
X551910Y82606D01*
X551832Y82668D01*
X551752Y82726D01*
X551669Y82782D01*
X551585Y82834D01*
X551498Y82884D01*
X551410Y82929D01*
X551320Y82972D01*
X551228Y83011D01*
X551135Y83046D01*
X551041Y83078D01*
X550946Y83106D01*
X550850Y83131D01*
X550752Y83152D01*
X550654Y83169D01*
X550556Y83182D01*
X550457Y83191D01*
X550357Y83197D01*
X550258Y83199D01*
X546364Y83199D01*
X546364Y88392D01*
X552855Y88392D01*
D10*
X262700Y127000D02*
X262735Y129884D01*
X262842Y132765D01*
X263018Y135644D01*
X263266Y138517D01*
X263584Y141383D01*
X263972Y144241D01*
X264430Y147088D01*
X264958Y149923D01*
X265555Y152744D01*
X266221Y155550D01*
X266956Y158339D01*
X267760Y161108D01*
X268630Y163858D01*
X269569Y166585D01*
X270573Y169288D01*
X271644Y171965D01*
X272780Y174616D01*
X273981Y177238D01*
X275246Y179829D01*
X276574Y182389D01*
X277965Y184916D01*
X279417Y187407D01*
X280930Y189862D01*
X282502Y192280D01*
X284134Y194657D01*
X285823Y196995D01*
X287569Y199290D01*
X289371Y201541D01*
X291228Y203748D01*
X293138Y205908D01*
X295101Y208021D01*
X297115Y210085D01*
X299179Y212099D01*
X301292Y214062D01*
X303452Y215972D01*
X305659Y217829D01*
X307910Y219631D01*
X310205Y221377D01*
X312543Y223066D01*
X314920Y224698D01*
X317338Y226270D01*
X319793Y227783D01*
X322284Y229235D01*
X324811Y230626D01*
X327371Y231954D01*
X329962Y233219D01*
X332584Y234420D01*
X335235Y235556D01*
X337912Y236627D01*
X340615Y237631D01*
X343342Y238570D01*
X346092Y239440D01*
X348861Y240244D01*
X351650Y240979D01*
X354456Y241645D01*
X357277Y242242D01*
X360112Y242770D01*
X362959Y243228D01*
X365817Y243616D01*
X368683Y243934D01*
X371556Y244182D01*
X374435Y244358D01*
X377316Y244465D01*
X380200Y244500D01*
X383084Y244465D01*
X385965Y244358D01*
X388844Y244182D01*
X391717Y243934D01*
X394583Y243616D01*
X397441Y243228D01*
X400288Y242770D01*
X403123Y242242D01*
X405944Y241645D01*
X408750Y240979D01*
X411539Y240244D01*
X414308Y239440D01*
X417058Y238570D01*
X419785Y237631D01*
X422488Y236627D01*
X425165Y235556D01*
X427816Y234420D01*
X430438Y233219D01*
X433029Y231954D01*
X435589Y230626D01*
X438116Y229235D01*
X440607Y227783D01*
X443062Y226270D01*
X445480Y224698D01*
X447857Y223066D01*
X450195Y221377D01*
X452490Y219631D01*
X454741Y217829D01*
X456948Y215972D01*
X459108Y214062D01*
X461221Y212099D01*
X463285Y210085D01*
X465299Y208021D01*
X467262Y205908D01*
X469172Y203748D01*
X471029Y201541D01*
X472831Y199290D01*
X474577Y196995D01*
X476266Y194657D01*
X477898Y192280D01*
X479470Y189862D01*
X480983Y187407D01*
X482435Y184916D01*
X483826Y182389D01*
X485154Y179829D01*
X486419Y177238D01*
X487620Y174616D01*
X488756Y171965D01*
X489827Y169288D01*
X490831Y166585D01*
X491770Y163858D01*
X492640Y161108D01*
X493444Y158339D01*
X494179Y155550D01*
X494845Y152744D01*
X495442Y149923D01*
X495970Y147088D01*
X496428Y144241D01*
X496816Y141383D01*
X497134Y138517D01*
X497382Y135644D01*
X497558Y132765D01*
X497665Y129884D01*
X497700Y127000D01*
X497665Y124116D01*
X497558Y121235D01*
X497382Y118356D01*
X497134Y115483D01*
X496816Y112617D01*
X496428Y109759D01*
X495970Y106912D01*
X495442Y104077D01*
X494845Y101256D01*
X494179Y98450D01*
X493444Y95661D01*
X492640Y92892D01*
X491770Y90142D01*
X490831Y87415D01*
X489827Y84712D01*
X488756Y82035D01*
X487620Y79384D01*
X486419Y76762D01*
X485154Y74171D01*
X483826Y71611D01*
X482435Y69084D01*
X480983Y66593D01*
X479470Y64138D01*
X477898Y61720D01*
X476266Y59343D01*
X474577Y57005D01*
X472831Y54710D01*
X471029Y52459D01*
X469172Y50252D01*
X467262Y48092D01*
X465299Y45979D01*
X463285Y43915D01*
X461221Y41901D01*
X459108Y39938D01*
X456948Y38028D01*
X454741Y36171D01*
X452490Y34369D01*
X450195Y32623D01*
X447857Y30934D01*
X445480Y29302D01*
X443062Y27730D01*
X440607Y26217D01*
X438116Y24765D01*
X435589Y23374D01*
X433029Y22046D01*
X430438Y20781D01*
X427816Y19580D01*
X425165Y18444D01*
X422488Y17373D01*
X419785Y16369D01*
X417058Y15430D01*
X414308Y14560D01*
X411539Y13756D01*
X408750Y13021D01*
X405944Y12355D01*
X403123Y11758D01*
X400288Y11230D01*
X397441Y10772D01*
X394583Y10384D01*
X391717Y10066D01*
X388844Y9818D01*
X385965Y9642D01*
X383084Y9535D01*
X380200Y9500D01*
X377316Y9535D01*
X374435Y9642D01*
X371556Y9818D01*
X368683Y10066D01*
X365817Y10384D01*
X362959Y10772D01*
X360112Y11230D01*
X357277Y11758D01*
X354456Y12355D01*
X351650Y13021D01*
X348861Y13756D01*
X346092Y14560D01*
X343342Y15430D01*
X340615Y16369D01*
X337912Y17373D01*
X335235Y18444D01*
X332584Y19580D01*
X329962Y20781D01*
X327371Y22046D01*
X324811Y23374D01*
X322284Y24765D01*
X319793Y26217D01*
X317338Y27730D01*
X314920Y29302D01*
X312543Y30934D01*
X310205Y32623D01*
X307910Y34369D01*
X305659Y36171D01*
X303452Y38028D01*
X301292Y39938D01*
X299179Y41901D01*
X297115Y43915D01*
X295101Y45979D01*
X293138Y48092D01*
X291228Y50252D01*
X289371Y52459D01*
X287569Y54710D01*
X285823Y57005D01*
X284134Y59343D01*
X282502Y61720D01*
X280930Y64138D01*
X279417Y66593D01*
X277965Y69084D01*
X276574Y71611D01*
X275246Y74171D01*
X273981Y76762D01*
X272780Y79384D01*
X271644Y82035D01*
X270573Y84712D01*
X269569Y87415D01*
X268630Y90142D01*
X267760Y92892D01*
X266956Y95661D01*
X266221Y98450D01*
X265555Y101256D01*
X264958Y104077D01*
X264430Y106912D01*
X263972Y109759D01*
X263584Y112617D01*
X263266Y115483D01*
X263018Y118356D01*
X262842Y121235D01*
X262735Y124116D01*
X262700Y127000D01*
D11*
X267700Y127000D02*
X267734Y129761D01*
X267836Y132520D01*
X268005Y135276D01*
X268242Y138027D01*
X268546Y140771D01*
X268918Y143507D01*
X269356Y146233D01*
X269862Y148948D01*
X270434Y151649D01*
X271071Y154335D01*
X271775Y157005D01*
X272544Y159657D01*
X273378Y162289D01*
X274276Y164900D01*
X275238Y167488D01*
X276264Y170052D01*
X277351Y172590D01*
X278501Y175100D01*
X279712Y177581D01*
X280984Y180032D01*
X282315Y182451D01*
X283706Y184837D01*
X285154Y187187D01*
X286660Y189502D01*
X288222Y191778D01*
X289839Y194016D01*
X291511Y196214D01*
X293236Y198369D01*
X295014Y200482D01*
X296843Y202550D01*
X298722Y204573D01*
X300650Y206550D01*
X302627Y208478D01*
X304650Y210357D01*
X306718Y212186D01*
X308831Y213964D01*
X310986Y215689D01*
X313184Y217361D01*
X315422Y218978D01*
X317698Y220540D01*
X320013Y222046D01*
X322363Y223494D01*
X324749Y224885D01*
X327168Y226216D01*
X329619Y227488D01*
X332100Y228699D01*
X334610Y229849D01*
X337148Y230936D01*
X339712Y231962D01*
X342300Y232924D01*
X344911Y233822D01*
X347543Y234656D01*
X350195Y235425D01*
X352865Y236129D01*
X355551Y236766D01*
X358252Y237338D01*
X360967Y237844D01*
X363693Y238282D01*
X366429Y238654D01*
X369173Y238958D01*
X371924Y239195D01*
X374680Y239364D01*
X377439Y239466D01*
X380200Y239500D01*
X382961Y239466D01*
X385720Y239364D01*
X388476Y239195D01*
X391227Y238958D01*
X393971Y238654D01*
X396707Y238282D01*
X399433Y237844D01*
X402148Y237338D01*
X404849Y236766D01*
X407535Y236129D01*
X410205Y235425D01*
X412857Y234656D01*
X415489Y233822D01*
X418100Y232924D01*
X420688Y231962D01*
X423252Y230936D01*
X425790Y229849D01*
X428300Y228699D01*
X430781Y227488D01*
X433232Y226216D01*
X435651Y224885D01*
X438037Y223494D01*
X440387Y222046D01*
X442702Y220540D01*
X444978Y218978D01*
X447216Y217361D01*
X449414Y215689D01*
X451569Y213964D01*
X453682Y212186D01*
X455750Y210357D01*
X457773Y208478D01*
X459750Y206550D01*
X461678Y204573D01*
X463557Y202550D01*
X465386Y200482D01*
X467164Y198369D01*
X468889Y196214D01*
X470561Y194016D01*
X472178Y191778D01*
X473740Y189502D01*
X475246Y187187D01*
X476694Y184837D01*
X478085Y182451D01*
X479416Y180032D01*
X480688Y177581D01*
X481899Y175100D01*
X483049Y172590D01*
X484136Y170052D01*
X485162Y167488D01*
X486124Y164900D01*
X487022Y162289D01*
X487856Y159657D01*
X488625Y157005D01*
X489329Y154335D01*
X489966Y151649D01*
X490538Y148948D01*
X491044Y146233D01*
X491482Y143507D01*
X491854Y140771D01*
X492158Y138027D01*
X492395Y135276D01*
X492564Y132520D01*
X492666Y129761D01*
X492700Y127000D01*
X492666Y124239D01*
X492564Y121480D01*
X492395Y118724D01*
X492158Y115973D01*
X491854Y113229D01*
X491482Y110493D01*
X491044Y107767D01*
X490538Y105052D01*
X489966Y102351D01*
X489329Y99665D01*
X488625Y96995D01*
X487856Y94343D01*
X487022Y91711D01*
X486124Y89100D01*
X485162Y86512D01*
X484136Y83948D01*
X483049Y81410D01*
X481899Y78900D01*
X480688Y76419D01*
X479416Y73968D01*
X478085Y71549D01*
X476694Y69163D01*
X475246Y66813D01*
X473740Y64498D01*
X472178Y62222D01*
X470561Y59984D01*
X468889Y57786D01*
X467164Y55631D01*
X465386Y53518D01*
X463557Y51450D01*
X461678Y49427D01*
X459750Y47450D01*
X457773Y45522D01*
X455750Y43643D01*
X453682Y41814D01*
X451569Y40036D01*
X449414Y38311D01*
X447216Y36639D01*
X444978Y35022D01*
X442702Y33460D01*
X440387Y31954D01*
X438037Y30506D01*
X435651Y29115D01*
X433232Y27784D01*
X430781Y26512D01*
X428300Y25301D01*
X425790Y24151D01*
X423252Y23064D01*
X420688Y22038D01*
X418100Y21076D01*
X415489Y20178D01*
X412857Y19344D01*
X410205Y18575D01*
X407535Y17871D01*
X404849Y17234D01*
X402148Y16662D01*
X399433Y16156D01*
X396707Y15718D01*
X393971Y15346D01*
X391227Y15042D01*
X388476Y14805D01*
X385720Y14636D01*
X382961Y14534D01*
X380200Y14500D01*
X377439Y14534D01*
X374680Y14636D01*
X371924Y14805D01*
X369173Y15042D01*
X366429Y15346D01*
X363693Y15718D01*
X360967Y16156D01*
X358252Y16662D01*
X355551Y17234D01*
X352865Y17871D01*
X350195Y18575D01*
X347543Y19344D01*
X344911Y20178D01*
X342300Y21076D01*
X339712Y22038D01*
X337148Y23064D01*
X334610Y24151D01*
X332100Y25301D01*
X329619Y26512D01*
X327168Y27784D01*
X324749Y29115D01*
X322363Y30506D01*
X320013Y31954D01*
X317698Y33460D01*
X315422Y35022D01*
X313184Y36639D01*
X310986Y38311D01*
X308831Y40036D01*
X306718Y41814D01*
X304650Y43643D01*
X302627Y45522D01*
X300650Y47450D01*
X298722Y49427D01*
X296843Y51450D01*
X295014Y53518D01*
X293236Y55631D01*
X291511Y57786D01*
X289839Y59984D01*
X288222Y62222D01*
X286660Y64498D01*
X285154Y66813D01*
X283706Y69163D01*
X282315Y71549D01*
X280984Y73968D01*
X279712Y76419D01*
X278501Y78900D01*
X277351Y81410D01*
X276264Y83948D01*
X275238Y86512D01*
X274276Y89100D01*
X273378Y91711D01*
X272544Y94343D01*
X271775Y96995D01*
X271071Y99665D01*
X270434Y102351D01*
X269862Y105052D01*
X269356Y107767D01*
X268918Y110493D01*
X268546Y113229D01*
X268242Y115973D01*
X268005Y118724D01*
X267836Y121480D01*
X267734Y124239D01*
X267700Y127000D01*
D12*
X296832Y75438D02*
X299428Y75438D01*
X296832Y75438D02*
X296733Y75440D01*
X296633Y75446D01*
X296534Y75455D01*
X296436Y75468D01*
X296338Y75485D01*
X296240Y75506D01*
X296144Y75531D01*
X296049Y75559D01*
X295955Y75591D01*
X295862Y75626D01*
X295770Y75665D01*
X295680Y75708D01*
X295592Y75753D01*
X295505Y75803D01*
X295421Y75855D01*
X295338Y75911D01*
X295258Y75969D01*
X295180Y76031D01*
X295105Y76096D01*
X295032Y76164D01*
X294962Y76234D01*
X294894Y76307D01*
X294829Y76382D01*
X294767Y76460D01*
X294709Y76540D01*
X294653Y76623D01*
X294601Y76707D01*
X294551Y76794D01*
X294506Y76882D01*
X294463Y76972D01*
X294424Y77064D01*
X294389Y77157D01*
X294357Y77251D01*
X294329Y77346D01*
X294304Y77442D01*
X294283Y77540D01*
X294266Y77638D01*
X294253Y77736D01*
X294244Y77835D01*
X294238Y77935D01*
X294236Y78034D01*
X294235Y78034D02*
X294235Y84526D01*
X294236Y84526D02*
X294238Y84625D01*
X294244Y84725D01*
X294253Y84824D01*
X294266Y84922D01*
X294283Y85020D01*
X294304Y85118D01*
X294329Y85214D01*
X294357Y85309D01*
X294389Y85403D01*
X294424Y85496D01*
X294463Y85588D01*
X294506Y85678D01*
X294551Y85766D01*
X294601Y85853D01*
X294653Y85937D01*
X294709Y86020D01*
X294767Y86100D01*
X294829Y86178D01*
X294894Y86253D01*
X294962Y86326D01*
X295032Y86396D01*
X295105Y86464D01*
X295180Y86529D01*
X295258Y86591D01*
X295338Y86649D01*
X295421Y86705D01*
X295505Y86757D01*
X295592Y86807D01*
X295680Y86852D01*
X295770Y86895D01*
X295862Y86934D01*
X295954Y86969D01*
X296049Y87001D01*
X296144Y87029D01*
X296240Y87054D01*
X296338Y87075D01*
X296436Y87092D01*
X296534Y87105D01*
X296633Y87114D01*
X296733Y87120D01*
X296832Y87122D01*
X299428Y87122D01*
X303794Y81929D02*
X307688Y81929D01*
X307787Y81927D01*
X307887Y81921D01*
X307986Y81912D01*
X308084Y81899D01*
X308182Y81882D01*
X308280Y81861D01*
X308376Y81836D01*
X308471Y81808D01*
X308565Y81776D01*
X308658Y81741D01*
X308750Y81702D01*
X308840Y81659D01*
X308928Y81614D01*
X309015Y81564D01*
X309099Y81512D01*
X309182Y81456D01*
X309262Y81398D01*
X309340Y81336D01*
X309415Y81271D01*
X309488Y81203D01*
X309558Y81133D01*
X309626Y81060D01*
X309691Y80985D01*
X309753Y80907D01*
X309811Y80827D01*
X309867Y80744D01*
X309919Y80660D01*
X309969Y80573D01*
X310014Y80485D01*
X310057Y80395D01*
X310096Y80303D01*
X310131Y80210D01*
X310163Y80116D01*
X310191Y80021D01*
X310216Y79925D01*
X310237Y79827D01*
X310254Y79729D01*
X310267Y79631D01*
X310276Y79532D01*
X310282Y79432D01*
X310284Y79333D01*
X310285Y79333D02*
X310285Y78684D01*
X310283Y78571D01*
X310277Y78458D01*
X310267Y78345D01*
X310253Y78232D01*
X310236Y78120D01*
X310214Y78009D01*
X310189Y77899D01*
X310159Y77789D01*
X310126Y77681D01*
X310089Y77574D01*
X310049Y77468D01*
X310004Y77364D01*
X309956Y77261D01*
X309905Y77160D01*
X309850Y77061D01*
X309792Y76964D01*
X309730Y76869D01*
X309665Y76776D01*
X309597Y76686D01*
X309526Y76598D01*
X309451Y76512D01*
X309374Y76429D01*
X309294Y76349D01*
X309211Y76272D01*
X309125Y76197D01*
X309037Y76126D01*
X308947Y76058D01*
X308854Y75993D01*
X308759Y75931D01*
X308662Y75873D01*
X308563Y75818D01*
X308462Y75767D01*
X308359Y75719D01*
X308255Y75674D01*
X308149Y75634D01*
X308042Y75597D01*
X307934Y75564D01*
X307824Y75534D01*
X307714Y75509D01*
X307603Y75487D01*
X307491Y75470D01*
X307378Y75456D01*
X307265Y75446D01*
X307152Y75440D01*
X307039Y75438D01*
X306926Y75440D01*
X306813Y75446D01*
X306700Y75456D01*
X306587Y75470D01*
X306475Y75487D01*
X306364Y75509D01*
X306254Y75534D01*
X306144Y75564D01*
X306036Y75597D01*
X305929Y75634D01*
X305823Y75674D01*
X305719Y75719D01*
X305616Y75767D01*
X305515Y75818D01*
X305416Y75873D01*
X305319Y75931D01*
X305224Y75993D01*
X305131Y76058D01*
X305041Y76126D01*
X304953Y76197D01*
X304867Y76272D01*
X304784Y76349D01*
X304704Y76429D01*
X304627Y76512D01*
X304552Y76598D01*
X304481Y76686D01*
X304413Y76776D01*
X304348Y76869D01*
X304286Y76964D01*
X304228Y77061D01*
X304173Y77160D01*
X304122Y77261D01*
X304074Y77364D01*
X304029Y77468D01*
X303989Y77574D01*
X303952Y77681D01*
X303919Y77789D01*
X303889Y77899D01*
X303864Y78009D01*
X303842Y78120D01*
X303825Y78232D01*
X303811Y78345D01*
X303801Y78458D01*
X303795Y78571D01*
X303793Y78684D01*
X303794Y78684D02*
X303794Y81929D01*
X303793Y81929D02*
X303795Y82072D01*
X303801Y82215D01*
X303811Y82358D01*
X303825Y82500D01*
X303842Y82642D01*
X303864Y82784D01*
X303889Y82925D01*
X303919Y83065D01*
X303952Y83204D01*
X303989Y83342D01*
X304030Y83479D01*
X304074Y83615D01*
X304123Y83750D01*
X304175Y83883D01*
X304230Y84015D01*
X304290Y84145D01*
X304353Y84274D01*
X304419Y84401D01*
X304489Y84525D01*
X304562Y84648D01*
X304639Y84769D01*
X304719Y84888D01*
X304802Y85004D01*
X304888Y85119D01*
X304977Y85230D01*
X305070Y85340D01*
X305165Y85446D01*
X305264Y85550D01*
X305365Y85651D01*
X305469Y85750D01*
X305575Y85845D01*
X305685Y85938D01*
X305796Y86027D01*
X305911Y86113D01*
X306027Y86196D01*
X306146Y86276D01*
X306267Y86353D01*
X306389Y86426D01*
X306514Y86496D01*
X306641Y86562D01*
X306770Y86625D01*
X306900Y86685D01*
X307032Y86740D01*
X307165Y86792D01*
X307300Y86841D01*
X307436Y86885D01*
X307573Y86926D01*
X307711Y86963D01*
X307850Y86996D01*
X307990Y87026D01*
X308131Y87051D01*
X308273Y87073D01*
X308415Y87090D01*
X308557Y87104D01*
X308700Y87114D01*
X308843Y87120D01*
X308986Y87122D01*
D13*
X32720Y346740D02*
X13220Y346740D01*
X13220Y445740D01*
X32720Y445740D01*
X57720Y346740D02*
X152710Y346740D01*
X152710Y356240D01*
X152710Y436240D02*
X152710Y445740D01*
X57720Y445740D01*
D12*
X91948Y359285D02*
X101036Y359285D01*
X101135Y359283D01*
X101235Y359277D01*
X101334Y359268D01*
X101432Y359255D01*
X101530Y359238D01*
X101628Y359217D01*
X101724Y359192D01*
X101819Y359164D01*
X101913Y359132D01*
X102006Y359097D01*
X102098Y359058D01*
X102188Y359015D01*
X102276Y358970D01*
X102363Y358920D01*
X102447Y358868D01*
X102530Y358812D01*
X102610Y358754D01*
X102688Y358692D01*
X102763Y358627D01*
X102836Y358559D01*
X102906Y358489D01*
X102974Y358416D01*
X103039Y358341D01*
X103101Y358263D01*
X103159Y358183D01*
X103215Y358100D01*
X103267Y358016D01*
X103317Y357929D01*
X103362Y357841D01*
X103405Y357751D01*
X103444Y357659D01*
X103479Y357566D01*
X103511Y357472D01*
X103539Y357377D01*
X103564Y357281D01*
X103585Y357183D01*
X103602Y357085D01*
X103615Y356987D01*
X103624Y356888D01*
X103630Y356788D01*
X103632Y356689D01*
X103632Y355390D01*
X94544Y364559D02*
X91948Y367804D01*
X103632Y367804D01*
X103632Y364559D02*
X103632Y371050D01*
D14*
X190500Y69850D02*
X190500Y31750D01*
D15*
X190026Y31134D01*
X189537Y30529D01*
X189033Y29937D01*
X188515Y29357D01*
X187983Y28790D01*
X187437Y28236D01*
X186878Y27696D01*
X186305Y27170D01*
X185720Y26657D01*
X185123Y26160D01*
X184514Y25677D01*
X183893Y25209D01*
X183260Y24756D01*
X182617Y24319D01*
X181963Y23898D01*
X181299Y23494D01*
X180626Y23105D01*
X179943Y22733D01*
X179251Y22378D01*
X178551Y22040D01*
X177843Y21719D01*
X177127Y21416D01*
X176403Y21130D01*
X175674Y20862D01*
X174937Y20612D01*
X174195Y20381D01*
X173447Y20167D01*
X172695Y19972D01*
X171937Y19795D01*
X171176Y19637D01*
X170411Y19497D01*
X169643Y19377D01*
X168872Y19275D01*
X168099Y19192D01*
X167324Y19128D01*
X166548Y19083D01*
X165771Y19057D01*
X164993Y19050D01*
X164216Y19062D01*
X163439Y19093D01*
X162663Y19144D01*
X161888Y19213D01*
X161116Y19301D01*
X160346Y19408D01*
X159578Y19534D01*
X158814Y19678D01*
X158054Y19842D01*
X157298Y20024D01*
X156547Y20224D01*
X155800Y20442D01*
X155060Y20679D01*
X154325Y20934D01*
X153597Y21207D01*
X152876Y21498D01*
X152162Y21806D01*
X151456Y22131D01*
X150758Y22474D01*
X150068Y22834D01*
X149388Y23210D01*
X148717Y23603D01*
X148056Y24013D01*
X147405Y24438D01*
X146765Y24879D01*
X146136Y25336D01*
X145518Y25808D01*
X144912Y26295D01*
X144318Y26797D01*
X143736Y27313D01*
X143167Y27843D01*
X142612Y28387D01*
X142069Y28945D01*
X141541Y29515D01*
X141027Y30098D01*
X140527Y30694D01*
X140042Y31302D01*
X139572Y31921D01*
X139118Y32552D01*
X138679Y33194D01*
X138255Y33846D01*
X137848Y34509D01*
X137457Y35181D01*
X137083Y35863D01*
X136726Y36553D01*
X136386Y37252D01*
X136062Y37960D01*
X135757Y38674D01*
X135468Y39397D01*
X135198Y40126D01*
X134946Y40861D01*
X134711Y41603D01*
X134495Y42350D01*
X134297Y43102D01*
X134118Y43858D01*
X133957Y44619D01*
X133815Y45383D01*
X133692Y46151D01*
X133588Y46922D01*
X133502Y47695D01*
X133436Y48469D01*
X133388Y49245D01*
X133360Y50022D01*
X133350Y50800D01*
X133360Y51578D01*
X133388Y52355D01*
X133436Y53131D01*
X133502Y53905D01*
X133588Y54678D01*
X133692Y55449D01*
X133815Y56217D01*
X133957Y56981D01*
X134118Y57742D01*
X134297Y58498D01*
X134495Y59250D01*
X134711Y59997D01*
X134946Y60739D01*
X135198Y61474D01*
X135468Y62203D01*
X135757Y62926D01*
X136062Y63640D01*
X136386Y64348D01*
X136726Y65047D01*
X137083Y65737D01*
X137457Y66419D01*
X137848Y67091D01*
X138255Y67754D01*
X138679Y68406D01*
X139118Y69048D01*
X139572Y69679D01*
X140042Y70298D01*
X140527Y70906D01*
X141027Y71502D01*
X141541Y72085D01*
X142069Y72655D01*
X142612Y73213D01*
X143167Y73757D01*
X143736Y74287D01*
X144318Y74803D01*
X144912Y75305D01*
X145518Y75792D01*
X146136Y76264D01*
X146765Y76721D01*
X147405Y77162D01*
X148056Y77587D01*
X148717Y77997D01*
X149388Y78390D01*
X150068Y78766D01*
X150758Y79126D01*
X151456Y79469D01*
X152162Y79794D01*
X152876Y80102D01*
X153597Y80393D01*
X154325Y80666D01*
X155060Y80921D01*
X155800Y81158D01*
X156547Y81376D01*
X157298Y81576D01*
X158054Y81758D01*
X158814Y81922D01*
X159578Y82066D01*
X160346Y82192D01*
X161116Y82299D01*
X161888Y82387D01*
X162663Y82456D01*
X163439Y82507D01*
X164216Y82538D01*
X164993Y82550D01*
X165771Y82543D01*
X166548Y82517D01*
X167324Y82472D01*
X168099Y82408D01*
X168872Y82325D01*
X169643Y82223D01*
X170411Y82103D01*
X171176Y81963D01*
X171937Y81805D01*
X172695Y81628D01*
X173447Y81433D01*
X174195Y81219D01*
X174937Y80988D01*
X175674Y80738D01*
X176403Y80470D01*
X177127Y80184D01*
X177843Y79881D01*
X178551Y79560D01*
X179251Y79222D01*
X179943Y78867D01*
X180626Y78495D01*
X181299Y78106D01*
X181963Y77702D01*
X182617Y77281D01*
X183260Y76844D01*
X183893Y76391D01*
X184514Y75923D01*
X185123Y75440D01*
X185720Y74943D01*
X186305Y74430D01*
X186878Y73904D01*
X187437Y73364D01*
X187983Y72810D01*
X188515Y72243D01*
X189033Y71663D01*
X189537Y71071D01*
X190026Y70466D01*
X190500Y69850D01*
D16*
X139700Y50800D02*
X139708Y51423D01*
X139731Y52046D01*
X139769Y52669D01*
X139822Y53290D01*
X139891Y53909D01*
X139975Y54527D01*
X140074Y55142D01*
X140188Y55755D01*
X140317Y56365D01*
X140461Y56972D01*
X140620Y57575D01*
X140794Y58173D01*
X140982Y58768D01*
X141185Y59357D01*
X141402Y59941D01*
X141633Y60520D01*
X141879Y61093D01*
X142139Y61660D01*
X142412Y62220D01*
X142699Y62773D01*
X143000Y63320D01*
X143314Y63858D01*
X143641Y64389D01*
X143981Y64911D01*
X144333Y65426D01*
X144699Y65931D01*
X145076Y66427D01*
X145466Y66914D01*
X145867Y67391D01*
X146280Y67858D01*
X146704Y68314D01*
X147139Y68761D01*
X147586Y69196D01*
X148042Y69620D01*
X148509Y70033D01*
X148986Y70434D01*
X149473Y70824D01*
X149969Y71201D01*
X150474Y71567D01*
X150989Y71919D01*
X151511Y72259D01*
X152042Y72586D01*
X152580Y72900D01*
X153127Y73201D01*
X153680Y73488D01*
X154240Y73761D01*
X154807Y74021D01*
X155380Y74267D01*
X155959Y74498D01*
X156543Y74715D01*
X157132Y74918D01*
X157727Y75106D01*
X158325Y75280D01*
X158928Y75439D01*
X159535Y75583D01*
X160145Y75712D01*
X160758Y75826D01*
X161373Y75925D01*
X161991Y76009D01*
X162610Y76078D01*
X163231Y76131D01*
X163854Y76169D01*
X164477Y76192D01*
X165100Y76200D01*
X165723Y76192D01*
X166346Y76169D01*
X166969Y76131D01*
X167590Y76078D01*
X168209Y76009D01*
X168827Y75925D01*
X169442Y75826D01*
X170055Y75712D01*
X170665Y75583D01*
X171272Y75439D01*
X171875Y75280D01*
X172473Y75106D01*
X173068Y74918D01*
X173657Y74715D01*
X174241Y74498D01*
X174820Y74267D01*
X175393Y74021D01*
X175960Y73761D01*
X176520Y73488D01*
X177073Y73201D01*
X177620Y72900D01*
X178158Y72586D01*
X178689Y72259D01*
X179211Y71919D01*
X179726Y71567D01*
X180231Y71201D01*
X180727Y70824D01*
X181214Y70434D01*
X181691Y70033D01*
X182158Y69620D01*
X182614Y69196D01*
X183061Y68761D01*
X183496Y68314D01*
X183920Y67858D01*
X184333Y67391D01*
X184734Y66914D01*
X185124Y66427D01*
X185501Y65931D01*
X185867Y65426D01*
X186219Y64911D01*
X186559Y64389D01*
X186886Y63858D01*
X187200Y63320D01*
X187501Y62773D01*
X187788Y62220D01*
X188061Y61660D01*
X188321Y61093D01*
X188567Y60520D01*
X188798Y59941D01*
X189015Y59357D01*
X189218Y58768D01*
X189406Y58173D01*
X189580Y57575D01*
X189739Y56972D01*
X189883Y56365D01*
X190012Y55755D01*
X190126Y55142D01*
X190225Y54527D01*
X190309Y53909D01*
X190378Y53290D01*
X190431Y52669D01*
X190469Y52046D01*
X190492Y51423D01*
X190500Y50800D01*
X190492Y50177D01*
X190469Y49554D01*
X190431Y48931D01*
X190378Y48310D01*
X190309Y47691D01*
X190225Y47073D01*
X190126Y46458D01*
X190012Y45845D01*
X189883Y45235D01*
X189739Y44628D01*
X189580Y44025D01*
X189406Y43427D01*
X189218Y42832D01*
X189015Y42243D01*
X188798Y41659D01*
X188567Y41080D01*
X188321Y40507D01*
X188061Y39940D01*
X187788Y39380D01*
X187501Y38827D01*
X187200Y38280D01*
X186886Y37742D01*
X186559Y37211D01*
X186219Y36689D01*
X185867Y36174D01*
X185501Y35669D01*
X185124Y35173D01*
X184734Y34686D01*
X184333Y34209D01*
X183920Y33742D01*
X183496Y33286D01*
X183061Y32839D01*
X182614Y32404D01*
X182158Y31980D01*
X181691Y31567D01*
X181214Y31166D01*
X180727Y30776D01*
X180231Y30399D01*
X179726Y30033D01*
X179211Y29681D01*
X178689Y29341D01*
X178158Y29014D01*
X177620Y28700D01*
X177073Y28399D01*
X176520Y28112D01*
X175960Y27839D01*
X175393Y27579D01*
X174820Y27333D01*
X174241Y27102D01*
X173657Y26885D01*
X173068Y26682D01*
X172473Y26494D01*
X171875Y26320D01*
X171272Y26161D01*
X170665Y26017D01*
X170055Y25888D01*
X169442Y25774D01*
X168827Y25675D01*
X168209Y25591D01*
X167590Y25522D01*
X166969Y25469D01*
X166346Y25431D01*
X165723Y25408D01*
X165100Y25400D01*
X164477Y25408D01*
X163854Y25431D01*
X163231Y25469D01*
X162610Y25522D01*
X161991Y25591D01*
X161373Y25675D01*
X160758Y25774D01*
X160145Y25888D01*
X159535Y26017D01*
X158928Y26161D01*
X158325Y26320D01*
X157727Y26494D01*
X157132Y26682D01*
X156543Y26885D01*
X155959Y27102D01*
X155380Y27333D01*
X154807Y27579D01*
X154240Y27839D01*
X153680Y28112D01*
X153127Y28399D01*
X152580Y28700D01*
X152042Y29014D01*
X151511Y29341D01*
X150989Y29681D01*
X150474Y30033D01*
X149969Y30399D01*
X149473Y30776D01*
X148986Y31166D01*
X148509Y31567D01*
X148042Y31980D01*
X147586Y32404D01*
X147139Y32839D01*
X146704Y33286D01*
X146280Y33742D01*
X145867Y34209D01*
X145466Y34686D01*
X145076Y35173D01*
X144699Y35669D01*
X144333Y36174D01*
X143981Y36689D01*
X143641Y37211D01*
X143314Y37742D01*
X143000Y38280D01*
X142699Y38827D01*
X142412Y39380D01*
X142139Y39940D01*
X141879Y40507D01*
X141633Y41080D01*
X141402Y41659D01*
X141185Y42243D01*
X140982Y42832D01*
X140794Y43427D01*
X140620Y44025D01*
X140461Y44628D01*
X140317Y45235D01*
X140188Y45845D01*
X140074Y46458D01*
X139975Y47073D01*
X139891Y47691D01*
X139822Y48310D01*
X139769Y48931D01*
X139731Y49554D01*
X139708Y50177D01*
X139700Y50800D01*
D17*
X197485Y69469D02*
X197485Y80899D01*
X197485Y69469D02*
X202565Y69469D01*
X207391Y69469D02*
X212471Y69469D01*
X207391Y69469D02*
X207391Y80899D01*
X212471Y80899D01*
X211201Y75819D02*
X207391Y75819D01*
X217272Y80899D02*
X217272Y69469D01*
X217272Y80899D02*
X220447Y80899D01*
X220558Y80897D01*
X220668Y80891D01*
X220779Y80882D01*
X220889Y80868D01*
X220998Y80851D01*
X221107Y80830D01*
X221215Y80805D01*
X221322Y80776D01*
X221428Y80744D01*
X221533Y80708D01*
X221636Y80668D01*
X221738Y80625D01*
X221839Y80578D01*
X221938Y80527D01*
X222035Y80474D01*
X222129Y80417D01*
X222222Y80356D01*
X222313Y80293D01*
X222402Y80226D01*
X222488Y80156D01*
X222571Y80083D01*
X222653Y80008D01*
X222731Y79930D01*
X222806Y79848D01*
X222879Y79765D01*
X222949Y79679D01*
X223016Y79590D01*
X223079Y79499D01*
X223140Y79406D01*
X223197Y79312D01*
X223250Y79215D01*
X223301Y79116D01*
X223348Y79015D01*
X223391Y78913D01*
X223431Y78810D01*
X223467Y78705D01*
X223499Y78599D01*
X223528Y78492D01*
X223553Y78384D01*
X223574Y78275D01*
X223591Y78166D01*
X223605Y78056D01*
X223614Y77945D01*
X223620Y77835D01*
X223622Y77724D01*
X223622Y72644D01*
X223620Y72533D01*
X223614Y72423D01*
X223605Y72312D01*
X223591Y72202D01*
X223574Y72093D01*
X223553Y71984D01*
X223528Y71876D01*
X223499Y71769D01*
X223467Y71663D01*
X223431Y71558D01*
X223391Y71455D01*
X223348Y71353D01*
X223301Y71252D01*
X223250Y71153D01*
X223197Y71056D01*
X223140Y70962D01*
X223079Y70869D01*
X223016Y70778D01*
X222949Y70689D01*
X222879Y70603D01*
X222806Y70520D01*
X222731Y70438D01*
X222653Y70360D01*
X222571Y70285D01*
X222488Y70212D01*
X222402Y70142D01*
X222313Y70075D01*
X222222Y70012D01*
X222129Y69951D01*
X222034Y69894D01*
X221938Y69841D01*
X221839Y69790D01*
X221738Y69743D01*
X221636Y69700D01*
X221533Y69660D01*
X221428Y69624D01*
X221322Y69592D01*
X221215Y69563D01*
X221107Y69538D01*
X220998Y69517D01*
X220889Y69500D01*
X220779Y69486D01*
X220668Y69477D01*
X220558Y69471D01*
X220447Y69469D01*
X217272Y69469D01*
X229083Y78359D02*
X232258Y80899D01*
X232258Y69469D01*
X229083Y69469D02*
X235433Y69469D01*
D11*
X233690Y130480D02*
X233690Y178280D01*
X126990Y178280D01*
X126990Y151130D01*
D12*
X125803Y94036D02*
X125803Y88844D01*
X125802Y94036D02*
X125804Y94149D01*
X125810Y94262D01*
X125820Y94375D01*
X125834Y94488D01*
X125851Y94600D01*
X125873Y94711D01*
X125898Y94821D01*
X125928Y94931D01*
X125961Y95039D01*
X125998Y95146D01*
X126038Y95252D01*
X126083Y95356D01*
X126131Y95459D01*
X126182Y95560D01*
X126237Y95659D01*
X126295Y95756D01*
X126357Y95851D01*
X126422Y95944D01*
X126490Y96034D01*
X126561Y96122D01*
X126636Y96208D01*
X126713Y96291D01*
X126793Y96371D01*
X126876Y96448D01*
X126962Y96523D01*
X127050Y96594D01*
X127140Y96662D01*
X127233Y96727D01*
X127328Y96789D01*
X127425Y96847D01*
X127524Y96902D01*
X127625Y96953D01*
X127728Y97001D01*
X127832Y97046D01*
X127938Y97086D01*
X128045Y97123D01*
X128153Y97156D01*
X128263Y97186D01*
X128373Y97211D01*
X128484Y97233D01*
X128596Y97250D01*
X128709Y97264D01*
X128822Y97274D01*
X128935Y97280D01*
X129048Y97282D01*
X129161Y97280D01*
X129274Y97274D01*
X129387Y97264D01*
X129500Y97250D01*
X129612Y97233D01*
X129723Y97211D01*
X129833Y97186D01*
X129943Y97156D01*
X130051Y97123D01*
X130158Y97086D01*
X130264Y97046D01*
X130368Y97001D01*
X130471Y96953D01*
X130572Y96902D01*
X130671Y96847D01*
X130768Y96789D01*
X130863Y96727D01*
X130956Y96662D01*
X131046Y96594D01*
X131134Y96523D01*
X131220Y96448D01*
X131303Y96371D01*
X131383Y96291D01*
X131460Y96208D01*
X131535Y96122D01*
X131606Y96034D01*
X131674Y95944D01*
X131739Y95851D01*
X131801Y95756D01*
X131859Y95659D01*
X131914Y95560D01*
X131965Y95459D01*
X132013Y95356D01*
X132058Y95252D01*
X132098Y95146D01*
X132135Y95039D01*
X132168Y94931D01*
X132198Y94821D01*
X132223Y94711D01*
X132245Y94600D01*
X132262Y94488D01*
X132276Y94375D01*
X132286Y94262D01*
X132292Y94149D01*
X132294Y94036D01*
X132294Y88844D01*
X132292Y88731D01*
X132286Y88618D01*
X132276Y88505D01*
X132262Y88392D01*
X132245Y88280D01*
X132223Y88169D01*
X132198Y88059D01*
X132168Y87949D01*
X132135Y87841D01*
X132098Y87734D01*
X132058Y87628D01*
X132013Y87524D01*
X131965Y87421D01*
X131914Y87320D01*
X131859Y87221D01*
X131801Y87124D01*
X131739Y87029D01*
X131674Y86936D01*
X131606Y86846D01*
X131535Y86758D01*
X131460Y86672D01*
X131383Y86589D01*
X131303Y86509D01*
X131220Y86432D01*
X131134Y86357D01*
X131046Y86286D01*
X130956Y86218D01*
X130863Y86153D01*
X130768Y86091D01*
X130671Y86033D01*
X130572Y85978D01*
X130471Y85927D01*
X130368Y85879D01*
X130264Y85834D01*
X130158Y85794D01*
X130051Y85757D01*
X129943Y85724D01*
X129833Y85694D01*
X129723Y85669D01*
X129612Y85647D01*
X129500Y85630D01*
X129387Y85616D01*
X129274Y85606D01*
X129161Y85600D01*
X129048Y85598D01*
X128935Y85600D01*
X128822Y85606D01*
X128709Y85616D01*
X128596Y85630D01*
X128484Y85647D01*
X128373Y85669D01*
X128263Y85694D01*
X128153Y85724D01*
X128045Y85757D01*
X127938Y85794D01*
X127832Y85834D01*
X127728Y85879D01*
X127625Y85927D01*
X127524Y85978D01*
X127425Y86033D01*
X127328Y86091D01*
X127233Y86153D01*
X127140Y86218D01*
X127050Y86286D01*
X126962Y86357D01*
X126876Y86432D01*
X126793Y86509D01*
X126713Y86589D01*
X126636Y86672D01*
X126561Y86758D01*
X126490Y86846D01*
X126422Y86936D01*
X126357Y87029D01*
X126295Y87124D01*
X126237Y87221D01*
X126182Y87320D01*
X126131Y87421D01*
X126083Y87524D01*
X126038Y87628D01*
X125998Y87734D01*
X125961Y87841D01*
X125928Y87949D01*
X125898Y88059D01*
X125873Y88169D01*
X125851Y88280D01*
X125834Y88392D01*
X125820Y88505D01*
X125810Y88618D01*
X125804Y88731D01*
X125802Y88844D01*
X130995Y88194D02*
X133592Y85598D01*
X136946Y94686D02*
X140192Y97282D01*
X140192Y85598D01*
X136946Y85598D02*
X143438Y85598D01*
X229108Y235645D02*
X240792Y235645D01*
X229108Y235645D02*
X229108Y238890D01*
X229110Y239003D01*
X229116Y239116D01*
X229126Y239229D01*
X229140Y239342D01*
X229157Y239454D01*
X229179Y239565D01*
X229204Y239675D01*
X229234Y239785D01*
X229267Y239893D01*
X229304Y240000D01*
X229344Y240106D01*
X229389Y240210D01*
X229437Y240313D01*
X229488Y240414D01*
X229543Y240513D01*
X229601Y240610D01*
X229663Y240705D01*
X229728Y240798D01*
X229796Y240888D01*
X229867Y240976D01*
X229942Y241062D01*
X230019Y241145D01*
X230099Y241225D01*
X230182Y241302D01*
X230268Y241377D01*
X230356Y241448D01*
X230446Y241516D01*
X230539Y241581D01*
X230634Y241643D01*
X230731Y241701D01*
X230830Y241756D01*
X230931Y241807D01*
X231034Y241855D01*
X231138Y241900D01*
X231244Y241940D01*
X231351Y241977D01*
X231459Y242010D01*
X231569Y242040D01*
X231679Y242065D01*
X231790Y242087D01*
X231902Y242104D01*
X232015Y242118D01*
X232128Y242128D01*
X232241Y242134D01*
X232354Y242136D01*
X232467Y242134D01*
X232580Y242128D01*
X232693Y242118D01*
X232806Y242104D01*
X232918Y242087D01*
X233029Y242065D01*
X233139Y242040D01*
X233249Y242010D01*
X233357Y241977D01*
X233464Y241940D01*
X233570Y241900D01*
X233674Y241855D01*
X233777Y241807D01*
X233878Y241756D01*
X233977Y241701D01*
X234074Y241643D01*
X234169Y241581D01*
X234262Y241516D01*
X234352Y241448D01*
X234440Y241377D01*
X234526Y241302D01*
X234609Y241225D01*
X234689Y241145D01*
X234766Y241062D01*
X234841Y240976D01*
X234912Y240888D01*
X234980Y240798D01*
X235045Y240705D01*
X235107Y240610D01*
X235165Y240513D01*
X235220Y240414D01*
X235271Y240313D01*
X235319Y240210D01*
X235364Y240106D01*
X235404Y240000D01*
X235441Y239893D01*
X235474Y239785D01*
X235504Y239675D01*
X235529Y239565D01*
X235551Y239454D01*
X235568Y239342D01*
X235582Y239229D01*
X235592Y239116D01*
X235598Y239003D01*
X235600Y238890D01*
X235599Y238890D02*
X235599Y235645D01*
X235599Y239539D02*
X240792Y242136D01*
X231704Y247001D02*
X229108Y250246D01*
X240792Y250246D01*
X240792Y247001D02*
X240792Y253492D01*
X131572Y229108D02*
X119888Y229108D01*
X119888Y232354D01*
X119890Y232467D01*
X119896Y232580D01*
X119906Y232693D01*
X119920Y232806D01*
X119937Y232918D01*
X119959Y233029D01*
X119984Y233139D01*
X120014Y233249D01*
X120047Y233357D01*
X120084Y233464D01*
X120124Y233570D01*
X120169Y233674D01*
X120217Y233777D01*
X120268Y233878D01*
X120323Y233977D01*
X120381Y234074D01*
X120443Y234169D01*
X120508Y234262D01*
X120576Y234352D01*
X120647Y234440D01*
X120722Y234526D01*
X120799Y234609D01*
X120879Y234689D01*
X120962Y234766D01*
X121048Y234841D01*
X121136Y234912D01*
X121226Y234980D01*
X121319Y235045D01*
X121414Y235107D01*
X121511Y235165D01*
X121610Y235220D01*
X121711Y235271D01*
X121814Y235319D01*
X121918Y235364D01*
X122024Y235404D01*
X122131Y235441D01*
X122239Y235474D01*
X122349Y235504D01*
X122459Y235529D01*
X122570Y235551D01*
X122682Y235568D01*
X122795Y235582D01*
X122908Y235592D01*
X123021Y235598D01*
X123134Y235600D01*
X123247Y235598D01*
X123360Y235592D01*
X123473Y235582D01*
X123586Y235568D01*
X123698Y235551D01*
X123809Y235529D01*
X123919Y235504D01*
X124029Y235474D01*
X124137Y235441D01*
X124244Y235404D01*
X124350Y235364D01*
X124454Y235319D01*
X124557Y235271D01*
X124658Y235220D01*
X124757Y235165D01*
X124854Y235107D01*
X124949Y235045D01*
X125042Y234980D01*
X125132Y234912D01*
X125220Y234841D01*
X125306Y234766D01*
X125389Y234689D01*
X125469Y234609D01*
X125546Y234526D01*
X125621Y234440D01*
X125692Y234352D01*
X125760Y234262D01*
X125825Y234169D01*
X125887Y234074D01*
X125945Y233977D01*
X126000Y233878D01*
X126051Y233777D01*
X126099Y233674D01*
X126144Y233570D01*
X126184Y233464D01*
X126221Y233357D01*
X126254Y233249D01*
X126284Y233139D01*
X126309Y233029D01*
X126331Y232918D01*
X126348Y232806D01*
X126362Y232693D01*
X126372Y232580D01*
X126378Y232467D01*
X126380Y232354D01*
X126379Y232354D02*
X126379Y229108D01*
X126379Y233003D02*
X131572Y235599D01*
X122809Y246955D02*
X122702Y246953D01*
X122596Y246947D01*
X122490Y246937D01*
X122384Y246924D01*
X122278Y246906D01*
X122174Y246885D01*
X122070Y246860D01*
X121967Y246831D01*
X121866Y246799D01*
X121766Y246762D01*
X121667Y246722D01*
X121569Y246679D01*
X121473Y246632D01*
X121379Y246581D01*
X121287Y246527D01*
X121197Y246470D01*
X121109Y246410D01*
X121024Y246346D01*
X120941Y246279D01*
X120860Y246209D01*
X120782Y246137D01*
X120706Y246061D01*
X120634Y245983D01*
X120564Y245902D01*
X120497Y245819D01*
X120433Y245734D01*
X120373Y245646D01*
X120316Y245556D01*
X120262Y245464D01*
X120211Y245370D01*
X120164Y245274D01*
X120121Y245176D01*
X120081Y245077D01*
X120044Y244977D01*
X120012Y244876D01*
X119983Y244773D01*
X119958Y244669D01*
X119937Y244565D01*
X119919Y244459D01*
X119906Y244353D01*
X119896Y244247D01*
X119890Y244141D01*
X119888Y244034D01*
X119890Y243913D01*
X119896Y243792D01*
X119906Y243672D01*
X119919Y243551D01*
X119937Y243432D01*
X119958Y243312D01*
X119983Y243194D01*
X120012Y243077D01*
X120045Y242960D01*
X120081Y242845D01*
X120122Y242731D01*
X120165Y242618D01*
X120213Y242506D01*
X120264Y242397D01*
X120319Y242289D01*
X120377Y242182D01*
X120438Y242078D01*
X120503Y241976D01*
X120571Y241876D01*
X120642Y241778D01*
X120716Y241682D01*
X120793Y241589D01*
X120874Y241499D01*
X120957Y241411D01*
X121043Y241326D01*
X121132Y241243D01*
X121223Y241164D01*
X121317Y241087D01*
X121413Y241014D01*
X121511Y240944D01*
X121612Y240877D01*
X121715Y240813D01*
X121820Y240753D01*
X121927Y240695D01*
X122035Y240642D01*
X122145Y240592D01*
X122257Y240546D01*
X122370Y240503D01*
X122485Y240464D01*
X125081Y245981D02*
X125003Y246060D01*
X124923Y246136D01*
X124840Y246209D01*
X124754Y246279D01*
X124667Y246346D01*
X124576Y246410D01*
X124484Y246470D01*
X124390Y246528D01*
X124293Y246582D01*
X124195Y246632D01*
X124095Y246679D01*
X123994Y246723D01*
X123891Y246763D01*
X123786Y246799D01*
X123681Y246831D01*
X123574Y246860D01*
X123467Y246885D01*
X123358Y246907D01*
X123249Y246924D01*
X123140Y246938D01*
X123030Y246947D01*
X122919Y246953D01*
X122809Y246955D01*
X125081Y245982D02*
X131572Y240464D01*
X131572Y246955D01*
D11*
X77140Y200690D02*
X77140Y114330D01*
X42240Y114330D01*
X42240Y200690D01*
X77140Y200690D01*
X59690Y200690D02*
X77140Y183230D01*
X59690Y200690D02*
X59690Y257260D01*
X59690Y114330D02*
X59690Y57760D01*
D12*
X17018Y109340D02*
X17018Y115831D01*
X28702Y109340D01*
X28702Y115831D01*
X19614Y120389D02*
X17018Y123634D01*
X28702Y123634D01*
X28702Y120389D02*
X28702Y126880D01*
M02*
