G04 EAGLE Gerber RS-274X export*
G75*
%MOMM*%
%FSLAX34Y34*%
%LPD*%
%INSoldermask Bottom*%
%IPPOS*%
%AMOC8*
5,1,8,0,0,1.08239X$1,22.5*%
G01*
%ADD10R,2.828200X2.828200*%
%ADD11C,2.828200*%
%ADD12R,0.853200X1.841200*%
%ADD13C,2.753200*%
%ADD14C,1.711200*%
%ADD15P,1.649562X8X22.500000*%
%ADD16R,2.123200X2.123200*%
%ADD17C,2.123200*%
%ADD18R,2.153200X2.153200*%
%ADD19C,2.153200*%
%ADD20C,0.959600*%
%ADD21C,1.259600*%


D10*
X330200Y368300D03*
D11*
X430200Y368300D03*
D10*
X571500Y368300D03*
D11*
X671500Y368300D03*
D10*
X812800Y368300D03*
D11*
X912800Y368300D03*
D10*
X812800Y127000D03*
D11*
X912800Y127000D03*
D10*
X571500Y127000D03*
D11*
X671500Y127000D03*
D10*
X330200Y127000D03*
D11*
X430200Y127000D03*
D12*
X453390Y268360D03*
X466090Y268360D03*
X478790Y268360D03*
X491490Y268360D03*
X504190Y268360D03*
X516890Y268360D03*
X529590Y268360D03*
X542290Y268360D03*
X542290Y214240D03*
X529590Y214240D03*
X516890Y214240D03*
X504190Y214240D03*
X491490Y214240D03*
X478790Y214240D03*
X466090Y214240D03*
X453390Y214240D03*
X698500Y268360D03*
X711200Y268360D03*
X723900Y268360D03*
X736600Y268360D03*
X749300Y268360D03*
X762000Y268360D03*
X774700Y268360D03*
X787400Y268360D03*
X787400Y214240D03*
X774700Y214240D03*
X762000Y214240D03*
X749300Y214240D03*
X736600Y214240D03*
X723900Y214240D03*
X711200Y214240D03*
X698500Y214240D03*
D13*
X144210Y371240D03*
X144210Y421240D03*
D14*
X44210Y451240D03*
X44210Y341240D03*
D15*
X152400Y50800D03*
X177800Y50800D03*
D16*
X154940Y151130D03*
D17*
X180340Y151130D03*
X205740Y151130D03*
D18*
X59690Y270510D03*
D19*
X59690Y44510D03*
D20*
X368300Y266700D03*
X491490Y189230D03*
X516890Y189230D03*
X838200Y304800D03*
X889000Y304800D03*
X711200Y165100D03*
D21*
X736600Y190500D03*
X749300Y292100D03*
M02*
